%TF.GenerationSoftware,KiCad,Pcbnew,9.0.5*%
%TF.CreationDate,2025-12-25T07:08:30+05:30*%
%TF.ProjectId,LiteWingV2.5C,4c697465-5769-46e6-9756-322e35432e6b,rev?*%
%TF.SameCoordinates,Original*%
%TF.FileFunction,Legend,Bot*%
%TF.FilePolarity,Positive*%
%FSLAX46Y46*%
G04 Gerber Fmt 4.6, Leading zero omitted, Abs format (unit mm)*
G04 Created by KiCad (PCBNEW 9.0.5) date 2025-12-25 07:08:30*
%MOMM*%
%LPD*%
G01*
G04 APERTURE LIST*
%ADD10C,0.200000*%
%ADD11C,0.125000*%
%ADD12C,0.152400*%
%ADD13C,0.120000*%
%ADD14C,0.000000*%
%ADD15C,0.100000*%
G04 APERTURE END LIST*
D10*
X179037321Y-128459380D02*
X179172008Y-128526723D01*
X179172008Y-128526723D02*
X179239351Y-128526723D01*
X179239351Y-128526723D02*
X179340366Y-128493052D01*
X179340366Y-128493052D02*
X179441382Y-128392036D01*
X179441382Y-128392036D02*
X179475053Y-128291021D01*
X179475053Y-128291021D02*
X179475053Y-128223678D01*
X179475053Y-128223678D02*
X179441382Y-128122662D01*
X179441382Y-128122662D02*
X179172008Y-127853288D01*
X179172008Y-127853288D02*
X178464901Y-128560395D01*
X178464901Y-128560395D02*
X178700603Y-128796097D01*
X178700603Y-128796097D02*
X178801618Y-128829769D01*
X178801618Y-128829769D02*
X178868962Y-128829769D01*
X178868962Y-128829769D02*
X178969977Y-128796097D01*
X178969977Y-128796097D02*
X179037321Y-128728754D01*
X179037321Y-128728754D02*
X179070992Y-128627739D01*
X179070992Y-128627739D02*
X179070992Y-128560395D01*
X179070992Y-128560395D02*
X179037321Y-128459380D01*
X179037321Y-128459380D02*
X178801618Y-128223678D01*
X180215832Y-128897113D02*
X179879114Y-128560395D01*
X179879114Y-128560395D02*
X179172008Y-129267502D01*
X179744428Y-129839922D02*
X180316847Y-129267502D01*
X180316847Y-129267502D02*
X180417863Y-129233830D01*
X180417863Y-129233830D02*
X180485206Y-129233830D01*
X180485206Y-129233830D02*
X180586221Y-129267502D01*
X180586221Y-129267502D02*
X180720908Y-129402189D01*
X180720908Y-129402189D02*
X180754580Y-129503204D01*
X180754580Y-129503204D02*
X180754580Y-129570548D01*
X180754580Y-129570548D02*
X180720908Y-129671563D01*
X180720908Y-129671563D02*
X180148489Y-130243983D01*
X180821924Y-130243983D02*
X181057626Y-130479685D01*
X181529030Y-130210311D02*
X181192313Y-129873593D01*
X181192313Y-129873593D02*
X180485206Y-130580700D01*
X180485206Y-130580700D02*
X180821924Y-130917418D01*
X182234069Y-125705349D02*
X181661649Y-125806365D01*
X181830008Y-125301288D02*
X181122901Y-126008395D01*
X181122901Y-126008395D02*
X181392275Y-126277769D01*
X181392275Y-126277769D02*
X181493290Y-126311441D01*
X181493290Y-126311441D02*
X181560634Y-126311441D01*
X181560634Y-126311441D02*
X181661649Y-126277769D01*
X181661649Y-126277769D02*
X181762664Y-126176754D01*
X181762664Y-126176754D02*
X181796336Y-126075739D01*
X181796336Y-126075739D02*
X181796336Y-126008395D01*
X181796336Y-126008395D02*
X181762664Y-125907380D01*
X181762664Y-125907380D02*
X181493290Y-125638006D01*
X182166725Y-126378784D02*
X182402427Y-126614487D01*
X182873832Y-126345113D02*
X182537114Y-126008395D01*
X182537114Y-126008395D02*
X181830008Y-126715502D01*
X181830008Y-126715502D02*
X182166725Y-127052219D01*
X183176878Y-126648158D02*
X182469771Y-127355265D01*
X182469771Y-127355265D02*
X182638130Y-127523624D01*
X182638130Y-127523624D02*
X182772817Y-127590967D01*
X182772817Y-127590967D02*
X182907504Y-127590967D01*
X182907504Y-127590967D02*
X183008519Y-127557296D01*
X183008519Y-127557296D02*
X183176878Y-127456280D01*
X183176878Y-127456280D02*
X183277893Y-127355265D01*
X183277893Y-127355265D02*
X183378908Y-127186906D01*
X183378908Y-127186906D02*
X183412580Y-127085891D01*
X183412580Y-127085891D02*
X183412580Y-126951204D01*
X183412580Y-126951204D02*
X183345237Y-126816517D01*
X183345237Y-126816517D02*
X183176878Y-126648158D01*
D11*
X144077323Y-114386270D02*
X144043456Y-114352404D01*
X144043456Y-114352404D02*
X143941856Y-114318537D01*
X143941856Y-114318537D02*
X143874123Y-114318537D01*
X143874123Y-114318537D02*
X143772523Y-114352404D01*
X143772523Y-114352404D02*
X143704790Y-114420137D01*
X143704790Y-114420137D02*
X143670923Y-114487870D01*
X143670923Y-114487870D02*
X143637056Y-114623337D01*
X143637056Y-114623337D02*
X143637056Y-114724937D01*
X143637056Y-114724937D02*
X143670923Y-114860404D01*
X143670923Y-114860404D02*
X143704790Y-114928137D01*
X143704790Y-114928137D02*
X143772523Y-114995870D01*
X143772523Y-114995870D02*
X143874123Y-115029737D01*
X143874123Y-115029737D02*
X143941856Y-115029737D01*
X143941856Y-115029737D02*
X144043456Y-114995870D01*
X144043456Y-114995870D02*
X144077323Y-114962004D01*
X144348256Y-114352404D02*
X144449856Y-114318537D01*
X144449856Y-114318537D02*
X144619190Y-114318537D01*
X144619190Y-114318537D02*
X144686923Y-114352404D01*
X144686923Y-114352404D02*
X144720790Y-114386270D01*
X144720790Y-114386270D02*
X144754656Y-114454004D01*
X144754656Y-114454004D02*
X144754656Y-114521737D01*
X144754656Y-114521737D02*
X144720790Y-114589470D01*
X144720790Y-114589470D02*
X144686923Y-114623337D01*
X144686923Y-114623337D02*
X144619190Y-114657204D01*
X144619190Y-114657204D02*
X144483723Y-114691070D01*
X144483723Y-114691070D02*
X144415990Y-114724937D01*
X144415990Y-114724937D02*
X144382123Y-114758804D01*
X144382123Y-114758804D02*
X144348256Y-114826537D01*
X144348256Y-114826537D02*
X144348256Y-114894270D01*
X144348256Y-114894270D02*
X144382123Y-114962004D01*
X144382123Y-114962004D02*
X144415990Y-114995870D01*
X144415990Y-114995870D02*
X144483723Y-115029737D01*
X144483723Y-115029737D02*
X144653056Y-115029737D01*
X144653056Y-115029737D02*
X144754656Y-114995870D01*
D10*
X112291069Y-61253349D02*
X111718649Y-61354365D01*
X111887008Y-60849288D02*
X111179901Y-61556395D01*
X111179901Y-61556395D02*
X111449275Y-61825769D01*
X111449275Y-61825769D02*
X111550290Y-61859441D01*
X111550290Y-61859441D02*
X111617634Y-61859441D01*
X111617634Y-61859441D02*
X111718649Y-61825769D01*
X111718649Y-61825769D02*
X111819664Y-61724754D01*
X111819664Y-61724754D02*
X111853336Y-61623739D01*
X111853336Y-61623739D02*
X111853336Y-61556395D01*
X111853336Y-61556395D02*
X111819664Y-61455380D01*
X111819664Y-61455380D02*
X111550290Y-61186006D01*
X112223725Y-61926784D02*
X112459427Y-62162487D01*
X112930832Y-61893113D02*
X112594114Y-61556395D01*
X112594114Y-61556395D02*
X111887008Y-62263502D01*
X111887008Y-62263502D02*
X112223725Y-62600219D01*
X113233878Y-62196158D02*
X112526771Y-62903265D01*
X112526771Y-62903265D02*
X112695130Y-63071624D01*
X112695130Y-63071624D02*
X112829817Y-63138967D01*
X112829817Y-63138967D02*
X112964504Y-63138967D01*
X112964504Y-63138967D02*
X113065519Y-63105296D01*
X113065519Y-63105296D02*
X113233878Y-63004280D01*
X113233878Y-63004280D02*
X113334893Y-62903265D01*
X113334893Y-62903265D02*
X113435908Y-62734906D01*
X113435908Y-62734906D02*
X113469580Y-62633891D01*
X113469580Y-62633891D02*
X113469580Y-62499204D01*
X113469580Y-62499204D02*
X113402237Y-62364517D01*
X113402237Y-62364517D02*
X113233878Y-62196158D01*
D11*
X150698256Y-110263537D02*
X150698256Y-110974737D01*
X150698256Y-110974737D02*
X150935323Y-110466737D01*
X150935323Y-110466737D02*
X151172389Y-110974737D01*
X151172389Y-110974737D02*
X151172389Y-110263537D01*
X151646523Y-110974737D02*
X151781989Y-110974737D01*
X151781989Y-110974737D02*
X151849723Y-110940870D01*
X151849723Y-110940870D02*
X151917456Y-110873137D01*
X151917456Y-110873137D02*
X151951323Y-110737670D01*
X151951323Y-110737670D02*
X151951323Y-110500604D01*
X151951323Y-110500604D02*
X151917456Y-110365137D01*
X151917456Y-110365137D02*
X151849723Y-110297404D01*
X151849723Y-110297404D02*
X151781989Y-110263537D01*
X151781989Y-110263537D02*
X151646523Y-110263537D01*
X151646523Y-110263537D02*
X151578789Y-110297404D01*
X151578789Y-110297404D02*
X151511056Y-110365137D01*
X151511056Y-110365137D02*
X151477189Y-110500604D01*
X151477189Y-110500604D02*
X151477189Y-110737670D01*
X151477189Y-110737670D02*
X151511056Y-110873137D01*
X151511056Y-110873137D02*
X151578789Y-110940870D01*
X151578789Y-110940870D02*
X151646523Y-110974737D01*
X152222256Y-110297404D02*
X152323856Y-110263537D01*
X152323856Y-110263537D02*
X152493190Y-110263537D01*
X152493190Y-110263537D02*
X152560923Y-110297404D01*
X152560923Y-110297404D02*
X152594790Y-110331270D01*
X152594790Y-110331270D02*
X152628656Y-110399004D01*
X152628656Y-110399004D02*
X152628656Y-110466737D01*
X152628656Y-110466737D02*
X152594790Y-110534470D01*
X152594790Y-110534470D02*
X152560923Y-110568337D01*
X152560923Y-110568337D02*
X152493190Y-110602204D01*
X152493190Y-110602204D02*
X152357723Y-110636070D01*
X152357723Y-110636070D02*
X152289990Y-110669937D01*
X152289990Y-110669937D02*
X152256123Y-110703804D01*
X152256123Y-110703804D02*
X152222256Y-110771537D01*
X152222256Y-110771537D02*
X152222256Y-110839270D01*
X152222256Y-110839270D02*
X152256123Y-110907004D01*
X152256123Y-110907004D02*
X152289990Y-110940870D01*
X152289990Y-110940870D02*
X152357723Y-110974737D01*
X152357723Y-110974737D02*
X152527056Y-110974737D01*
X152527056Y-110974737D02*
X152628656Y-110940870D01*
X152933456Y-110263537D02*
X152933456Y-110974737D01*
D10*
X114352321Y-58723380D02*
X114487008Y-58790723D01*
X114487008Y-58790723D02*
X114554351Y-58790723D01*
X114554351Y-58790723D02*
X114655366Y-58757052D01*
X114655366Y-58757052D02*
X114756382Y-58656036D01*
X114756382Y-58656036D02*
X114790053Y-58555021D01*
X114790053Y-58555021D02*
X114790053Y-58487678D01*
X114790053Y-58487678D02*
X114756382Y-58386662D01*
X114756382Y-58386662D02*
X114487008Y-58117288D01*
X114487008Y-58117288D02*
X113779901Y-58824395D01*
X113779901Y-58824395D02*
X114015603Y-59060097D01*
X114015603Y-59060097D02*
X114116618Y-59093769D01*
X114116618Y-59093769D02*
X114183962Y-59093769D01*
X114183962Y-59093769D02*
X114284977Y-59060097D01*
X114284977Y-59060097D02*
X114352321Y-58992754D01*
X114352321Y-58992754D02*
X114385992Y-58891739D01*
X114385992Y-58891739D02*
X114385992Y-58824395D01*
X114385992Y-58824395D02*
X114352321Y-58723380D01*
X114352321Y-58723380D02*
X114116618Y-58487678D01*
X115530832Y-59161113D02*
X115194114Y-58824395D01*
X115194114Y-58824395D02*
X114487008Y-59531502D01*
X115059428Y-60103922D02*
X115631847Y-59531502D01*
X115631847Y-59531502D02*
X115732863Y-59497830D01*
X115732863Y-59497830D02*
X115800206Y-59497830D01*
X115800206Y-59497830D02*
X115901221Y-59531502D01*
X115901221Y-59531502D02*
X116035908Y-59666189D01*
X116035908Y-59666189D02*
X116069580Y-59767204D01*
X116069580Y-59767204D02*
X116069580Y-59834548D01*
X116069580Y-59834548D02*
X116035908Y-59935563D01*
X116035908Y-59935563D02*
X115463489Y-60507983D01*
X116136924Y-60507983D02*
X116372626Y-60743685D01*
X116844030Y-60474311D02*
X116507313Y-60137593D01*
X116507313Y-60137593D02*
X115800206Y-60844700D01*
X115800206Y-60844700D02*
X116136924Y-61181418D01*
D11*
X148852523Y-114386270D02*
X148818656Y-114352404D01*
X148818656Y-114352404D02*
X148717056Y-114318537D01*
X148717056Y-114318537D02*
X148649323Y-114318537D01*
X148649323Y-114318537D02*
X148547723Y-114352404D01*
X148547723Y-114352404D02*
X148479990Y-114420137D01*
X148479990Y-114420137D02*
X148446123Y-114487870D01*
X148446123Y-114487870D02*
X148412256Y-114623337D01*
X148412256Y-114623337D02*
X148412256Y-114724937D01*
X148412256Y-114724937D02*
X148446123Y-114860404D01*
X148446123Y-114860404D02*
X148479990Y-114928137D01*
X148479990Y-114928137D02*
X148547723Y-114995870D01*
X148547723Y-114995870D02*
X148649323Y-115029737D01*
X148649323Y-115029737D02*
X148717056Y-115029737D01*
X148717056Y-115029737D02*
X148818656Y-114995870D01*
X148818656Y-114995870D02*
X148852523Y-114962004D01*
X149495990Y-114318537D02*
X149157323Y-114318537D01*
X149157323Y-114318537D02*
X149157323Y-115029737D01*
X149733056Y-114318537D02*
X149733056Y-115029737D01*
X150139456Y-114318537D02*
X149834656Y-114724937D01*
X150139456Y-115029737D02*
X149733056Y-114623337D01*
D10*
X155606650Y-82474780D02*
X155939983Y-81474780D01*
X155939983Y-81474780D02*
X156273316Y-82474780D01*
X157082840Y-81474780D02*
X156606650Y-81474780D01*
X156606650Y-81474780D02*
X156606650Y-82474780D01*
X157892364Y-82474780D02*
X157416174Y-82474780D01*
X157416174Y-82474780D02*
X157368555Y-81998590D01*
X157368555Y-81998590D02*
X157416174Y-82046209D01*
X157416174Y-82046209D02*
X157511412Y-82093828D01*
X157511412Y-82093828D02*
X157749507Y-82093828D01*
X157749507Y-82093828D02*
X157844745Y-82046209D01*
X157844745Y-82046209D02*
X157892364Y-81998590D01*
X157892364Y-81998590D02*
X157939983Y-81903352D01*
X157939983Y-81903352D02*
X157939983Y-81665257D01*
X157939983Y-81665257D02*
X157892364Y-81570019D01*
X157892364Y-81570019D02*
X157844745Y-81522400D01*
X157844745Y-81522400D02*
X157749507Y-81474780D01*
X157749507Y-81474780D02*
X157511412Y-81474780D01*
X157511412Y-81474780D02*
X157416174Y-81522400D01*
X157416174Y-81522400D02*
X157368555Y-81570019D01*
X158273317Y-82474780D02*
X158892364Y-82474780D01*
X158892364Y-82474780D02*
X158559031Y-82093828D01*
X158559031Y-82093828D02*
X158701888Y-82093828D01*
X158701888Y-82093828D02*
X158797126Y-82046209D01*
X158797126Y-82046209D02*
X158844745Y-81998590D01*
X158844745Y-81998590D02*
X158892364Y-81903352D01*
X158892364Y-81903352D02*
X158892364Y-81665257D01*
X158892364Y-81665257D02*
X158844745Y-81570019D01*
X158844745Y-81570019D02*
X158797126Y-81522400D01*
X158797126Y-81522400D02*
X158701888Y-81474780D01*
X158701888Y-81474780D02*
X158416174Y-81474780D01*
X158416174Y-81474780D02*
X158320936Y-81522400D01*
X158320936Y-81522400D02*
X158273317Y-81570019D01*
X159797126Y-81474780D02*
X159320936Y-81474780D01*
X159320936Y-81474780D02*
X159320936Y-82474780D01*
X160654269Y-81474780D02*
X160082841Y-81474780D01*
X160368555Y-81474780D02*
X160368555Y-82474780D01*
X160368555Y-82474780D02*
X160273317Y-82331923D01*
X160273317Y-82331923D02*
X160178079Y-82236685D01*
X160178079Y-82236685D02*
X160082841Y-82189066D01*
X160987603Y-82474780D02*
X161654269Y-81474780D01*
X161654269Y-82474780D02*
X160987603Y-81474780D01*
X162654270Y-82474780D02*
X163225698Y-82474780D01*
X162939984Y-81474780D02*
X162939984Y-82474780D01*
X163701889Y-81474780D02*
X163606651Y-81522400D01*
X163606651Y-81522400D02*
X163559032Y-81570019D01*
X163559032Y-81570019D02*
X163511413Y-81665257D01*
X163511413Y-81665257D02*
X163511413Y-81950971D01*
X163511413Y-81950971D02*
X163559032Y-82046209D01*
X163559032Y-82046209D02*
X163606651Y-82093828D01*
X163606651Y-82093828D02*
X163701889Y-82141447D01*
X163701889Y-82141447D02*
X163844746Y-82141447D01*
X163844746Y-82141447D02*
X163939984Y-82093828D01*
X163939984Y-82093828D02*
X163987603Y-82046209D01*
X163987603Y-82046209D02*
X164035222Y-81950971D01*
X164035222Y-81950971D02*
X164035222Y-81665257D01*
X164035222Y-81665257D02*
X163987603Y-81570019D01*
X163987603Y-81570019D02*
X163939984Y-81522400D01*
X163939984Y-81522400D02*
X163844746Y-81474780D01*
X163844746Y-81474780D02*
X163701889Y-81474780D01*
X164797127Y-81998590D02*
X164463794Y-81998590D01*
X164463794Y-81474780D02*
X164463794Y-82474780D01*
X164463794Y-82474780D02*
X164939984Y-82474780D01*
X136374173Y-106799780D02*
X136374173Y-107799780D01*
X136374173Y-107799780D02*
X136755125Y-107799780D01*
X136755125Y-107799780D02*
X136850363Y-107752161D01*
X136850363Y-107752161D02*
X136897982Y-107704542D01*
X136897982Y-107704542D02*
X136945601Y-107609304D01*
X136945601Y-107609304D02*
X136945601Y-107466447D01*
X136945601Y-107466447D02*
X136897982Y-107371209D01*
X136897982Y-107371209D02*
X136850363Y-107323590D01*
X136850363Y-107323590D02*
X136755125Y-107275971D01*
X136755125Y-107275971D02*
X136374173Y-107275971D01*
X137374173Y-106799780D02*
X137374173Y-107799780D01*
X137374173Y-107799780D02*
X137707506Y-107085495D01*
X137707506Y-107085495D02*
X138040839Y-107799780D01*
X138040839Y-107799780D02*
X138040839Y-106799780D01*
X138421792Y-107799780D02*
X138659887Y-106799780D01*
X138659887Y-106799780D02*
X138850363Y-107514066D01*
X138850363Y-107514066D02*
X139040839Y-106799780D01*
X139040839Y-106799780D02*
X139278935Y-107799780D01*
X139564649Y-107799780D02*
X140183696Y-107799780D01*
X140183696Y-107799780D02*
X139850363Y-107418828D01*
X139850363Y-107418828D02*
X139993220Y-107418828D01*
X139993220Y-107418828D02*
X140088458Y-107371209D01*
X140088458Y-107371209D02*
X140136077Y-107323590D01*
X140136077Y-107323590D02*
X140183696Y-107228352D01*
X140183696Y-107228352D02*
X140183696Y-106990257D01*
X140183696Y-106990257D02*
X140136077Y-106895019D01*
X140136077Y-106895019D02*
X140088458Y-106847400D01*
X140088458Y-106847400D02*
X139993220Y-106799780D01*
X139993220Y-106799780D02*
X139707506Y-106799780D01*
X139707506Y-106799780D02*
X139612268Y-106847400D01*
X139612268Y-106847400D02*
X139564649Y-106895019D01*
X140659887Y-106799780D02*
X140850363Y-106799780D01*
X140850363Y-106799780D02*
X140945601Y-106847400D01*
X140945601Y-106847400D02*
X140993220Y-106895019D01*
X140993220Y-106895019D02*
X141088458Y-107037876D01*
X141088458Y-107037876D02*
X141136077Y-107228352D01*
X141136077Y-107228352D02*
X141136077Y-107609304D01*
X141136077Y-107609304D02*
X141088458Y-107704542D01*
X141088458Y-107704542D02*
X141040839Y-107752161D01*
X141040839Y-107752161D02*
X140945601Y-107799780D01*
X140945601Y-107799780D02*
X140755125Y-107799780D01*
X140755125Y-107799780D02*
X140659887Y-107752161D01*
X140659887Y-107752161D02*
X140612268Y-107704542D01*
X140612268Y-107704542D02*
X140564649Y-107609304D01*
X140564649Y-107609304D02*
X140564649Y-107371209D01*
X140564649Y-107371209D02*
X140612268Y-107275971D01*
X140612268Y-107275971D02*
X140659887Y-107228352D01*
X140659887Y-107228352D02*
X140755125Y-107180733D01*
X140755125Y-107180733D02*
X140945601Y-107180733D01*
X140945601Y-107180733D02*
X141040839Y-107228352D01*
X141040839Y-107228352D02*
X141088458Y-107275971D01*
X141088458Y-107275971D02*
X141136077Y-107371209D01*
X141755125Y-107799780D02*
X141850363Y-107799780D01*
X141850363Y-107799780D02*
X141945601Y-107752161D01*
X141945601Y-107752161D02*
X141993220Y-107704542D01*
X141993220Y-107704542D02*
X142040839Y-107609304D01*
X142040839Y-107609304D02*
X142088458Y-107418828D01*
X142088458Y-107418828D02*
X142088458Y-107180733D01*
X142088458Y-107180733D02*
X142040839Y-106990257D01*
X142040839Y-106990257D02*
X141993220Y-106895019D01*
X141993220Y-106895019D02*
X141945601Y-106847400D01*
X141945601Y-106847400D02*
X141850363Y-106799780D01*
X141850363Y-106799780D02*
X141755125Y-106799780D01*
X141755125Y-106799780D02*
X141659887Y-106847400D01*
X141659887Y-106847400D02*
X141612268Y-106895019D01*
X141612268Y-106895019D02*
X141564649Y-106990257D01*
X141564649Y-106990257D02*
X141517030Y-107180733D01*
X141517030Y-107180733D02*
X141517030Y-107418828D01*
X141517030Y-107418828D02*
X141564649Y-107609304D01*
X141564649Y-107609304D02*
X141612268Y-107704542D01*
X141612268Y-107704542D02*
X141659887Y-107752161D01*
X141659887Y-107752161D02*
X141755125Y-107799780D01*
X143040839Y-106799780D02*
X142469411Y-106799780D01*
X142755125Y-106799780D02*
X142755125Y-107799780D01*
X142755125Y-107799780D02*
X142659887Y-107656923D01*
X142659887Y-107656923D02*
X142564649Y-107561685D01*
X142564649Y-107561685D02*
X142469411Y-107514066D01*
X144421792Y-107799780D02*
X144612268Y-107799780D01*
X144612268Y-107799780D02*
X144707506Y-107752161D01*
X144707506Y-107752161D02*
X144802744Y-107656923D01*
X144802744Y-107656923D02*
X144850363Y-107466447D01*
X144850363Y-107466447D02*
X144850363Y-107133114D01*
X144850363Y-107133114D02*
X144802744Y-106942638D01*
X144802744Y-106942638D02*
X144707506Y-106847400D01*
X144707506Y-106847400D02*
X144612268Y-106799780D01*
X144612268Y-106799780D02*
X144421792Y-106799780D01*
X144421792Y-106799780D02*
X144326554Y-106847400D01*
X144326554Y-106847400D02*
X144231316Y-106942638D01*
X144231316Y-106942638D02*
X144183697Y-107133114D01*
X144183697Y-107133114D02*
X144183697Y-107466447D01*
X144183697Y-107466447D02*
X144231316Y-107656923D01*
X144231316Y-107656923D02*
X144326554Y-107752161D01*
X144326554Y-107752161D02*
X144421792Y-107799780D01*
X145278935Y-107466447D02*
X145278935Y-106466447D01*
X145278935Y-107418828D02*
X145374173Y-107466447D01*
X145374173Y-107466447D02*
X145564649Y-107466447D01*
X145564649Y-107466447D02*
X145659887Y-107418828D01*
X145659887Y-107418828D02*
X145707506Y-107371209D01*
X145707506Y-107371209D02*
X145755125Y-107275971D01*
X145755125Y-107275971D02*
X145755125Y-106990257D01*
X145755125Y-106990257D02*
X145707506Y-106895019D01*
X145707506Y-106895019D02*
X145659887Y-106847400D01*
X145659887Y-106847400D02*
X145564649Y-106799780D01*
X145564649Y-106799780D02*
X145374173Y-106799780D01*
X145374173Y-106799780D02*
X145278935Y-106847400D01*
X146040840Y-107466447D02*
X146421792Y-107466447D01*
X146183697Y-107799780D02*
X146183697Y-106942638D01*
X146183697Y-106942638D02*
X146231316Y-106847400D01*
X146231316Y-106847400D02*
X146326554Y-106799780D01*
X146326554Y-106799780D02*
X146421792Y-106799780D01*
X146755126Y-106799780D02*
X146755126Y-107466447D01*
X146755126Y-107799780D02*
X146707507Y-107752161D01*
X146707507Y-107752161D02*
X146755126Y-107704542D01*
X146755126Y-107704542D02*
X146802745Y-107752161D01*
X146802745Y-107752161D02*
X146755126Y-107799780D01*
X146755126Y-107799780D02*
X146755126Y-107704542D01*
X147659887Y-106847400D02*
X147564649Y-106799780D01*
X147564649Y-106799780D02*
X147374173Y-106799780D01*
X147374173Y-106799780D02*
X147278935Y-106847400D01*
X147278935Y-106847400D02*
X147231316Y-106895019D01*
X147231316Y-106895019D02*
X147183697Y-106990257D01*
X147183697Y-106990257D02*
X147183697Y-107275971D01*
X147183697Y-107275971D02*
X147231316Y-107371209D01*
X147231316Y-107371209D02*
X147278935Y-107418828D01*
X147278935Y-107418828D02*
X147374173Y-107466447D01*
X147374173Y-107466447D02*
X147564649Y-107466447D01*
X147564649Y-107466447D02*
X147659887Y-107418828D01*
X148517030Y-106799780D02*
X148517030Y-107323590D01*
X148517030Y-107323590D02*
X148469411Y-107418828D01*
X148469411Y-107418828D02*
X148374173Y-107466447D01*
X148374173Y-107466447D02*
X148183697Y-107466447D01*
X148183697Y-107466447D02*
X148088459Y-107418828D01*
X148517030Y-106847400D02*
X148421792Y-106799780D01*
X148421792Y-106799780D02*
X148183697Y-106799780D01*
X148183697Y-106799780D02*
X148088459Y-106847400D01*
X148088459Y-106847400D02*
X148040840Y-106942638D01*
X148040840Y-106942638D02*
X148040840Y-107037876D01*
X148040840Y-107037876D02*
X148088459Y-107133114D01*
X148088459Y-107133114D02*
X148183697Y-107180733D01*
X148183697Y-107180733D02*
X148421792Y-107180733D01*
X148421792Y-107180733D02*
X148517030Y-107228352D01*
X149136078Y-106799780D02*
X149040840Y-106847400D01*
X149040840Y-106847400D02*
X148993221Y-106942638D01*
X148993221Y-106942638D02*
X148993221Y-107799780D01*
X150612269Y-107323590D02*
X150278936Y-107323590D01*
X150278936Y-106799780D02*
X150278936Y-107799780D01*
X150278936Y-107799780D02*
X150755126Y-107799780D01*
X151278936Y-106799780D02*
X151183698Y-106847400D01*
X151183698Y-106847400D02*
X151136079Y-106942638D01*
X151136079Y-106942638D02*
X151136079Y-107799780D01*
X151802746Y-106799780D02*
X151707508Y-106847400D01*
X151707508Y-106847400D02*
X151659889Y-106895019D01*
X151659889Y-106895019D02*
X151612270Y-106990257D01*
X151612270Y-106990257D02*
X151612270Y-107275971D01*
X151612270Y-107275971D02*
X151659889Y-107371209D01*
X151659889Y-107371209D02*
X151707508Y-107418828D01*
X151707508Y-107418828D02*
X151802746Y-107466447D01*
X151802746Y-107466447D02*
X151945603Y-107466447D01*
X151945603Y-107466447D02*
X152040841Y-107418828D01*
X152040841Y-107418828D02*
X152088460Y-107371209D01*
X152088460Y-107371209D02*
X152136079Y-107275971D01*
X152136079Y-107275971D02*
X152136079Y-106990257D01*
X152136079Y-106990257D02*
X152088460Y-106895019D01*
X152088460Y-106895019D02*
X152040841Y-106847400D01*
X152040841Y-106847400D02*
X151945603Y-106799780D01*
X151945603Y-106799780D02*
X151802746Y-106799780D01*
X152469413Y-107466447D02*
X152659889Y-106799780D01*
X152659889Y-106799780D02*
X152850365Y-107275971D01*
X152850365Y-107275971D02*
X153040841Y-106799780D01*
X153040841Y-106799780D02*
X153231317Y-107466447D01*
X154326556Y-106847400D02*
X154469413Y-106799780D01*
X154469413Y-106799780D02*
X154707508Y-106799780D01*
X154707508Y-106799780D02*
X154802746Y-106847400D01*
X154802746Y-106847400D02*
X154850365Y-106895019D01*
X154850365Y-106895019D02*
X154897984Y-106990257D01*
X154897984Y-106990257D02*
X154897984Y-107085495D01*
X154897984Y-107085495D02*
X154850365Y-107180733D01*
X154850365Y-107180733D02*
X154802746Y-107228352D01*
X154802746Y-107228352D02*
X154707508Y-107275971D01*
X154707508Y-107275971D02*
X154517032Y-107323590D01*
X154517032Y-107323590D02*
X154421794Y-107371209D01*
X154421794Y-107371209D02*
X154374175Y-107418828D01*
X154374175Y-107418828D02*
X154326556Y-107514066D01*
X154326556Y-107514066D02*
X154326556Y-107609304D01*
X154326556Y-107609304D02*
X154374175Y-107704542D01*
X154374175Y-107704542D02*
X154421794Y-107752161D01*
X154421794Y-107752161D02*
X154517032Y-107799780D01*
X154517032Y-107799780D02*
X154755127Y-107799780D01*
X154755127Y-107799780D02*
X154897984Y-107752161D01*
X155707508Y-106847400D02*
X155612270Y-106799780D01*
X155612270Y-106799780D02*
X155421794Y-106799780D01*
X155421794Y-106799780D02*
X155326556Y-106847400D01*
X155326556Y-106847400D02*
X155278937Y-106942638D01*
X155278937Y-106942638D02*
X155278937Y-107323590D01*
X155278937Y-107323590D02*
X155326556Y-107418828D01*
X155326556Y-107418828D02*
X155421794Y-107466447D01*
X155421794Y-107466447D02*
X155612270Y-107466447D01*
X155612270Y-107466447D02*
X155707508Y-107418828D01*
X155707508Y-107418828D02*
X155755127Y-107323590D01*
X155755127Y-107323590D02*
X155755127Y-107228352D01*
X155755127Y-107228352D02*
X155278937Y-107133114D01*
X156183699Y-107466447D02*
X156183699Y-106799780D01*
X156183699Y-107371209D02*
X156231318Y-107418828D01*
X156231318Y-107418828D02*
X156326556Y-107466447D01*
X156326556Y-107466447D02*
X156469413Y-107466447D01*
X156469413Y-107466447D02*
X156564651Y-107418828D01*
X156564651Y-107418828D02*
X156612270Y-107323590D01*
X156612270Y-107323590D02*
X156612270Y-106799780D01*
X157040842Y-106847400D02*
X157136080Y-106799780D01*
X157136080Y-106799780D02*
X157326556Y-106799780D01*
X157326556Y-106799780D02*
X157421794Y-106847400D01*
X157421794Y-106847400D02*
X157469413Y-106942638D01*
X157469413Y-106942638D02*
X157469413Y-106990257D01*
X157469413Y-106990257D02*
X157421794Y-107085495D01*
X157421794Y-107085495D02*
X157326556Y-107133114D01*
X157326556Y-107133114D02*
X157183699Y-107133114D01*
X157183699Y-107133114D02*
X157088461Y-107180733D01*
X157088461Y-107180733D02*
X157040842Y-107275971D01*
X157040842Y-107275971D02*
X157040842Y-107323590D01*
X157040842Y-107323590D02*
X157088461Y-107418828D01*
X157088461Y-107418828D02*
X157183699Y-107466447D01*
X157183699Y-107466447D02*
X157326556Y-107466447D01*
X157326556Y-107466447D02*
X157421794Y-107418828D01*
X158040842Y-106799780D02*
X157945604Y-106847400D01*
X157945604Y-106847400D02*
X157897985Y-106895019D01*
X157897985Y-106895019D02*
X157850366Y-106990257D01*
X157850366Y-106990257D02*
X157850366Y-107275971D01*
X157850366Y-107275971D02*
X157897985Y-107371209D01*
X157897985Y-107371209D02*
X157945604Y-107418828D01*
X157945604Y-107418828D02*
X158040842Y-107466447D01*
X158040842Y-107466447D02*
X158183699Y-107466447D01*
X158183699Y-107466447D02*
X158278937Y-107418828D01*
X158278937Y-107418828D02*
X158326556Y-107371209D01*
X158326556Y-107371209D02*
X158374175Y-107275971D01*
X158374175Y-107275971D02*
X158374175Y-106990257D01*
X158374175Y-106990257D02*
X158326556Y-106895019D01*
X158326556Y-106895019D02*
X158278937Y-106847400D01*
X158278937Y-106847400D02*
X158183699Y-106799780D01*
X158183699Y-106799780D02*
X158040842Y-106799780D01*
X158802747Y-106799780D02*
X158802747Y-107466447D01*
X158802747Y-107275971D02*
X158850366Y-107371209D01*
X158850366Y-107371209D02*
X158897985Y-107418828D01*
X158897985Y-107418828D02*
X158993223Y-107466447D01*
X158993223Y-107466447D02*
X159088461Y-107466447D01*
D11*
X135781888Y-73561404D02*
X135883488Y-73527537D01*
X135883488Y-73527537D02*
X136052822Y-73527537D01*
X136052822Y-73527537D02*
X136120555Y-73561404D01*
X136120555Y-73561404D02*
X136154422Y-73595270D01*
X136154422Y-73595270D02*
X136188288Y-73663004D01*
X136188288Y-73663004D02*
X136188288Y-73730737D01*
X136188288Y-73730737D02*
X136154422Y-73798470D01*
X136154422Y-73798470D02*
X136120555Y-73832337D01*
X136120555Y-73832337D02*
X136052822Y-73866204D01*
X136052822Y-73866204D02*
X135917355Y-73900070D01*
X135917355Y-73900070D02*
X135849622Y-73933937D01*
X135849622Y-73933937D02*
X135815755Y-73967804D01*
X135815755Y-73967804D02*
X135781888Y-74035537D01*
X135781888Y-74035537D02*
X135781888Y-74103270D01*
X135781888Y-74103270D02*
X135815755Y-74171004D01*
X135815755Y-74171004D02*
X135849622Y-74204870D01*
X135849622Y-74204870D02*
X135917355Y-74238737D01*
X135917355Y-74238737D02*
X136086688Y-74238737D01*
X136086688Y-74238737D02*
X136188288Y-74204870D01*
X136493088Y-73527537D02*
X136493088Y-74238737D01*
X136493088Y-74238737D02*
X136662421Y-74238737D01*
X136662421Y-74238737D02*
X136764021Y-74204870D01*
X136764021Y-74204870D02*
X136831755Y-74137137D01*
X136831755Y-74137137D02*
X136865621Y-74069404D01*
X136865621Y-74069404D02*
X136899488Y-73933937D01*
X136899488Y-73933937D02*
X136899488Y-73832337D01*
X136899488Y-73832337D02*
X136865621Y-73696870D01*
X136865621Y-73696870D02*
X136831755Y-73629137D01*
X136831755Y-73629137D02*
X136764021Y-73561404D01*
X136764021Y-73561404D02*
X136662421Y-73527537D01*
X136662421Y-73527537D02*
X136493088Y-73527537D01*
X137170421Y-73730737D02*
X137509088Y-73730737D01*
X137102688Y-73527537D02*
X137339755Y-74238737D01*
X137339755Y-74238737D02*
X137576821Y-73527537D01*
X137746155Y-73527537D02*
X138118688Y-74001670D01*
X137746155Y-74001670D02*
X138118688Y-73527537D01*
X153813989Y-114995870D02*
X153746256Y-115029737D01*
X153746256Y-115029737D02*
X153644656Y-115029737D01*
X153644656Y-115029737D02*
X153543056Y-114995870D01*
X153543056Y-114995870D02*
X153475323Y-114928137D01*
X153475323Y-114928137D02*
X153441456Y-114860404D01*
X153441456Y-114860404D02*
X153407589Y-114724937D01*
X153407589Y-114724937D02*
X153407589Y-114623337D01*
X153407589Y-114623337D02*
X153441456Y-114487870D01*
X153441456Y-114487870D02*
X153475323Y-114420137D01*
X153475323Y-114420137D02*
X153543056Y-114352404D01*
X153543056Y-114352404D02*
X153644656Y-114318537D01*
X153644656Y-114318537D02*
X153712389Y-114318537D01*
X153712389Y-114318537D02*
X153813989Y-114352404D01*
X153813989Y-114352404D02*
X153847856Y-114386270D01*
X153847856Y-114386270D02*
X153847856Y-114623337D01*
X153847856Y-114623337D02*
X153712389Y-114623337D01*
X154152656Y-114318537D02*
X154152656Y-115029737D01*
X154152656Y-115029737D02*
X154559056Y-114318537D01*
X154559056Y-114318537D02*
X154559056Y-115029737D01*
X154897723Y-114318537D02*
X154897723Y-115029737D01*
X154897723Y-115029737D02*
X155067056Y-115029737D01*
X155067056Y-115029737D02*
X155168656Y-114995870D01*
X155168656Y-114995870D02*
X155236390Y-114928137D01*
X155236390Y-114928137D02*
X155270256Y-114860404D01*
X155270256Y-114860404D02*
X155304123Y-114724937D01*
X155304123Y-114724937D02*
X155304123Y-114623337D01*
X155304123Y-114623337D02*
X155270256Y-114487870D01*
X155270256Y-114487870D02*
X155236390Y-114420137D01*
X155236390Y-114420137D02*
X155168656Y-114352404D01*
X155168656Y-114352404D02*
X155067056Y-114318537D01*
X155067056Y-114318537D02*
X154897723Y-114318537D01*
D10*
X114374552Y-130995942D02*
X113835804Y-130120476D01*
X113835804Y-130120476D02*
X114475567Y-130490865D01*
X114475567Y-130490865D02*
X114105178Y-129851102D01*
X114105178Y-129851102D02*
X114980643Y-130389850D01*
X114542910Y-129413369D02*
X115250017Y-130120476D01*
X114913299Y-129783759D02*
X115317360Y-129379698D01*
X114946971Y-129009308D02*
X115654078Y-129716415D01*
X115283689Y-128672591D02*
X115990795Y-129379698D01*
X116226497Y-129143996D02*
X116630558Y-128739935D01*
X115721421Y-128234858D02*
X116428528Y-128941965D01*
X116529543Y-128167515D02*
X116765246Y-127931813D01*
X116495872Y-127460408D02*
X116159154Y-127797126D01*
X116159154Y-127797126D02*
X116866261Y-128504232D01*
X116866261Y-128504232D02*
X117202978Y-128167515D01*
D11*
X131311489Y-74204870D02*
X131243756Y-74238737D01*
X131243756Y-74238737D02*
X131142156Y-74238737D01*
X131142156Y-74238737D02*
X131040556Y-74204870D01*
X131040556Y-74204870D02*
X130972823Y-74137137D01*
X130972823Y-74137137D02*
X130938956Y-74069404D01*
X130938956Y-74069404D02*
X130905089Y-73933937D01*
X130905089Y-73933937D02*
X130905089Y-73832337D01*
X130905089Y-73832337D02*
X130938956Y-73696870D01*
X130938956Y-73696870D02*
X130972823Y-73629137D01*
X130972823Y-73629137D02*
X131040556Y-73561404D01*
X131040556Y-73561404D02*
X131142156Y-73527537D01*
X131142156Y-73527537D02*
X131209889Y-73527537D01*
X131209889Y-73527537D02*
X131311489Y-73561404D01*
X131311489Y-73561404D02*
X131345356Y-73595270D01*
X131345356Y-73595270D02*
X131345356Y-73832337D01*
X131345356Y-73832337D02*
X131209889Y-73832337D01*
X131650156Y-73527537D02*
X131650156Y-74238737D01*
X131650156Y-74238737D02*
X132056556Y-73527537D01*
X132056556Y-73527537D02*
X132056556Y-74238737D01*
X132395223Y-73527537D02*
X132395223Y-74238737D01*
X132395223Y-74238737D02*
X132564556Y-74238737D01*
X132564556Y-74238737D02*
X132666156Y-74204870D01*
X132666156Y-74204870D02*
X132733890Y-74137137D01*
X132733890Y-74137137D02*
X132767756Y-74069404D01*
X132767756Y-74069404D02*
X132801623Y-73933937D01*
X132801623Y-73933937D02*
X132801623Y-73832337D01*
X132801623Y-73832337D02*
X132767756Y-73696870D01*
X132767756Y-73696870D02*
X132733890Y-73629137D01*
X132733890Y-73629137D02*
X132666156Y-73561404D01*
X132666156Y-73561404D02*
X132564556Y-73527537D01*
X132564556Y-73527537D02*
X132395223Y-73527537D01*
X138235322Y-114318537D02*
X138235322Y-115029737D01*
X138235322Y-115029737D02*
X138472389Y-114521737D01*
X138472389Y-114521737D02*
X138709455Y-115029737D01*
X138709455Y-115029737D02*
X138709455Y-114318537D01*
X139183589Y-115029737D02*
X139319055Y-115029737D01*
X139319055Y-115029737D02*
X139386789Y-114995870D01*
X139386789Y-114995870D02*
X139454522Y-114928137D01*
X139454522Y-114928137D02*
X139488389Y-114792670D01*
X139488389Y-114792670D02*
X139488389Y-114555604D01*
X139488389Y-114555604D02*
X139454522Y-114420137D01*
X139454522Y-114420137D02*
X139386789Y-114352404D01*
X139386789Y-114352404D02*
X139319055Y-114318537D01*
X139319055Y-114318537D02*
X139183589Y-114318537D01*
X139183589Y-114318537D02*
X139115855Y-114352404D01*
X139115855Y-114352404D02*
X139048122Y-114420137D01*
X139048122Y-114420137D02*
X139014255Y-114555604D01*
X139014255Y-114555604D02*
X139014255Y-114792670D01*
X139014255Y-114792670D02*
X139048122Y-114928137D01*
X139048122Y-114928137D02*
X139115855Y-114995870D01*
X139115855Y-114995870D02*
X139183589Y-115029737D01*
X139691589Y-115029737D02*
X140097989Y-115029737D01*
X139894789Y-114318537D02*
X139894789Y-115029737D01*
X155964336Y-110974737D02*
X156404602Y-110974737D01*
X156404602Y-110974737D02*
X156167536Y-110703804D01*
X156167536Y-110703804D02*
X156269136Y-110703804D01*
X156269136Y-110703804D02*
X156336869Y-110669937D01*
X156336869Y-110669937D02*
X156370736Y-110636070D01*
X156370736Y-110636070D02*
X156404602Y-110568337D01*
X156404602Y-110568337D02*
X156404602Y-110399004D01*
X156404602Y-110399004D02*
X156370736Y-110331270D01*
X156370736Y-110331270D02*
X156336869Y-110297404D01*
X156336869Y-110297404D02*
X156269136Y-110263537D01*
X156269136Y-110263537D02*
X156065936Y-110263537D01*
X156065936Y-110263537D02*
X155998202Y-110297404D01*
X155998202Y-110297404D02*
X155964336Y-110331270D01*
X156607802Y-110974737D02*
X156844869Y-110263537D01*
X156844869Y-110263537D02*
X157081935Y-110974737D01*
X157251269Y-110974737D02*
X157691535Y-110974737D01*
X157691535Y-110974737D02*
X157454469Y-110703804D01*
X157454469Y-110703804D02*
X157556069Y-110703804D01*
X157556069Y-110703804D02*
X157623802Y-110669937D01*
X157623802Y-110669937D02*
X157657669Y-110636070D01*
X157657669Y-110636070D02*
X157691535Y-110568337D01*
X157691535Y-110568337D02*
X157691535Y-110399004D01*
X157691535Y-110399004D02*
X157657669Y-110331270D01*
X157657669Y-110331270D02*
X157623802Y-110297404D01*
X157623802Y-110297404D02*
X157556069Y-110263537D01*
X157556069Y-110263537D02*
X157352869Y-110263537D01*
X157352869Y-110263537D02*
X157285135Y-110297404D01*
X157285135Y-110297404D02*
X157251269Y-110331270D01*
X141266389Y-110263537D02*
X141029322Y-110602204D01*
X140859989Y-110263537D02*
X140859989Y-110974737D01*
X140859989Y-110974737D02*
X141130922Y-110974737D01*
X141130922Y-110974737D02*
X141198656Y-110940870D01*
X141198656Y-110940870D02*
X141232522Y-110907004D01*
X141232522Y-110907004D02*
X141266389Y-110839270D01*
X141266389Y-110839270D02*
X141266389Y-110737670D01*
X141266389Y-110737670D02*
X141232522Y-110669937D01*
X141232522Y-110669937D02*
X141198656Y-110636070D01*
X141198656Y-110636070D02*
X141130922Y-110602204D01*
X141130922Y-110602204D02*
X140859989Y-110602204D01*
X141537322Y-110297404D02*
X141638922Y-110263537D01*
X141638922Y-110263537D02*
X141808256Y-110263537D01*
X141808256Y-110263537D02*
X141875989Y-110297404D01*
X141875989Y-110297404D02*
X141909856Y-110331270D01*
X141909856Y-110331270D02*
X141943722Y-110399004D01*
X141943722Y-110399004D02*
X141943722Y-110466737D01*
X141943722Y-110466737D02*
X141909856Y-110534470D01*
X141909856Y-110534470D02*
X141875989Y-110568337D01*
X141875989Y-110568337D02*
X141808256Y-110602204D01*
X141808256Y-110602204D02*
X141672789Y-110636070D01*
X141672789Y-110636070D02*
X141605056Y-110669937D01*
X141605056Y-110669937D02*
X141571189Y-110703804D01*
X141571189Y-110703804D02*
X141537322Y-110771537D01*
X141537322Y-110771537D02*
X141537322Y-110839270D01*
X141537322Y-110839270D02*
X141571189Y-110907004D01*
X141571189Y-110907004D02*
X141605056Y-110940870D01*
X141605056Y-110940870D02*
X141672789Y-110974737D01*
X141672789Y-110974737D02*
X141842122Y-110974737D01*
X141842122Y-110974737D02*
X141943722Y-110940870D01*
X142146922Y-110974737D02*
X142553322Y-110974737D01*
X142350122Y-110263537D02*
X142350122Y-110974737D01*
X145618256Y-110263537D02*
X145618256Y-110974737D01*
X145618256Y-110974737D02*
X145855323Y-110466737D01*
X145855323Y-110466737D02*
X146092389Y-110974737D01*
X146092389Y-110974737D02*
X146092389Y-110263537D01*
X146431056Y-110263537D02*
X146431056Y-110974737D01*
X146735856Y-110297404D02*
X146837456Y-110263537D01*
X146837456Y-110263537D02*
X147006790Y-110263537D01*
X147006790Y-110263537D02*
X147074523Y-110297404D01*
X147074523Y-110297404D02*
X147108390Y-110331270D01*
X147108390Y-110331270D02*
X147142256Y-110399004D01*
X147142256Y-110399004D02*
X147142256Y-110466737D01*
X147142256Y-110466737D02*
X147108390Y-110534470D01*
X147108390Y-110534470D02*
X147074523Y-110568337D01*
X147074523Y-110568337D02*
X147006790Y-110602204D01*
X147006790Y-110602204D02*
X146871323Y-110636070D01*
X146871323Y-110636070D02*
X146803590Y-110669937D01*
X146803590Y-110669937D02*
X146769723Y-110703804D01*
X146769723Y-110703804D02*
X146735856Y-110771537D01*
X146735856Y-110771537D02*
X146735856Y-110839270D01*
X146735856Y-110839270D02*
X146769723Y-110907004D01*
X146769723Y-110907004D02*
X146803590Y-110940870D01*
X146803590Y-110940870D02*
X146871323Y-110974737D01*
X146871323Y-110974737D02*
X147040656Y-110974737D01*
X147040656Y-110974737D02*
X147142256Y-110940870D01*
X147582523Y-110974737D02*
X147717989Y-110974737D01*
X147717989Y-110974737D02*
X147785723Y-110940870D01*
X147785723Y-110940870D02*
X147853456Y-110873137D01*
X147853456Y-110873137D02*
X147887323Y-110737670D01*
X147887323Y-110737670D02*
X147887323Y-110500604D01*
X147887323Y-110500604D02*
X147853456Y-110365137D01*
X147853456Y-110365137D02*
X147785723Y-110297404D01*
X147785723Y-110297404D02*
X147717989Y-110263537D01*
X147717989Y-110263537D02*
X147582523Y-110263537D01*
X147582523Y-110263537D02*
X147514789Y-110297404D01*
X147514789Y-110297404D02*
X147447056Y-110365137D01*
X147447056Y-110365137D02*
X147413189Y-110500604D01*
X147413189Y-110500604D02*
X147413189Y-110737670D01*
X147413189Y-110737670D02*
X147447056Y-110873137D01*
X147447056Y-110873137D02*
X147514789Y-110940870D01*
X147514789Y-110940870D02*
X147582523Y-110974737D01*
D10*
X111120880Y-127212178D02*
X111188223Y-127077491D01*
X111188223Y-127077491D02*
X111188223Y-127010148D01*
X111188223Y-127010148D02*
X111154552Y-126909133D01*
X111154552Y-126909133D02*
X111053536Y-126808117D01*
X111053536Y-126808117D02*
X110952521Y-126774446D01*
X110952521Y-126774446D02*
X110885178Y-126774446D01*
X110885178Y-126774446D02*
X110784162Y-126808117D01*
X110784162Y-126808117D02*
X110514788Y-127077491D01*
X110514788Y-127077491D02*
X111221895Y-127784598D01*
X111221895Y-127784598D02*
X111457597Y-127548896D01*
X111457597Y-127548896D02*
X111491269Y-127447881D01*
X111491269Y-127447881D02*
X111491269Y-127380537D01*
X111491269Y-127380537D02*
X111457597Y-127279522D01*
X111457597Y-127279522D02*
X111390254Y-127212178D01*
X111390254Y-127212178D02*
X111289239Y-127178507D01*
X111289239Y-127178507D02*
X111221895Y-127178507D01*
X111221895Y-127178507D02*
X111120880Y-127212178D01*
X111120880Y-127212178D02*
X110885178Y-127447881D01*
X111558613Y-126033667D02*
X111221895Y-126370385D01*
X111221895Y-126370385D02*
X111929002Y-127077491D01*
X111962674Y-126033667D02*
X112299391Y-125696949D01*
X111693300Y-125898980D02*
X112636109Y-126370384D01*
X112636109Y-126370384D02*
X112164704Y-125427575D01*
X112871811Y-124855156D02*
X112804468Y-124855156D01*
X112804468Y-124855156D02*
X112669781Y-124922499D01*
X112669781Y-124922499D02*
X112602437Y-124989843D01*
X112602437Y-124989843D02*
X112535094Y-125124530D01*
X112535094Y-125124530D02*
X112535094Y-125259217D01*
X112535094Y-125259217D02*
X112568765Y-125360232D01*
X112568765Y-125360232D02*
X112669781Y-125528591D01*
X112669781Y-125528591D02*
X112770796Y-125629606D01*
X112770796Y-125629606D02*
X112939155Y-125730621D01*
X112939155Y-125730621D02*
X113040170Y-125764293D01*
X113040170Y-125764293D02*
X113174857Y-125764293D01*
X113174857Y-125764293D02*
X113309544Y-125696949D01*
X113309544Y-125696949D02*
X113376887Y-125629606D01*
X113376887Y-125629606D02*
X113444231Y-125494919D01*
X113444231Y-125494919D02*
X113444231Y-125427575D01*
X113107513Y-124484766D02*
X113814620Y-125191873D01*
X113511574Y-124080705D02*
X113612590Y-124787812D01*
X114218681Y-124787812D02*
X113410559Y-124787812D01*
X130860268Y-81489411D02*
X130860268Y-82439411D01*
X130860268Y-82439411D02*
X131176935Y-81760840D01*
X131176935Y-81760840D02*
X131493601Y-82439411D01*
X131493601Y-82439411D02*
X131493601Y-81489411D01*
X131900744Y-81534650D02*
X132036458Y-81489411D01*
X132036458Y-81489411D02*
X132262649Y-81489411D01*
X132262649Y-81489411D02*
X132353125Y-81534650D01*
X132353125Y-81534650D02*
X132398363Y-81579888D01*
X132398363Y-81579888D02*
X132443601Y-81670364D01*
X132443601Y-81670364D02*
X132443601Y-81760840D01*
X132443601Y-81760840D02*
X132398363Y-81851316D01*
X132398363Y-81851316D02*
X132353125Y-81896554D01*
X132353125Y-81896554D02*
X132262649Y-81941792D01*
X132262649Y-81941792D02*
X132081696Y-81987030D01*
X132081696Y-81987030D02*
X131991220Y-82032269D01*
X131991220Y-82032269D02*
X131945982Y-82077507D01*
X131945982Y-82077507D02*
X131900744Y-82167983D01*
X131900744Y-82167983D02*
X131900744Y-82258459D01*
X131900744Y-82258459D02*
X131945982Y-82348935D01*
X131945982Y-82348935D02*
X131991220Y-82394173D01*
X131991220Y-82394173D02*
X132081696Y-82439411D01*
X132081696Y-82439411D02*
X132307887Y-82439411D01*
X132307887Y-82439411D02*
X132443601Y-82394173D01*
X133303125Y-82439411D02*
X132850744Y-82439411D01*
X132850744Y-82439411D02*
X132805506Y-81987030D01*
X132805506Y-81987030D02*
X132850744Y-82032269D01*
X132850744Y-82032269D02*
X132941220Y-82077507D01*
X132941220Y-82077507D02*
X133167411Y-82077507D01*
X133167411Y-82077507D02*
X133257887Y-82032269D01*
X133257887Y-82032269D02*
X133303125Y-81987030D01*
X133303125Y-81987030D02*
X133348363Y-81896554D01*
X133348363Y-81896554D02*
X133348363Y-81670364D01*
X133348363Y-81670364D02*
X133303125Y-81579888D01*
X133303125Y-81579888D02*
X133257887Y-81534650D01*
X133257887Y-81534650D02*
X133167411Y-81489411D01*
X133167411Y-81489411D02*
X132941220Y-81489411D01*
X132941220Y-81489411D02*
X132850744Y-81534650D01*
X132850744Y-81534650D02*
X132805506Y-81579888D01*
X134162649Y-82439411D02*
X133981696Y-82439411D01*
X133981696Y-82439411D02*
X133891220Y-82394173D01*
X133891220Y-82394173D02*
X133845982Y-82348935D01*
X133845982Y-82348935D02*
X133755506Y-82213221D01*
X133755506Y-82213221D02*
X133710268Y-82032269D01*
X133710268Y-82032269D02*
X133710268Y-81670364D01*
X133710268Y-81670364D02*
X133755506Y-81579888D01*
X133755506Y-81579888D02*
X133800744Y-81534650D01*
X133800744Y-81534650D02*
X133891220Y-81489411D01*
X133891220Y-81489411D02*
X134072173Y-81489411D01*
X134072173Y-81489411D02*
X134162649Y-81534650D01*
X134162649Y-81534650D02*
X134207887Y-81579888D01*
X134207887Y-81579888D02*
X134253125Y-81670364D01*
X134253125Y-81670364D02*
X134253125Y-81896554D01*
X134253125Y-81896554D02*
X134207887Y-81987030D01*
X134207887Y-81987030D02*
X134162649Y-82032269D01*
X134162649Y-82032269D02*
X134072173Y-82077507D01*
X134072173Y-82077507D02*
X133891220Y-82077507D01*
X133891220Y-82077507D02*
X133800744Y-82032269D01*
X133800744Y-82032269D02*
X133755506Y-81987030D01*
X133755506Y-81987030D02*
X133710268Y-81896554D01*
X135157887Y-81489411D02*
X134615030Y-81489411D01*
X134886458Y-81489411D02*
X134886458Y-82439411D01*
X134886458Y-82439411D02*
X134795982Y-82303697D01*
X134795982Y-82303697D02*
X134705506Y-82213221D01*
X134705506Y-82213221D02*
X134615030Y-82167983D01*
X136062649Y-81489411D02*
X135519792Y-81489411D01*
X135791220Y-81489411D02*
X135791220Y-82439411D01*
X135791220Y-82439411D02*
X135700744Y-82303697D01*
X135700744Y-82303697D02*
X135610268Y-82213221D01*
X135610268Y-82213221D02*
X135519792Y-82167983D01*
D11*
X133258822Y-77478517D02*
X133360422Y-77444650D01*
X133360422Y-77444650D02*
X133529756Y-77444650D01*
X133529756Y-77444650D02*
X133597489Y-77478517D01*
X133597489Y-77478517D02*
X133631356Y-77512383D01*
X133631356Y-77512383D02*
X133665222Y-77580117D01*
X133665222Y-77580117D02*
X133665222Y-77647850D01*
X133665222Y-77647850D02*
X133631356Y-77715583D01*
X133631356Y-77715583D02*
X133597489Y-77749450D01*
X133597489Y-77749450D02*
X133529756Y-77783317D01*
X133529756Y-77783317D02*
X133394289Y-77817183D01*
X133394289Y-77817183D02*
X133326556Y-77851050D01*
X133326556Y-77851050D02*
X133292689Y-77884917D01*
X133292689Y-77884917D02*
X133258822Y-77952650D01*
X133258822Y-77952650D02*
X133258822Y-78020383D01*
X133258822Y-78020383D02*
X133292689Y-78088117D01*
X133292689Y-78088117D02*
X133326556Y-78121983D01*
X133326556Y-78121983D02*
X133394289Y-78155850D01*
X133394289Y-78155850D02*
X133563622Y-78155850D01*
X133563622Y-78155850D02*
X133665222Y-78121983D01*
X134376422Y-77512383D02*
X134342555Y-77478517D01*
X134342555Y-77478517D02*
X134240955Y-77444650D01*
X134240955Y-77444650D02*
X134173222Y-77444650D01*
X134173222Y-77444650D02*
X134071622Y-77478517D01*
X134071622Y-77478517D02*
X134003889Y-77546250D01*
X134003889Y-77546250D02*
X133970022Y-77613983D01*
X133970022Y-77613983D02*
X133936155Y-77749450D01*
X133936155Y-77749450D02*
X133936155Y-77851050D01*
X133936155Y-77851050D02*
X133970022Y-77986517D01*
X133970022Y-77986517D02*
X134003889Y-78054250D01*
X134003889Y-78054250D02*
X134071622Y-78121983D01*
X134071622Y-78121983D02*
X134173222Y-78155850D01*
X134173222Y-78155850D02*
X134240955Y-78155850D01*
X134240955Y-78155850D02*
X134342555Y-78121983D01*
X134342555Y-78121983D02*
X134376422Y-78088117D01*
X135019889Y-77444650D02*
X134681222Y-77444650D01*
X134681222Y-77444650D02*
X134681222Y-78155850D01*
X135189222Y-77444650D02*
X135561755Y-77918783D01*
X135189222Y-77918783D02*
X135561755Y-77444650D01*
X128431210Y-78155850D02*
X128871476Y-78155850D01*
X128871476Y-78155850D02*
X128634410Y-77884917D01*
X128634410Y-77884917D02*
X128736010Y-77884917D01*
X128736010Y-77884917D02*
X128803743Y-77851050D01*
X128803743Y-77851050D02*
X128837610Y-77817183D01*
X128837610Y-77817183D02*
X128871476Y-77749450D01*
X128871476Y-77749450D02*
X128871476Y-77580117D01*
X128871476Y-77580117D02*
X128837610Y-77512383D01*
X128837610Y-77512383D02*
X128803743Y-77478517D01*
X128803743Y-77478517D02*
X128736010Y-77444650D01*
X128736010Y-77444650D02*
X128532810Y-77444650D01*
X128532810Y-77444650D02*
X128465076Y-77478517D01*
X128465076Y-77478517D02*
X128431210Y-77512383D01*
X129074676Y-78155850D02*
X129311743Y-77444650D01*
X129311743Y-77444650D02*
X129548809Y-78155850D01*
X129718143Y-78155850D02*
X130158409Y-78155850D01*
X130158409Y-78155850D02*
X129921343Y-77884917D01*
X129921343Y-77884917D02*
X130022943Y-77884917D01*
X130022943Y-77884917D02*
X130090676Y-77851050D01*
X130090676Y-77851050D02*
X130124543Y-77817183D01*
X130124543Y-77817183D02*
X130158409Y-77749450D01*
X130158409Y-77749450D02*
X130158409Y-77580117D01*
X130158409Y-77580117D02*
X130124543Y-77512383D01*
X130124543Y-77512383D02*
X130090676Y-77478517D01*
X130090676Y-77478517D02*
X130022943Y-77444650D01*
X130022943Y-77444650D02*
X129819743Y-77444650D01*
X129819743Y-77444650D02*
X129752009Y-77478517D01*
X129752009Y-77478517D02*
X129718143Y-77512383D01*
D10*
X181424880Y-62869178D02*
X181492223Y-62734491D01*
X181492223Y-62734491D02*
X181492223Y-62667148D01*
X181492223Y-62667148D02*
X181458552Y-62566133D01*
X181458552Y-62566133D02*
X181357536Y-62465117D01*
X181357536Y-62465117D02*
X181256521Y-62431446D01*
X181256521Y-62431446D02*
X181189178Y-62431446D01*
X181189178Y-62431446D02*
X181088162Y-62465117D01*
X181088162Y-62465117D02*
X180818788Y-62734491D01*
X180818788Y-62734491D02*
X181525895Y-63441598D01*
X181525895Y-63441598D02*
X181761597Y-63205896D01*
X181761597Y-63205896D02*
X181795269Y-63104881D01*
X181795269Y-63104881D02*
X181795269Y-63037537D01*
X181795269Y-63037537D02*
X181761597Y-62936522D01*
X181761597Y-62936522D02*
X181694254Y-62869178D01*
X181694254Y-62869178D02*
X181593239Y-62835507D01*
X181593239Y-62835507D02*
X181525895Y-62835507D01*
X181525895Y-62835507D02*
X181424880Y-62869178D01*
X181424880Y-62869178D02*
X181189178Y-63104881D01*
X181862613Y-61690667D02*
X181525895Y-62027385D01*
X181525895Y-62027385D02*
X182233002Y-62734491D01*
X182266674Y-61690667D02*
X182603391Y-61353949D01*
X181997300Y-61555980D02*
X182940109Y-62027384D01*
X182940109Y-62027384D02*
X182468704Y-61084575D01*
X183175811Y-60512156D02*
X183108468Y-60512156D01*
X183108468Y-60512156D02*
X182973781Y-60579499D01*
X182973781Y-60579499D02*
X182906437Y-60646843D01*
X182906437Y-60646843D02*
X182839094Y-60781530D01*
X182839094Y-60781530D02*
X182839094Y-60916217D01*
X182839094Y-60916217D02*
X182872765Y-61017232D01*
X182872765Y-61017232D02*
X182973781Y-61185591D01*
X182973781Y-61185591D02*
X183074796Y-61286606D01*
X183074796Y-61286606D02*
X183243155Y-61387621D01*
X183243155Y-61387621D02*
X183344170Y-61421293D01*
X183344170Y-61421293D02*
X183478857Y-61421293D01*
X183478857Y-61421293D02*
X183613544Y-61353949D01*
X183613544Y-61353949D02*
X183680887Y-61286606D01*
X183680887Y-61286606D02*
X183748231Y-61151919D01*
X183748231Y-61151919D02*
X183748231Y-61084575D01*
X183411513Y-60141766D02*
X184118620Y-60848873D01*
X183815574Y-59737705D02*
X183916590Y-60444812D01*
X184522681Y-60444812D02*
X183714559Y-60444812D01*
X178830552Y-60414942D02*
X178291804Y-59539476D01*
X178291804Y-59539476D02*
X178931567Y-59909865D01*
X178931567Y-59909865D02*
X178561178Y-59270102D01*
X178561178Y-59270102D02*
X179436643Y-59808850D01*
X178998910Y-58832369D02*
X179706017Y-59539476D01*
X179369299Y-59202759D02*
X179773360Y-58798698D01*
X179402971Y-58428308D02*
X180110078Y-59135415D01*
X179739689Y-58091591D02*
X180446795Y-58798698D01*
X180682497Y-58562996D02*
X181086558Y-58158935D01*
X180177421Y-57653858D02*
X180884528Y-58360965D01*
X180985543Y-57586515D02*
X181221246Y-57350813D01*
X180951872Y-56879408D02*
X180615154Y-57216126D01*
X180615154Y-57216126D02*
X181322261Y-57923232D01*
X181322261Y-57923232D02*
X181658978Y-57586515D01*
D12*
X164681082Y-77549630D02*
X164681082Y-78260830D01*
X165155216Y-78260830D02*
X165290682Y-78260830D01*
X165290682Y-78260830D02*
X165358416Y-78226963D01*
X165358416Y-78226963D02*
X165426149Y-78159230D01*
X165426149Y-78159230D02*
X165460016Y-78023763D01*
X165460016Y-78023763D02*
X165460016Y-77786697D01*
X165460016Y-77786697D02*
X165426149Y-77651230D01*
X165426149Y-77651230D02*
X165358416Y-77583497D01*
X165358416Y-77583497D02*
X165290682Y-77549630D01*
X165290682Y-77549630D02*
X165155216Y-77549630D01*
X165155216Y-77549630D02*
X165087482Y-77583497D01*
X165087482Y-77583497D02*
X165019749Y-77651230D01*
X165019749Y-77651230D02*
X164985882Y-77786697D01*
X164985882Y-77786697D02*
X164985882Y-78023763D01*
X164985882Y-78023763D02*
X165019749Y-78159230D01*
X165019749Y-78159230D02*
X165087482Y-78226963D01*
X165087482Y-78226963D02*
X165155216Y-78260830D01*
X166137349Y-77549630D02*
X165730949Y-77549630D01*
X165934149Y-77549630D02*
X165934149Y-78260830D01*
X165934149Y-78260830D02*
X165866416Y-78159230D01*
X165866416Y-78159230D02*
X165798683Y-78091497D01*
X165798683Y-78091497D02*
X165730949Y-78057630D01*
X159126949Y-77583497D02*
X159228549Y-77549630D01*
X159228549Y-77549630D02*
X159397883Y-77549630D01*
X159397883Y-77549630D02*
X159465616Y-77583497D01*
X159465616Y-77583497D02*
X159499483Y-77617363D01*
X159499483Y-77617363D02*
X159533349Y-77685097D01*
X159533349Y-77685097D02*
X159533349Y-77752830D01*
X159533349Y-77752830D02*
X159499483Y-77820563D01*
X159499483Y-77820563D02*
X159465616Y-77854430D01*
X159465616Y-77854430D02*
X159397883Y-77888297D01*
X159397883Y-77888297D02*
X159262416Y-77922163D01*
X159262416Y-77922163D02*
X159194683Y-77956030D01*
X159194683Y-77956030D02*
X159160816Y-77989897D01*
X159160816Y-77989897D02*
X159126949Y-78057630D01*
X159126949Y-78057630D02*
X159126949Y-78125363D01*
X159126949Y-78125363D02*
X159160816Y-78193097D01*
X159160816Y-78193097D02*
X159194683Y-78226963D01*
X159194683Y-78226963D02*
X159262416Y-78260830D01*
X159262416Y-78260830D02*
X159431749Y-78260830D01*
X159431749Y-78260830D02*
X159533349Y-78226963D01*
X160244549Y-77617363D02*
X160210682Y-77583497D01*
X160210682Y-77583497D02*
X160109082Y-77549630D01*
X160109082Y-77549630D02*
X160041349Y-77549630D01*
X160041349Y-77549630D02*
X159939749Y-77583497D01*
X159939749Y-77583497D02*
X159872016Y-77651230D01*
X159872016Y-77651230D02*
X159838149Y-77718963D01*
X159838149Y-77718963D02*
X159804282Y-77854430D01*
X159804282Y-77854430D02*
X159804282Y-77956030D01*
X159804282Y-77956030D02*
X159838149Y-78091497D01*
X159838149Y-78091497D02*
X159872016Y-78159230D01*
X159872016Y-78159230D02*
X159939749Y-78226963D01*
X159939749Y-78226963D02*
X160041349Y-78260830D01*
X160041349Y-78260830D02*
X160109082Y-78260830D01*
X160109082Y-78260830D02*
X160210682Y-78226963D01*
X160210682Y-78226963D02*
X160244549Y-78193097D01*
X160888016Y-77549630D02*
X160549349Y-77549630D01*
X160549349Y-77549630D02*
X160549349Y-78260830D01*
X161497615Y-77549630D02*
X161091215Y-77549630D01*
X161294415Y-77549630D02*
X161294415Y-78260830D01*
X161294415Y-78260830D02*
X161226682Y-78159230D01*
X161226682Y-78159230D02*
X161158949Y-78091497D01*
X161158949Y-78091497D02*
X161091215Y-78057630D01*
X154453348Y-78260830D02*
X154690415Y-77549630D01*
X154690415Y-77549630D02*
X154927481Y-78260830D01*
X155164548Y-77549630D02*
X155164548Y-78260830D01*
X155503215Y-77549630D02*
X155503215Y-78260830D01*
X155503215Y-78260830D02*
X155909615Y-77549630D01*
X155909615Y-77549630D02*
X155909615Y-78260830D01*
X157230415Y-74309850D02*
X157162682Y-74343717D01*
X157162682Y-74343717D02*
X157061082Y-74343717D01*
X157061082Y-74343717D02*
X156959482Y-74309850D01*
X156959482Y-74309850D02*
X156891749Y-74242117D01*
X156891749Y-74242117D02*
X156857882Y-74174384D01*
X156857882Y-74174384D02*
X156824015Y-74038917D01*
X156824015Y-74038917D02*
X156824015Y-73937317D01*
X156824015Y-73937317D02*
X156857882Y-73801850D01*
X156857882Y-73801850D02*
X156891749Y-73734117D01*
X156891749Y-73734117D02*
X156959482Y-73666384D01*
X156959482Y-73666384D02*
X157061082Y-73632517D01*
X157061082Y-73632517D02*
X157128815Y-73632517D01*
X157128815Y-73632517D02*
X157230415Y-73666384D01*
X157230415Y-73666384D02*
X157264282Y-73700250D01*
X157264282Y-73700250D02*
X157264282Y-73937317D01*
X157264282Y-73937317D02*
X157128815Y-73937317D01*
X157569082Y-73632517D02*
X157569082Y-74343717D01*
X157569082Y-74343717D02*
X157975482Y-73632517D01*
X157975482Y-73632517D02*
X157975482Y-74343717D01*
X158314149Y-73632517D02*
X158314149Y-74343717D01*
X158314149Y-74343717D02*
X158483482Y-74343717D01*
X158483482Y-74343717D02*
X158585082Y-74309850D01*
X158585082Y-74309850D02*
X158652816Y-74242117D01*
X158652816Y-74242117D02*
X158686682Y-74174384D01*
X158686682Y-74174384D02*
X158720549Y-74038917D01*
X158720549Y-74038917D02*
X158720549Y-73937317D01*
X158720549Y-73937317D02*
X158686682Y-73801850D01*
X158686682Y-73801850D02*
X158652816Y-73734117D01*
X158652816Y-73734117D02*
X158585082Y-73666384D01*
X158585082Y-73666384D02*
X158483482Y-73632517D01*
X158483482Y-73632517D02*
X158314149Y-73632517D01*
X161650015Y-73666384D02*
X161751615Y-73632517D01*
X161751615Y-73632517D02*
X161920949Y-73632517D01*
X161920949Y-73632517D02*
X161988682Y-73666384D01*
X161988682Y-73666384D02*
X162022549Y-73700250D01*
X162022549Y-73700250D02*
X162056415Y-73767984D01*
X162056415Y-73767984D02*
X162056415Y-73835717D01*
X162056415Y-73835717D02*
X162022549Y-73903450D01*
X162022549Y-73903450D02*
X161988682Y-73937317D01*
X161988682Y-73937317D02*
X161920949Y-73971184D01*
X161920949Y-73971184D02*
X161785482Y-74005050D01*
X161785482Y-74005050D02*
X161717749Y-74038917D01*
X161717749Y-74038917D02*
X161683882Y-74072784D01*
X161683882Y-74072784D02*
X161650015Y-74140517D01*
X161650015Y-74140517D02*
X161650015Y-74208250D01*
X161650015Y-74208250D02*
X161683882Y-74275984D01*
X161683882Y-74275984D02*
X161717749Y-74309850D01*
X161717749Y-74309850D02*
X161785482Y-74343717D01*
X161785482Y-74343717D02*
X161954815Y-74343717D01*
X161954815Y-74343717D02*
X162056415Y-74309850D01*
X162361215Y-73632517D02*
X162361215Y-74343717D01*
X162361215Y-74343717D02*
X162530548Y-74343717D01*
X162530548Y-74343717D02*
X162632148Y-74309850D01*
X162632148Y-74309850D02*
X162699882Y-74242117D01*
X162699882Y-74242117D02*
X162733748Y-74174384D01*
X162733748Y-74174384D02*
X162767615Y-74038917D01*
X162767615Y-74038917D02*
X162767615Y-73937317D01*
X162767615Y-73937317D02*
X162733748Y-73801850D01*
X162733748Y-73801850D02*
X162699882Y-73734117D01*
X162699882Y-73734117D02*
X162632148Y-73666384D01*
X162632148Y-73666384D02*
X162530548Y-73632517D01*
X162530548Y-73632517D02*
X162361215Y-73632517D01*
X163038548Y-73835717D02*
X163377215Y-73835717D01*
X162970815Y-73632517D02*
X163207882Y-74343717D01*
X163207882Y-74343717D02*
X163444948Y-73632517D01*
X164054548Y-73632517D02*
X163648148Y-73632517D01*
X163851348Y-73632517D02*
X163851348Y-74343717D01*
X163851348Y-74343717D02*
X163783615Y-74242117D01*
X163783615Y-74242117D02*
X163715882Y-74174384D01*
X163715882Y-74174384D02*
X163648148Y-74140517D01*
D13*
%TO.C,J11*%
X137332495Y-111305500D02*
X137332495Y-113965500D01*
X137332495Y-111305500D02*
X138475506Y-111305500D01*
X137332495Y-113965500D02*
X146010000Y-113986500D01*
X139874989Y-111305500D02*
X141018000Y-111305500D01*
X142452989Y-111305500D02*
X143596000Y-111305500D01*
X144990000Y-111326500D02*
X148550000Y-111326500D01*
X147530000Y-113986500D02*
X151090000Y-113986500D01*
X150070000Y-111326500D02*
X153630000Y-111326500D01*
X152610000Y-113986500D02*
X156170000Y-113986500D01*
X155150000Y-111326500D02*
X158260000Y-111326500D01*
X157690000Y-113986500D02*
X158260000Y-113986500D01*
X157690000Y-115506500D02*
X157690000Y-113986500D01*
X158260000Y-111326500D02*
X158260000Y-113986500D01*
D14*
%TO.C,G\u002A\u002A\u002A*%
G36*
X138121538Y-90641154D02*
G01*
X138111769Y-90650923D01*
X138102000Y-90641154D01*
X138111769Y-90631385D01*
X138121538Y-90641154D01*
G37*
G36*
X144432462Y-101113769D02*
G01*
X144422692Y-101123539D01*
X144412923Y-101113769D01*
X144422692Y-101104000D01*
X144432462Y-101113769D01*
G37*
G36*
X145389846Y-102559616D02*
G01*
X145380077Y-102569385D01*
X145370308Y-102559616D01*
X145380077Y-102549846D01*
X145389846Y-102559616D01*
G37*
G36*
X146601231Y-101074692D02*
G01*
X146591462Y-101084462D01*
X146581692Y-101074692D01*
X146591462Y-101064923D01*
X146601231Y-101074692D01*
G37*
G36*
X146620769Y-101191923D02*
G01*
X146611000Y-101201692D01*
X146601231Y-101191923D01*
X146611000Y-101182154D01*
X146620769Y-101191923D01*
G37*
G36*
X146952923Y-99785154D02*
G01*
X146943154Y-99794923D01*
X146933385Y-99785154D01*
X146943154Y-99775385D01*
X146952923Y-99785154D01*
G37*
G36*
X137269185Y-90695809D02*
G01*
X137266731Y-90702940D01*
X137257887Y-90705521D01*
X137217885Y-90702940D01*
X137214570Y-90696156D01*
X137242308Y-90693085D01*
X137269185Y-90695809D01*
G37*
G36*
X145385672Y-102109838D02*
G01*
X145383333Y-102133026D01*
X145377456Y-102136083D01*
X145370308Y-102120000D01*
X145371718Y-102109657D01*
X145383333Y-102106975D01*
X145385672Y-102109838D01*
G37*
G36*
X144903809Y-100844790D02*
G01*
X144914958Y-100859156D01*
X144917150Y-100879825D01*
X144908350Y-100879653D01*
X144892872Y-100855727D01*
X144891481Y-100852021D01*
X144887381Y-100832443D01*
X144903809Y-100844790D01*
G37*
G36*
X146663481Y-101106391D02*
G01*
X146679385Y-101123539D01*
X146678858Y-101128174D01*
X146660999Y-101143077D01*
X146655518Y-101142332D01*
X146630538Y-101123539D01*
X146628700Y-101113472D01*
X146648924Y-101104000D01*
X146663481Y-101106391D01*
G37*
G36*
X148168021Y-96397435D02*
G01*
X148183846Y-96414769D01*
X148180540Y-96423758D01*
X148154538Y-96434308D01*
X148141056Y-96432104D01*
X148125231Y-96414769D01*
X148128537Y-96405781D01*
X148154538Y-96395231D01*
X148168021Y-96397435D01*
G37*
G36*
X145083879Y-99750595D02*
G01*
X145084066Y-99750688D01*
X145130503Y-99767302D01*
X145164366Y-99768621D01*
X145165012Y-99768385D01*
X145202150Y-99772562D01*
X145252335Y-99798339D01*
X145303404Y-99837907D01*
X145343195Y-99883454D01*
X145365761Y-99932748D01*
X145376820Y-99991848D01*
X145383541Y-100031885D01*
X145400781Y-100048923D01*
X145425766Y-100057719D01*
X145444657Y-100094523D01*
X145445972Y-100153105D01*
X145429841Y-100225947D01*
X145396393Y-100305530D01*
X145381673Y-100332703D01*
X145338285Y-100397461D01*
X145289538Y-100440175D01*
X145227157Y-100464634D01*
X145142865Y-100474623D01*
X145028385Y-100473930D01*
X144929261Y-100467636D01*
X144821415Y-100449880D01*
X144740402Y-100419063D01*
X144679647Y-100372414D01*
X144632577Y-100307164D01*
X144625719Y-100294651D01*
X144599377Y-100232550D01*
X144591304Y-100171536D01*
X144601378Y-100099668D01*
X144629476Y-100005007D01*
X144671383Y-99911879D01*
X144731136Y-99830998D01*
X144800064Y-99776515D01*
X144872077Y-99754712D01*
X144921909Y-99749428D01*
X144979538Y-99737464D01*
X145016669Y-99733117D01*
X145083879Y-99750595D01*
G37*
G36*
X146929217Y-98727871D02*
G01*
X146996412Y-98759312D01*
X147004496Y-98764064D01*
X147057240Y-98788430D01*
X147099462Y-98798399D01*
X147117465Y-98802129D01*
X147165473Y-98830111D01*
X147220300Y-98877646D01*
X147272917Y-98935344D01*
X147314293Y-98993820D01*
X147335398Y-99043684D01*
X147337857Y-99069496D01*
X147337629Y-99134991D01*
X147332736Y-99219922D01*
X147323692Y-99312442D01*
X147317668Y-99369187D01*
X147310655Y-99461137D01*
X147307893Y-99539473D01*
X147309998Y-99591657D01*
X147312365Y-99635275D01*
X147308946Y-99712101D01*
X147299029Y-99791725D01*
X147293092Y-99830920D01*
X147287921Y-99935748D01*
X147300596Y-100049038D01*
X147305450Y-100081271D01*
X147315366Y-100164543D01*
X147325852Y-100270860D01*
X147335927Y-100389912D01*
X147344608Y-100511390D01*
X147351128Y-100602749D01*
X147365607Y-100752956D01*
X147382456Y-100868699D01*
X147401375Y-100947692D01*
X147421271Y-101008558D01*
X147458293Y-101130097D01*
X147482610Y-101226118D01*
X147495939Y-101303999D01*
X147500000Y-101371120D01*
X147499605Y-101397480D01*
X147492372Y-101451600D01*
X147470348Y-101496116D01*
X147426200Y-101548669D01*
X147395607Y-101578540D01*
X147340797Y-101620494D01*
X147294611Y-101643113D01*
X147271047Y-101646503D01*
X147192908Y-101640623D01*
X147085782Y-101615781D01*
X146968161Y-101577595D01*
X147117705Y-101577595D01*
X147125106Y-101586270D01*
X147136404Y-101589392D01*
X147162554Y-101584728D01*
X147162252Y-101578058D01*
X147136910Y-101574466D01*
X147117705Y-101577595D01*
X146968161Y-101577595D01*
X146952923Y-101572648D01*
X146939657Y-101567898D01*
X146870855Y-101543683D01*
X146800313Y-101519334D01*
X146774279Y-101509719D01*
X146736810Y-101491754D01*
X146726874Y-101479844D01*
X146729639Y-101475231D01*
X146777077Y-101475231D01*
X146777645Y-101479901D01*
X146796615Y-101494769D01*
X146801286Y-101494202D01*
X146816154Y-101475231D01*
X146815586Y-101470561D01*
X146796615Y-101455692D01*
X146791945Y-101456260D01*
X146777077Y-101475231D01*
X146729639Y-101475231D01*
X146729673Y-101475175D01*
X146722753Y-101451852D01*
X146700315Y-101430710D01*
X146677395Y-101427615D01*
X146669451Y-101426999D01*
X146671434Y-101402977D01*
X146676411Y-101386467D01*
X146674887Y-101378765D01*
X146654403Y-101401962D01*
X146626119Y-101430147D01*
X146606944Y-101429264D01*
X146600082Y-101392192D01*
X146599348Y-101375545D01*
X146593551Y-101360960D01*
X146576734Y-101380877D01*
X146571762Y-101387899D01*
X146554502Y-101402136D01*
X146528669Y-101398466D01*
X146481516Y-101376272D01*
X146465008Y-101367546D01*
X146420656Y-101340706D01*
X146397569Y-101321337D01*
X146390437Y-101315130D01*
X146429772Y-101315130D01*
X146437789Y-101338796D01*
X146456162Y-101333735D01*
X146461834Y-101310782D01*
X146459958Y-101266979D01*
X146452514Y-101211462D01*
X146436603Y-101266102D01*
X146434892Y-101272346D01*
X146429772Y-101315130D01*
X146390437Y-101315130D01*
X146382693Y-101308390D01*
X146340918Y-101281657D01*
X146283897Y-101249966D01*
X146239929Y-101225181D01*
X146186228Y-101189723D01*
X146353947Y-101189723D01*
X146365616Y-101201692D01*
X146371287Y-101200942D01*
X146386308Y-101182154D01*
X146386084Y-101177732D01*
X146377692Y-101162616D01*
X146374557Y-101163515D01*
X146357000Y-101182154D01*
X146353947Y-101189723D01*
X146186228Y-101189723D01*
X146183060Y-101187631D01*
X146146838Y-101156776D01*
X146121542Y-101132088D01*
X146105115Y-101125291D01*
X146079825Y-101158249D01*
X146044384Y-101216107D01*
X146010830Y-101280454D01*
X145985817Y-101338329D01*
X145976000Y-101376769D01*
X145975701Y-101383715D01*
X145963595Y-101437439D01*
X145939256Y-101495521D01*
X145936987Y-101499865D01*
X145909517Y-101569737D01*
X145892805Y-101641770D01*
X145887613Y-101675757D01*
X145875939Y-101726132D01*
X145856689Y-101786916D01*
X145827108Y-101866547D01*
X145784439Y-101973462D01*
X145763428Y-102027917D01*
X145706014Y-102208540D01*
X145662629Y-102395809D01*
X145647375Y-102457875D01*
X145611865Y-102527687D01*
X145553941Y-102577078D01*
X145465297Y-102615290D01*
X145366031Y-102633310D01*
X145271905Y-102615694D01*
X145187345Y-102560362D01*
X145165218Y-102537596D01*
X145146330Y-102504793D01*
X145137824Y-102458950D01*
X145136675Y-102417226D01*
X145186990Y-102417226D01*
X145187396Y-102442385D01*
X145193723Y-102456414D01*
X145206321Y-102471692D01*
X145209820Y-102468453D01*
X145214000Y-102442385D01*
X145211868Y-102428912D01*
X145195075Y-102413077D01*
X145186990Y-102417226D01*
X145136675Y-102417226D01*
X145136342Y-102405136D01*
X145277897Y-102405136D01*
X145290783Y-102440734D01*
X145303202Y-102462081D01*
X145288916Y-102476028D01*
X145286990Y-102476762D01*
X145281205Y-102494466D01*
X145307639Y-102530459D01*
X145309201Y-102532146D01*
X145338612Y-102568968D01*
X145350769Y-102593966D01*
X145360669Y-102603412D01*
X145394731Y-102604936D01*
X145422729Y-102594556D01*
X145438692Y-102559616D01*
X145435037Y-102536872D01*
X145419154Y-102520239D01*
X145409892Y-102518957D01*
X145375192Y-102504433D01*
X145361869Y-102499314D01*
X145350470Y-102514501D01*
X145346973Y-102528305D01*
X145332295Y-102511822D01*
X145325349Y-102493338D01*
X145331255Y-102461923D01*
X145546154Y-102461923D01*
X145555923Y-102471692D01*
X145565692Y-102461923D01*
X145555923Y-102452154D01*
X145546154Y-102461923D01*
X145331255Y-102461923D01*
X145334099Y-102446795D01*
X145343342Y-102421119D01*
X145343239Y-102403308D01*
X145546154Y-102403308D01*
X145547003Y-102416661D01*
X145553833Y-102432616D01*
X145558890Y-102429016D01*
X145572758Y-102403308D01*
X145575829Y-102388322D01*
X145565079Y-102374000D01*
X145556379Y-102377302D01*
X145546154Y-102403308D01*
X145343239Y-102403308D01*
X145343118Y-102382243D01*
X145336298Y-102370022D01*
X145311692Y-102354462D01*
X145311249Y-102354465D01*
X145286172Y-102370385D01*
X145277897Y-102405136D01*
X145136342Y-102405136D01*
X145135846Y-102387095D01*
X145134482Y-102334923D01*
X145155385Y-102334923D01*
X145156795Y-102345267D01*
X145168410Y-102347949D01*
X145170749Y-102345085D01*
X145168410Y-102321898D01*
X145162533Y-102318841D01*
X145155385Y-102334923D01*
X145134482Y-102334923D01*
X145134454Y-102333840D01*
X145125236Y-102270404D01*
X145106538Y-102237231D01*
X145089279Y-102217692D01*
X145272615Y-102217692D01*
X145273102Y-102222296D01*
X145289875Y-102237231D01*
X145303019Y-102246576D01*
X145318408Y-102280339D01*
X145328208Y-102305343D01*
X145340772Y-102312357D01*
X145343010Y-102290632D01*
X145332261Y-102249710D01*
X145325389Y-102234482D01*
X145302614Y-102205065D01*
X145281751Y-102197712D01*
X145272615Y-102217692D01*
X145089279Y-102217692D01*
X145085810Y-102213765D01*
X145083811Y-102192553D01*
X145197611Y-102192553D01*
X145210981Y-102190251D01*
X145213666Y-102188385D01*
X145350769Y-102188385D01*
X145360538Y-102198154D01*
X145370308Y-102188385D01*
X145360538Y-102178616D01*
X145350769Y-102188385D01*
X145213666Y-102188385D01*
X145219661Y-102184219D01*
X145233538Y-102167693D01*
X145233348Y-102164962D01*
X145222038Y-102160659D01*
X145202365Y-102181634D01*
X145197611Y-102192553D01*
X145083811Y-102192553D01*
X145081821Y-102171428D01*
X145116322Y-102124180D01*
X145124169Y-102116831D01*
X145143319Y-102093780D01*
X145137737Y-102073355D01*
X145105524Y-102040893D01*
X145095364Y-102032077D01*
X145214000Y-102032077D01*
X145223769Y-102041846D01*
X145233538Y-102032077D01*
X145223769Y-102022308D01*
X145214000Y-102032077D01*
X145095364Y-102032077D01*
X145077985Y-102016998D01*
X145054237Y-102007514D01*
X145037424Y-102022820D01*
X145026794Y-102035528D01*
X145018915Y-102029041D01*
X145013085Y-102013264D01*
X144987746Y-101973274D01*
X144984815Y-101969480D01*
X145268469Y-101969480D01*
X145269416Y-102030301D01*
X145272569Y-102058153D01*
X145282873Y-102102505D01*
X145295438Y-102120000D01*
X145304363Y-102111822D01*
X145301904Y-102080863D01*
X145300767Y-102076307D01*
X145306106Y-102036742D01*
X145328297Y-101999645D01*
X145357052Y-101983231D01*
X145361326Y-101984036D01*
X145375843Y-102005936D01*
X145379044Y-102044908D01*
X145368882Y-102083588D01*
X145359572Y-102107384D01*
X145367496Y-102145920D01*
X145370988Y-102151190D01*
X145384783Y-102191419D01*
X145393883Y-102247248D01*
X145400831Y-102325154D01*
X145417123Y-102227462D01*
X145420328Y-102210378D01*
X145576076Y-102210378D01*
X145582296Y-102243990D01*
X145598661Y-102248299D01*
X145617673Y-102247441D01*
X145623101Y-102264162D01*
X145604450Y-102286274D01*
X145598290Y-102291668D01*
X145596031Y-102317054D01*
X145606962Y-102328937D01*
X145625186Y-102323365D01*
X145638615Y-102288338D01*
X145643846Y-102230043D01*
X145643299Y-102213195D01*
X145633452Y-102152463D01*
X145615160Y-102109081D01*
X145613361Y-102106705D01*
X145594774Y-102084508D01*
X145584624Y-102084690D01*
X145579621Y-102112807D01*
X145576475Y-102174416D01*
X145576076Y-102210378D01*
X145420328Y-102210378D01*
X145422691Y-102197784D01*
X145440069Y-102126547D01*
X145458644Y-102071154D01*
X145478799Y-102017591D01*
X145495546Y-101960005D01*
X145497978Y-101921167D01*
X145486303Y-101894545D01*
X145474532Y-101893142D01*
X145471578Y-101917770D01*
X145470965Y-101938447D01*
X145451894Y-101948555D01*
X145441192Y-101948397D01*
X145438393Y-101963208D01*
X145440049Y-101973891D01*
X145418911Y-101983231D01*
X145403322Y-101980838D01*
X145369377Y-101963295D01*
X145345732Y-101938250D01*
X145345187Y-101917172D01*
X145349660Y-101906702D01*
X145330799Y-101907883D01*
X145295472Y-101922840D01*
X145279777Y-101935704D01*
X145268469Y-101969480D01*
X144984815Y-101969480D01*
X144976016Y-101958092D01*
X145080380Y-101958092D01*
X145093750Y-101955789D01*
X145102430Y-101949758D01*
X145116308Y-101933232D01*
X145116117Y-101930500D01*
X145104807Y-101926197D01*
X145085134Y-101947173D01*
X145080380Y-101958092D01*
X144976016Y-101958092D01*
X144949193Y-101923374D01*
X144936310Y-101907180D01*
X145155385Y-101907180D01*
X145163597Y-101940856D01*
X145190850Y-101957349D01*
X145226252Y-101940275D01*
X145235918Y-101929752D01*
X145241975Y-101907214D01*
X145217907Y-101879305D01*
X145212642Y-101875769D01*
X145350769Y-101875769D01*
X145360538Y-101885539D01*
X145370308Y-101875769D01*
X145360538Y-101866000D01*
X145350769Y-101875769D01*
X145212642Y-101875769D01*
X145189264Y-101860067D01*
X145164122Y-101865932D01*
X145155385Y-101907180D01*
X144936310Y-101907180D01*
X144926870Y-101895314D01*
X144920978Y-101885539D01*
X144940462Y-101885539D01*
X144943768Y-101894527D01*
X144969769Y-101905077D01*
X144983252Y-101902873D01*
X144999077Y-101885539D01*
X144995770Y-101876550D01*
X144969769Y-101866000D01*
X144956287Y-101868205D01*
X144940462Y-101885539D01*
X144920978Y-101885539D01*
X144899123Y-101849278D01*
X144902195Y-101826423D01*
X144907679Y-101817212D01*
X144895910Y-101781602D01*
X144854986Y-101721341D01*
X144828977Y-101685084D01*
X144782187Y-101610656D01*
X144747098Y-101543634D01*
X144744066Y-101536917D01*
X144704721Y-101473380D01*
X144660421Y-101444997D01*
X144617430Y-101418263D01*
X144598214Y-101370653D01*
X144609998Y-101315764D01*
X144614215Y-101307498D01*
X144619826Y-101283282D01*
X144599356Y-101288107D01*
X144552774Y-101321978D01*
X144543241Y-101329993D01*
X144524825Y-101350179D01*
X144535038Y-101351898D01*
X144554438Y-101348334D01*
X144569231Y-101358613D01*
X144561460Y-101369783D01*
X144529184Y-101377539D01*
X144485328Y-101385807D01*
X144432729Y-101406708D01*
X144432073Y-101407045D01*
X144383150Y-101423765D01*
X144344310Y-101423594D01*
X144323746Y-101420365D01*
X144318650Y-101440652D01*
X144316228Y-101455078D01*
X144292544Y-101493213D01*
X144252260Y-101539448D01*
X144204923Y-101584262D01*
X144160079Y-101618132D01*
X144127273Y-101631539D01*
X144094717Y-101637332D01*
X144037353Y-101653063D01*
X143968309Y-101675247D01*
X143938083Y-101685995D01*
X143872717Y-101714882D01*
X143829058Y-101747484D01*
X143794771Y-101792108D01*
X143792718Y-101795349D01*
X143766269Y-101832407D01*
X143737451Y-101857102D01*
X143697107Y-101873195D01*
X143636086Y-101884444D01*
X143545234Y-101894609D01*
X143458221Y-101896032D01*
X143358176Y-101881097D01*
X143272398Y-101851067D01*
X143212770Y-101809001D01*
X143205458Y-101800204D01*
X143174182Y-101730944D01*
X143170658Y-101670616D01*
X143729077Y-101670616D01*
X143730487Y-101680959D01*
X143742103Y-101683641D01*
X143744441Y-101680778D01*
X143742103Y-101657590D01*
X143736226Y-101654533D01*
X143729077Y-101670616D01*
X143170658Y-101670616D01*
X143169334Y-101647940D01*
X143171159Y-101641308D01*
X143338308Y-101641308D01*
X143348077Y-101651077D01*
X143357846Y-101641308D01*
X143348077Y-101631539D01*
X143338308Y-101641308D01*
X143171159Y-101641308D01*
X143181474Y-101603829D01*
X143416462Y-101603829D01*
X143424121Y-101613459D01*
X143444836Y-101605612D01*
X143448262Y-101601254D01*
X143543462Y-101601254D01*
X143543470Y-101603950D01*
X143547415Y-101636706D01*
X143564407Y-101653505D01*
X143602988Y-101657797D01*
X143671699Y-101653031D01*
X143672964Y-101652794D01*
X143684865Y-101632119D01*
X143686353Y-101589082D01*
X143685529Y-101582634D01*
X143673494Y-101545173D01*
X143669158Y-101539001D01*
X144042120Y-101539001D01*
X144142971Y-101438150D01*
X144146024Y-101435109D01*
X144198501Y-101387245D01*
X144237378Y-101360062D01*
X144256542Y-101357881D01*
X144273500Y-101363147D01*
X144305044Y-101338924D01*
X144335310Y-101312779D01*
X144367105Y-101299385D01*
X144377791Y-101297686D01*
X144393385Y-101279846D01*
X144393398Y-101279435D01*
X144411201Y-101265912D01*
X144452628Y-101260308D01*
X144456244Y-101260258D01*
X144517095Y-101251332D01*
X144580372Y-101231686D01*
X144596590Y-101224980D01*
X144633997Y-101213145D01*
X144653164Y-101221238D01*
X144667667Y-101252497D01*
X144668497Y-101254749D01*
X144681305Y-101310336D01*
X144686761Y-101373926D01*
X144687058Y-101389027D01*
X144692257Y-101423206D01*
X144703588Y-101419849D01*
X144704995Y-101417695D01*
X144719445Y-101409032D01*
X144731282Y-101436468D01*
X144742855Y-101460865D01*
X144761894Y-101467144D01*
X144776445Y-101468091D01*
X144793840Y-101494506D01*
X144807184Y-101519806D01*
X144844092Y-101554093D01*
X144866273Y-101572064D01*
X144881846Y-101606060D01*
X144891817Y-101631546D01*
X144921152Y-101669345D01*
X144959359Y-101706619D01*
X144995730Y-101733075D01*
X145019555Y-101738420D01*
X145020604Y-101737934D01*
X145036797Y-101750311D01*
X145054773Y-101787870D01*
X145072795Y-101819997D01*
X145100514Y-101843558D01*
X145125186Y-101847627D01*
X145130161Y-101837964D01*
X145468000Y-101837964D01*
X145468047Y-101840898D01*
X145477804Y-101865948D01*
X145499795Y-101861879D01*
X145527133Y-101833073D01*
X145552933Y-101783912D01*
X145563505Y-101753725D01*
X145572198Y-101703672D01*
X145561577Y-101679795D01*
X145532559Y-101686481D01*
X145522116Y-101696133D01*
X145497217Y-101737299D01*
X145476596Y-101790637D01*
X145468000Y-101837964D01*
X145130161Y-101837964D01*
X145135846Y-101826923D01*
X145139835Y-101785728D01*
X145157759Y-101744333D01*
X145159965Y-101728078D01*
X145194462Y-101728078D01*
X145198279Y-101751894D01*
X145214000Y-101768308D01*
X145222614Y-101765406D01*
X145233538Y-101740153D01*
X145231978Y-101728193D01*
X145214000Y-101699923D01*
X145201983Y-101701062D01*
X145194462Y-101728078D01*
X145159965Y-101728078D01*
X145162014Y-101712973D01*
X145141710Y-101675081D01*
X145103680Y-101648671D01*
X145059142Y-101645037D01*
X145029008Y-101646158D01*
X145026941Y-101641308D01*
X145155385Y-101641308D01*
X145165154Y-101651077D01*
X145174923Y-101641308D01*
X145165154Y-101631539D01*
X145155385Y-101641308D01*
X145026941Y-101641308D01*
X145018615Y-101621769D01*
X145011875Y-101599904D01*
X144981224Y-101597682D01*
X144960625Y-101598612D01*
X144937924Y-101577900D01*
X144925287Y-101526702D01*
X144921190Y-101441039D01*
X144920428Y-101419172D01*
X144913374Y-101375404D01*
X144901385Y-101358000D01*
X144888394Y-101370733D01*
X144881846Y-101407999D01*
X144876875Y-101438910D01*
X144863304Y-101446539D01*
X144862813Y-101446212D01*
X144852389Y-101419834D01*
X144852503Y-101373907D01*
X144867797Y-101321828D01*
X144894957Y-101291795D01*
X144926824Y-101293263D01*
X144933019Y-101290346D01*
X144922877Y-101263959D01*
X144898713Y-101236955D01*
X144852906Y-101232609D01*
X144827497Y-101236063D01*
X144813191Y-101227331D01*
X144822848Y-101192931D01*
X144831263Y-101159851D01*
X144822484Y-101132846D01*
X144807947Y-101127792D01*
X144778061Y-101139354D01*
X144764615Y-101173538D01*
X144758164Y-101195949D01*
X144738290Y-101198214D01*
X144718083Y-101171370D01*
X144714659Y-101156130D01*
X144725762Y-101152985D01*
X144726543Y-101153425D01*
X144739830Y-101143939D01*
X144745077Y-101105153D01*
X144738372Y-101073539D01*
X144881846Y-101073539D01*
X144884237Y-101088097D01*
X144901385Y-101104000D01*
X144906020Y-101103474D01*
X144920923Y-101085615D01*
X144920178Y-101080133D01*
X144901385Y-101055154D01*
X144891318Y-101053316D01*
X144881846Y-101073539D01*
X144738372Y-101073539D01*
X144735232Y-101058731D01*
X144708904Y-101045595D01*
X144671156Y-101068505D01*
X144656468Y-101079846D01*
X144633344Y-101075051D01*
X144618106Y-101032521D01*
X144614232Y-101012159D01*
X144609803Y-100989335D01*
X144606735Y-100989356D01*
X144582112Y-101003823D01*
X144541227Y-101033297D01*
X144496225Y-101066168D01*
X144466704Y-101081175D01*
X144457475Y-101070941D01*
X144463515Y-101035616D01*
X144469594Y-101002946D01*
X144467562Y-100986769D01*
X144460452Y-100990716D01*
X144436667Y-101017396D01*
X144408035Y-101057660D01*
X144383961Y-101097748D01*
X144373846Y-101123901D01*
X144372639Y-101130830D01*
X144355658Y-101134142D01*
X144348613Y-101131487D01*
X144325197Y-101142758D01*
X144312509Y-101153489D01*
X144275001Y-101162616D01*
X144253404Y-101165840D01*
X144237077Y-101180612D01*
X144227445Y-101198510D01*
X144196424Y-101236559D01*
X144151424Y-101284260D01*
X144103744Y-101336777D01*
X144069865Y-101392780D01*
X144053946Y-101454457D01*
X144042120Y-101539001D01*
X143669158Y-101539001D01*
X143655279Y-101519245D01*
X143638653Y-101512715D01*
X143631385Y-101533446D01*
X143621421Y-101546218D01*
X143587423Y-101549728D01*
X143568383Y-101548460D01*
X143548225Y-101560755D01*
X143543462Y-101601254D01*
X143448262Y-101601254D01*
X143462364Y-101583318D01*
X143465571Y-101568644D01*
X143456732Y-101544354D01*
X143443403Y-101546781D01*
X143425074Y-101570954D01*
X143416462Y-101603829D01*
X143181474Y-101603829D01*
X143192103Y-101565210D01*
X143210329Y-101514766D01*
X143214956Y-101425546D01*
X143211136Y-101390989D01*
X143219782Y-101354302D01*
X143252542Y-101325482D01*
X143268028Y-101310782D01*
X143672004Y-101310782D01*
X143675133Y-101329988D01*
X143683808Y-101322587D01*
X143686930Y-101311288D01*
X143682266Y-101285138D01*
X143675596Y-101285441D01*
X143672004Y-101310782D01*
X143268028Y-101310782D01*
X143283574Y-101296025D01*
X143290663Y-101266163D01*
X143292244Y-101233739D01*
X143311990Y-101190103D01*
X143321226Y-101174329D01*
X143345169Y-101114389D01*
X143360285Y-101048254D01*
X143364099Y-100989836D01*
X143354138Y-100953045D01*
X143352863Y-100950723D01*
X143346985Y-100917450D01*
X143342268Y-100855987D01*
X143641503Y-100855987D01*
X143659215Y-100869539D01*
X143672807Y-100866192D01*
X143697066Y-100840231D01*
X143699420Y-100824475D01*
X143681708Y-100810923D01*
X143668116Y-100814270D01*
X143643857Y-100840231D01*
X143641503Y-100855987D01*
X143342268Y-100855987D01*
X143342037Y-100852976D01*
X143338065Y-100763860D01*
X143337779Y-100753461D01*
X143650923Y-100753461D01*
X143652457Y-100760528D01*
X143670462Y-100762077D01*
X143676309Y-100758067D01*
X143690000Y-100741386D01*
X143689492Y-100739436D01*
X143670462Y-100732769D01*
X143665106Y-100733565D01*
X143650923Y-100753461D01*
X143337779Y-100753461D01*
X143336135Y-100693692D01*
X143650923Y-100693692D01*
X143651491Y-100698363D01*
X143670462Y-100713231D01*
X143675132Y-100712663D01*
X143690000Y-100693692D01*
X143689432Y-100689022D01*
X143670462Y-100674154D01*
X143665791Y-100674722D01*
X143650923Y-100693692D01*
X143336135Y-100693692D01*
X143335117Y-100656665D01*
X143334422Y-100612781D01*
X143656094Y-100612781D01*
X143663548Y-100635330D01*
X143681809Y-100630242D01*
X143687308Y-100613143D01*
X143685976Y-100573255D01*
X143678794Y-100527616D01*
X143663075Y-100573050D01*
X143662972Y-100573348D01*
X143656094Y-100612781D01*
X143334422Y-100612781D01*
X143333238Y-100537952D01*
X143332476Y-100414283D01*
X143332532Y-100397135D01*
X143659072Y-100397135D01*
X143664431Y-100449174D01*
X143676472Y-100523376D01*
X143699055Y-100457111D01*
X143701232Y-100450489D01*
X143711110Y-100408499D01*
X143734925Y-100408499D01*
X143746087Y-100420154D01*
X143748661Y-100422153D01*
X143756213Y-100452608D01*
X143762807Y-100516362D01*
X143768079Y-100609044D01*
X143771663Y-100726286D01*
X143773643Y-100806313D01*
X143778020Y-100911274D01*
X143784029Y-100982905D01*
X143792021Y-101024794D01*
X143802346Y-101040529D01*
X143806156Y-101042626D01*
X143820978Y-101072480D01*
X143826769Y-101125167D01*
X143827001Y-101139646D01*
X143834824Y-101186900D01*
X143854924Y-101201692D01*
X143866907Y-101200211D01*
X143884705Y-101189318D01*
X144139385Y-101189318D01*
X144142834Y-101197402D01*
X144162505Y-101186387D01*
X144172834Y-101173245D01*
X144175531Y-101153172D01*
X144168321Y-101149510D01*
X144149018Y-101160669D01*
X144139385Y-101189318D01*
X143884705Y-101189318D01*
X143894389Y-101183391D01*
X143917542Y-101160069D01*
X143964209Y-101135285D01*
X144266156Y-101135285D01*
X144289257Y-101139612D01*
X144305754Y-101133628D01*
X144329894Y-101108885D01*
X144330655Y-101094892D01*
X144314232Y-101084856D01*
X144288372Y-101092152D01*
X144268543Y-101115189D01*
X144266156Y-101135285D01*
X143964209Y-101135285D01*
X143966892Y-101133860D01*
X144020834Y-101119720D01*
X144061857Y-101123874D01*
X144090546Y-101130072D01*
X144134833Y-101118678D01*
X144201398Y-101086068D01*
X144244623Y-101062751D01*
X144259039Y-101055154D01*
X144334769Y-101055154D01*
X144344538Y-101064923D01*
X144354308Y-101055154D01*
X144344538Y-101045385D01*
X144334769Y-101055154D01*
X144259039Y-101055154D01*
X144322480Y-101021723D01*
X144388500Y-100987995D01*
X144414930Y-100973861D01*
X144455541Y-100946826D01*
X144471538Y-100927666D01*
X144472330Y-100922457D01*
X144492230Y-100908616D01*
X144499849Y-100910731D01*
X144499641Y-100930103D01*
X144499289Y-100930679D01*
X144498793Y-100941734D01*
X144526708Y-100929998D01*
X144553375Y-100913100D01*
X144579065Y-100888972D01*
X144595991Y-100877064D01*
X144636382Y-100869539D01*
X144640972Y-100869411D01*
X144692153Y-100860189D01*
X144750344Y-100840853D01*
X144762310Y-100835893D01*
X144801534Y-100822476D01*
X144819900Y-100827440D01*
X144829569Y-100852588D01*
X144839817Y-100875209D01*
X144857555Y-100882245D01*
X144868279Y-100885248D01*
X144873524Y-100914472D01*
X144877608Y-100940603D01*
X144897972Y-100952086D01*
X144913226Y-100955204D01*
X144911818Y-100984678D01*
X144916006Y-101028317D01*
X144954960Y-101087746D01*
X144991071Y-101133010D01*
X145036352Y-101195804D01*
X145076545Y-101257171D01*
X145105310Y-101307335D01*
X145116308Y-101336520D01*
X145121056Y-101347136D01*
X145147955Y-101379250D01*
X145190695Y-101419978D01*
X145209743Y-101437531D01*
X145270546Y-101501991D01*
X145322579Y-101567588D01*
X145345175Y-101597644D01*
X145378278Y-101632942D01*
X145399430Y-101644175D01*
X145406307Y-101638808D01*
X145428362Y-101603686D01*
X145443375Y-101571946D01*
X145568623Y-101571946D01*
X145573946Y-101582496D01*
X145593488Y-101593508D01*
X145606235Y-101578296D01*
X145605219Y-101572754D01*
X145584254Y-101556316D01*
X145574769Y-101555278D01*
X145568623Y-101571946D01*
X145443375Y-101571946D01*
X145456700Y-101543774D01*
X145487850Y-101467812D01*
X145518344Y-101384537D01*
X145523157Y-101369597D01*
X145634580Y-101369597D01*
X145653830Y-101397256D01*
X145655890Y-101398950D01*
X145677624Y-101410631D01*
X145682923Y-101390853D01*
X145676118Y-101363289D01*
X145656158Y-101345745D01*
X145635642Y-101355468D01*
X145634580Y-101369597D01*
X145523157Y-101369597D01*
X145544711Y-101302687D01*
X145556668Y-101257021D01*
X145683615Y-101257021D01*
X145684024Y-101263375D01*
X145692144Y-101269656D01*
X145712231Y-101240769D01*
X145731501Y-101203408D01*
X145740846Y-101177269D01*
X145740726Y-101174882D01*
X145724090Y-101162616D01*
X145707923Y-101172032D01*
X145690235Y-101208037D01*
X145683615Y-101257021D01*
X145556668Y-101257021D01*
X145563482Y-101231000D01*
X145576854Y-101178130D01*
X145586085Y-101150241D01*
X145780615Y-101150241D01*
X145784065Y-101158325D01*
X145803736Y-101147310D01*
X145814065Y-101134168D01*
X145816762Y-101114095D01*
X145809552Y-101110433D01*
X145790248Y-101121592D01*
X145780615Y-101150241D01*
X145586085Y-101150241D01*
X145591689Y-101133308D01*
X145722000Y-101133308D01*
X145731769Y-101143077D01*
X145741538Y-101133308D01*
X145731769Y-101123539D01*
X145722000Y-101133308D01*
X145591689Y-101133308D01*
X145599128Y-101110833D01*
X145606907Y-101094231D01*
X146366769Y-101094231D01*
X146376538Y-101104000D01*
X146386308Y-101094231D01*
X146376538Y-101084462D01*
X146366769Y-101094231D01*
X145606907Y-101094231D01*
X145614536Y-101077949D01*
X145728513Y-101077949D01*
X145731376Y-101080287D01*
X145754564Y-101077949D01*
X145756258Y-101074692D01*
X146405846Y-101074692D01*
X146415615Y-101084462D01*
X146425385Y-101074692D01*
X146415615Y-101064923D01*
X146405846Y-101074692D01*
X145756258Y-101074692D01*
X145757621Y-101072072D01*
X145741538Y-101064923D01*
X145731195Y-101066333D01*
X145728513Y-101077949D01*
X145614536Y-101077949D01*
X145620639Y-101064923D01*
X145628676Y-101050646D01*
X145648238Y-101007493D01*
X145792310Y-101007493D01*
X145799451Y-101042181D01*
X145815687Y-101061507D01*
X145834346Y-101053729D01*
X145838048Y-101049941D01*
X146338158Y-101049941D01*
X146357859Y-101058410D01*
X146370495Y-101056705D01*
X146386308Y-101042128D01*
X146386257Y-101041674D01*
X146452072Y-101041674D01*
X146461269Y-101060603D01*
X146470322Y-101072545D01*
X146469296Y-101107162D01*
X146466882Y-101117363D01*
X146469995Y-101138712D01*
X146499591Y-101134561D01*
X146503292Y-101133463D01*
X146539992Y-101136037D01*
X146572833Y-101171032D01*
X146579365Y-101180582D01*
X146608185Y-101207256D01*
X146638473Y-101202674D01*
X146660242Y-101195734D01*
X146698204Y-101201248D01*
X146712101Y-101207288D01*
X146750882Y-101207564D01*
X146763137Y-101205390D01*
X146777077Y-101219141D01*
X146777982Y-101225636D01*
X146796615Y-101240769D01*
X146809751Y-101227379D01*
X146812195Y-101212930D01*
X146856919Y-101212930D01*
X146862100Y-101244396D01*
X146882174Y-101306705D01*
X146895740Y-101342059D01*
X146911539Y-101363716D01*
X146925386Y-101348109D01*
X146925734Y-101346902D01*
X146997912Y-101346902D01*
X147005134Y-101381640D01*
X147029147Y-101397077D01*
X147043228Y-101388643D01*
X147061009Y-101356033D01*
X147064679Y-101340686D01*
X147062468Y-101320076D01*
X147128769Y-101320076D01*
X147130303Y-101327143D01*
X147148308Y-101328692D01*
X147154155Y-101324682D01*
X147167846Y-101308001D01*
X147167338Y-101306051D01*
X147148308Y-101299385D01*
X147142952Y-101300180D01*
X147128769Y-101320076D01*
X147062468Y-101320076D01*
X147060794Y-101304474D01*
X147040597Y-101290857D01*
X147012432Y-101308077D01*
X147010742Y-101310218D01*
X146997912Y-101346902D01*
X146925734Y-101346902D01*
X146940825Y-101294500D01*
X146944054Y-101273650D01*
X146938603Y-101244919D01*
X146923476Y-101243563D01*
X146907776Y-101274962D01*
X146906112Y-101281065D01*
X146899820Y-101292453D01*
X146896574Y-101266346D01*
X146891459Y-101238779D01*
X146874769Y-101211462D01*
X146866234Y-101207190D01*
X146856919Y-101212930D01*
X146812195Y-101212930D01*
X146816154Y-101189531D01*
X146815575Y-101169218D01*
X146808080Y-101150758D01*
X146786846Y-101162616D01*
X146777778Y-101169372D01*
X146757087Y-101171401D01*
X146754917Y-101139115D01*
X146754783Y-101137391D01*
X146737075Y-101117506D01*
X146698615Y-101090941D01*
X146692378Y-101087183D01*
X146660729Y-101064923D01*
X147343692Y-101064923D01*
X147344487Y-101070279D01*
X147364384Y-101084462D01*
X147371451Y-101082928D01*
X147373000Y-101064923D01*
X147368990Y-101059076D01*
X147352308Y-101045385D01*
X147350358Y-101045893D01*
X147343692Y-101064923D01*
X146660729Y-101064923D01*
X146655406Y-101061179D01*
X146641788Y-101045385D01*
X147304615Y-101045385D01*
X147306025Y-101055728D01*
X147317641Y-101058410D01*
X147319979Y-101055547D01*
X147317641Y-101032359D01*
X147311764Y-101029302D01*
X147304615Y-101045385D01*
X146641788Y-101045385D01*
X146640308Y-101043669D01*
X146635002Y-101039699D01*
X146601545Y-101035414D01*
X146547500Y-101036006D01*
X146515380Y-101037246D01*
X146481806Y-101036241D01*
X146479115Y-101031881D01*
X146488213Y-101027124D01*
X146503538Y-101004680D01*
X146503255Y-101001466D01*
X146486090Y-100986769D01*
X146478060Y-100989000D01*
X146459871Y-101011256D01*
X146452072Y-101041674D01*
X146386257Y-101041674D01*
X146385955Y-101038956D01*
X146367922Y-101025846D01*
X146365244Y-101026007D01*
X146339474Y-101042128D01*
X146338158Y-101049941D01*
X145838048Y-101049941D01*
X145846115Y-101041685D01*
X145883192Y-101020150D01*
X145892289Y-101015269D01*
X146238477Y-101015269D01*
X146253189Y-101021373D01*
X146260226Y-101018145D01*
X146284138Y-100990433D01*
X146285810Y-100983970D01*
X146282995Y-100977000D01*
X147304615Y-100977000D01*
X147314385Y-100986769D01*
X147324154Y-100977000D01*
X147314385Y-100967231D01*
X147304615Y-100977000D01*
X146282995Y-100977000D01*
X146279368Y-100968021D01*
X146259963Y-100973624D01*
X146241846Y-100998171D01*
X146238477Y-101015269D01*
X145892289Y-101015269D01*
X145901552Y-101010299D01*
X145917385Y-100987996D01*
X145913221Y-100979587D01*
X145888077Y-100979704D01*
X145872982Y-100982386D01*
X145858769Y-100969321D01*
X145857168Y-100959523D01*
X145839117Y-100947578D01*
X145813246Y-100957179D01*
X145795058Y-100984607D01*
X145792310Y-101007493D01*
X145648238Y-101007493D01*
X145652796Y-100997438D01*
X145680184Y-100928154D01*
X145878308Y-100928154D01*
X145879718Y-100938498D01*
X145891333Y-100941180D01*
X145893672Y-100938316D01*
X145891333Y-100915128D01*
X145885456Y-100912072D01*
X145878308Y-100928154D01*
X145680184Y-100928154D01*
X145681983Y-100923603D01*
X145705465Y-100857779D01*
X145947071Y-100857779D01*
X145949006Y-100878293D01*
X145972312Y-100899527D01*
X146026937Y-100908616D01*
X146075201Y-100915012D01*
X146093231Y-100935833D01*
X146094110Y-100946235D01*
X146112044Y-100969989D01*
X146145752Y-100966475D01*
X146185510Y-100935706D01*
X146188623Y-100932208D01*
X146213867Y-100900974D01*
X146213562Y-100884132D01*
X146188689Y-100868386D01*
X146249538Y-100868386D01*
X146250233Y-100873692D01*
X146268853Y-100898708D01*
X146277897Y-100900492D01*
X146276532Y-100880323D01*
X146271631Y-100869287D01*
X146978378Y-100869287D01*
X146987882Y-100918289D01*
X147007024Y-100942931D01*
X147020878Y-100943585D01*
X147040635Y-100924884D01*
X147041556Y-100918385D01*
X147089692Y-100918385D01*
X147099462Y-100928154D01*
X147109231Y-100918385D01*
X147099462Y-100908616D01*
X147089692Y-100918385D01*
X147041556Y-100918385D01*
X147045043Y-100893769D01*
X147029039Y-100867567D01*
X147014245Y-100853759D01*
X147016193Y-100850000D01*
X147079923Y-100850000D01*
X147083933Y-100855847D01*
X147100615Y-100869539D01*
X147102565Y-100869031D01*
X147109231Y-100850000D01*
X147108436Y-100844645D01*
X147102244Y-100840231D01*
X147226462Y-100840231D01*
X147229787Y-100853885D01*
X147255156Y-100869539D01*
X147269711Y-100865375D01*
X147272519Y-100840009D01*
X147269931Y-100821682D01*
X147290694Y-100821803D01*
X147311626Y-100824989D01*
X147333410Y-100810087D01*
X147327749Y-100780683D01*
X147313839Y-100765109D01*
X147280192Y-100735262D01*
X147269868Y-100727426D01*
X147250305Y-100719345D01*
X147246000Y-100740146D01*
X147249801Y-100756004D01*
X147274155Y-100771846D01*
X147286091Y-100773488D01*
X147315192Y-100792692D01*
X147318129Y-100802101D01*
X147301691Y-100809915D01*
X147281786Y-100807856D01*
X147239592Y-100813841D01*
X147226462Y-100840231D01*
X147102244Y-100840231D01*
X147088539Y-100830462D01*
X147081472Y-100831996D01*
X147079923Y-100850000D01*
X147016193Y-100850000D01*
X147023785Y-100835346D01*
X147024615Y-100834748D01*
X147038848Y-100805375D01*
X147043324Y-100757237D01*
X147041652Y-100732629D01*
X147032606Y-100699088D01*
X147016699Y-100704006D01*
X146994124Y-100747423D01*
X146991907Y-100753121D01*
X146979418Y-100809654D01*
X146978378Y-100869287D01*
X146271631Y-100869287D01*
X146270225Y-100866120D01*
X146255817Y-100850633D01*
X146249538Y-100868386D01*
X146188689Y-100868386D01*
X146188258Y-100868113D01*
X146158964Y-100857560D01*
X146123029Y-100869132D01*
X146114885Y-100874676D01*
X146088746Y-100875434D01*
X146077530Y-100854312D01*
X146091025Y-100824852D01*
X146091767Y-100823949D01*
X146138820Y-100823949D01*
X146141684Y-100826287D01*
X146164872Y-100823949D01*
X146167928Y-100818072D01*
X146151846Y-100810923D01*
X146141503Y-100812333D01*
X146138820Y-100823949D01*
X146091767Y-100823949D01*
X146100304Y-100813558D01*
X146112470Y-100782592D01*
X146108965Y-100776132D01*
X146093745Y-100791221D01*
X146075373Y-100809406D01*
X146051060Y-100796106D01*
X146026165Y-100776513D01*
X146001348Y-100779878D01*
X145984057Y-100820557D01*
X145971279Y-100850600D01*
X145954601Y-100858620D01*
X145947071Y-100857779D01*
X145705465Y-100857779D01*
X145711605Y-100840568D01*
X145734951Y-100773234D01*
X145735046Y-100772999D01*
X145761077Y-100772999D01*
X145762611Y-100780066D01*
X145780615Y-100781616D01*
X145786463Y-100777605D01*
X145800154Y-100760924D01*
X145799646Y-100758974D01*
X145780615Y-100752308D01*
X145775260Y-100753103D01*
X145761077Y-100772999D01*
X145735046Y-100772999D01*
X145759603Y-100712087D01*
X145783056Y-100672373D01*
X145810968Y-100645052D01*
X145849000Y-100621081D01*
X145909503Y-100594706D01*
X146019094Y-100576783D01*
X146101231Y-100566642D01*
X146183013Y-100527616D01*
X146202261Y-100515166D01*
X146250238Y-100489135D01*
X146282260Y-100478769D01*
X146283206Y-100478790D01*
X146319066Y-100490020D01*
X146370941Y-100516725D01*
X146424119Y-100551373D01*
X146426614Y-100555612D01*
X146435053Y-100588036D01*
X146443658Y-100640153D01*
X146453894Y-100690586D01*
X146477067Y-100727510D01*
X146523077Y-100756082D01*
X146532120Y-100760351D01*
X146587654Y-100781389D01*
X146631292Y-100790446D01*
X146639465Y-100791191D01*
X146687332Y-100804234D01*
X146743191Y-100828127D01*
X146815259Y-100864870D01*
X146827399Y-100800156D01*
X146828309Y-100795101D01*
X146833059Y-100745343D01*
X146830482Y-100684653D01*
X146819779Y-100604059D01*
X146806363Y-100529244D01*
X147228004Y-100529244D01*
X147231133Y-100548449D01*
X147239808Y-100541048D01*
X147242930Y-100529750D01*
X147240807Y-100517846D01*
X147285077Y-100517846D01*
X147286487Y-100528190D01*
X147298103Y-100530872D01*
X147300441Y-100528008D01*
X147298103Y-100504821D01*
X147292226Y-100501764D01*
X147285077Y-100517846D01*
X147240807Y-100517846D01*
X147238266Y-100503600D01*
X147231596Y-100503902D01*
X147228004Y-100529244D01*
X146806363Y-100529244D01*
X146802567Y-100508077D01*
X147187385Y-100508077D01*
X147197154Y-100517846D01*
X147206923Y-100508077D01*
X147197154Y-100498308D01*
X147187385Y-100508077D01*
X146802567Y-100508077D01*
X146800149Y-100494590D01*
X146799420Y-100490734D01*
X146792145Y-100419459D01*
X146795514Y-100408184D01*
X146842409Y-100408184D01*
X146854078Y-100420154D01*
X146859749Y-100419403D01*
X146874769Y-100400616D01*
X146874545Y-100396194D01*
X146866153Y-100381077D01*
X146863019Y-100381976D01*
X146845462Y-100400616D01*
X146842409Y-100408184D01*
X146795514Y-100408184D01*
X146803264Y-100382244D01*
X146811834Y-100371308D01*
X147050615Y-100371308D01*
X147052747Y-100384781D01*
X147069541Y-100400616D01*
X147077626Y-100396467D01*
X147077377Y-100381077D01*
X147131854Y-100381077D01*
X147134578Y-100407955D01*
X147141709Y-100405500D01*
X147144290Y-100396656D01*
X147141709Y-100356654D01*
X147134925Y-100353340D01*
X147131854Y-100381077D01*
X147077377Y-100381077D01*
X147077219Y-100371308D01*
X147070893Y-100357278D01*
X147058294Y-100342000D01*
X147054796Y-100345240D01*
X147050615Y-100371308D01*
X146811834Y-100371308D01*
X146813523Y-100369153D01*
X146802900Y-100361539D01*
X146786579Y-100352557D01*
X146768591Y-100311694D01*
X146759691Y-100255705D01*
X146934927Y-100255705D01*
X146938056Y-100274911D01*
X146946732Y-100267510D01*
X146949853Y-100256211D01*
X146945189Y-100230061D01*
X146938519Y-100230364D01*
X146934927Y-100255705D01*
X146759691Y-100255705D01*
X146757875Y-100244281D01*
X146755392Y-100157456D01*
X146762103Y-100058363D01*
X146763990Y-100040981D01*
X146767185Y-100000077D01*
X146933385Y-100000077D01*
X146943154Y-100009846D01*
X146952923Y-100000077D01*
X146943154Y-99990308D01*
X146933385Y-100000077D01*
X146767185Y-100000077D01*
X146770131Y-99962371D01*
X146770346Y-99951231D01*
X146913846Y-99951231D01*
X146914641Y-99956586D01*
X146934538Y-99970769D01*
X146941605Y-99969235D01*
X146943154Y-99951231D01*
X147089692Y-99951231D01*
X147091102Y-99961575D01*
X147102718Y-99964257D01*
X147105056Y-99961393D01*
X147102718Y-99938205D01*
X147096841Y-99935149D01*
X147089692Y-99951231D01*
X146943154Y-99951231D01*
X146939144Y-99945384D01*
X146922462Y-99931692D01*
X146920512Y-99932200D01*
X146913846Y-99951231D01*
X146770346Y-99951231D01*
X146771701Y-99881080D01*
X146770504Y-99847026D01*
X146998513Y-99847026D01*
X147001376Y-99849364D01*
X147024564Y-99847026D01*
X147027621Y-99841149D01*
X147011538Y-99834000D01*
X147001195Y-99835410D01*
X146998513Y-99847026D01*
X146770504Y-99847026D01*
X146768432Y-99788110D01*
X146762035Y-99701348D01*
X146912804Y-99701348D01*
X146914488Y-99760665D01*
X146932787Y-99802141D01*
X146944385Y-99806877D01*
X146949791Y-99804692D01*
X146992000Y-99804692D01*
X147001769Y-99814462D01*
X147011538Y-99804692D01*
X147001769Y-99794923D01*
X146992000Y-99804692D01*
X146949791Y-99804692D01*
X146973058Y-99795289D01*
X146999704Y-99766750D01*
X147011239Y-99732819D01*
X147007428Y-99719256D01*
X146992000Y-99736308D01*
X146983727Y-99748488D01*
X146972527Y-99759441D01*
X146974969Y-99745530D01*
X146988725Y-99714296D01*
X147011465Y-99673280D01*
X147040943Y-99612440D01*
X147047175Y-99547672D01*
X147020200Y-99486655D01*
X146994862Y-99455612D01*
X146969213Y-99446826D01*
X146940818Y-99469729D01*
X146929577Y-99494605D01*
X146945597Y-99531191D01*
X146956512Y-99548246D01*
X146960264Y-99577836D01*
X146939320Y-99617783D01*
X146927125Y-99641422D01*
X146912804Y-99701348D01*
X146762035Y-99701348D01*
X146760053Y-99674467D01*
X146746294Y-99531154D01*
X146741109Y-99483447D01*
X146731283Y-99428961D01*
X146722818Y-99413923D01*
X146933385Y-99413923D01*
X146943154Y-99423692D01*
X146952923Y-99413923D01*
X146943154Y-99404154D01*
X146933385Y-99413923D01*
X146722818Y-99413923D01*
X146714248Y-99398698D01*
X146683285Y-99383448D01*
X146631677Y-99373996D01*
X146610867Y-99370336D01*
X146566853Y-99356312D01*
X146982906Y-99356312D01*
X147001769Y-99384616D01*
X147010740Y-99393983D01*
X147043426Y-99418754D01*
X147064154Y-99421176D01*
X147064455Y-99399269D01*
X147059205Y-99390125D01*
X147033519Y-99379731D01*
X147025915Y-99380208D01*
X147011538Y-99365077D01*
X147010310Y-99358733D01*
X146988972Y-99345539D01*
X146982906Y-99356312D01*
X146566853Y-99356312D01*
X146560915Y-99354420D01*
X146542615Y-99334704D01*
X146540035Y-99319113D01*
X146516468Y-99294320D01*
X146481914Y-99297982D01*
X146471601Y-99308455D01*
X146485317Y-99326814D01*
X146488397Y-99332731D01*
X146465681Y-99340032D01*
X146414134Y-99343192D01*
X146381742Y-99342449D01*
X146297423Y-99330992D01*
X146227641Y-99308450D01*
X146201008Y-99289792D01*
X146954896Y-99289792D01*
X146982231Y-99299949D01*
X146995829Y-99296956D01*
X147011538Y-99273898D01*
X147010909Y-99266553D01*
X146994278Y-99248354D01*
X146965949Y-99260872D01*
X146962438Y-99264627D01*
X146954896Y-99289792D01*
X146201008Y-99289792D01*
X146184551Y-99278263D01*
X146183263Y-99277154D01*
X146444923Y-99277154D01*
X146454692Y-99286923D01*
X146464462Y-99277154D01*
X146454692Y-99267385D01*
X146444923Y-99277154D01*
X146183263Y-99277154D01*
X146173826Y-99269025D01*
X146158500Y-99282039D01*
X146141756Y-99303527D01*
X146125026Y-99302256D01*
X146125242Y-99277154D01*
X146127924Y-99262059D01*
X146123840Y-99257616D01*
X146405846Y-99257616D01*
X146415615Y-99267385D01*
X146425385Y-99257616D01*
X146415615Y-99247846D01*
X146405846Y-99257616D01*
X146123840Y-99257616D01*
X146114860Y-99247846D01*
X146105792Y-99250337D01*
X146093231Y-99274712D01*
X146091860Y-99282402D01*
X146067113Y-99304347D01*
X146021748Y-99315163D01*
X145969464Y-99313097D01*
X145923955Y-99296393D01*
X145892017Y-99279808D01*
X145878273Y-99281588D01*
X145869766Y-99287745D01*
X145831944Y-99295212D01*
X145774115Y-99299121D01*
X145735612Y-99301271D01*
X145672513Y-99310013D01*
X145630687Y-99322586D01*
X145628848Y-99323437D01*
X145591080Y-99330522D01*
X145517161Y-99336390D01*
X145409714Y-99340927D01*
X145271363Y-99344017D01*
X145104729Y-99345547D01*
X145007781Y-99346260D01*
X144874599Y-99348328D01*
X144754799Y-99351429D01*
X144654803Y-99355344D01*
X144581037Y-99359856D01*
X144539923Y-99364745D01*
X144484111Y-99377376D01*
X144390982Y-99400737D01*
X144325085Y-99421475D01*
X144278696Y-99441870D01*
X144265120Y-99447605D01*
X144216588Y-99456363D01*
X144141059Y-99458178D01*
X144032758Y-99453319D01*
X143832204Y-99440479D01*
X143818739Y-99505355D01*
X143813260Y-99544590D01*
X143806828Y-99615897D01*
X143800813Y-99706130D01*
X143796019Y-99804692D01*
X143792171Y-99886445D01*
X143784817Y-100003671D01*
X143775789Y-100118134D01*
X143765800Y-100222580D01*
X143755564Y-100309755D01*
X143745793Y-100372405D01*
X143737201Y-100403278D01*
X143734925Y-100408499D01*
X143711110Y-100408499D01*
X143713062Y-100400201D01*
X143713498Y-100366423D01*
X143711000Y-100360282D01*
X143687863Y-100342631D01*
X143662578Y-100358487D01*
X143661049Y-100362271D01*
X143659072Y-100397135D01*
X143332532Y-100397135D01*
X143332860Y-100297202D01*
X143672267Y-100297202D01*
X143677202Y-100317875D01*
X143699769Y-100322462D01*
X143718679Y-100313190D01*
X143729077Y-100274769D01*
X143727951Y-100255215D01*
X143716586Y-100222055D01*
X143699006Y-100218752D01*
X143682719Y-100249412D01*
X143682542Y-100250072D01*
X143672267Y-100297202D01*
X143332860Y-100297202D01*
X143332876Y-100292218D01*
X143334486Y-100178318D01*
X143337352Y-100079147D01*
X143338153Y-100064180D01*
X143678638Y-100064180D01*
X143678957Y-100082051D01*
X143686791Y-100109305D01*
X143700344Y-100106335D01*
X143713862Y-100077891D01*
X143721590Y-100028724D01*
X143721599Y-100028531D01*
X143722885Y-99987818D01*
X143721906Y-99971069D01*
X143710892Y-99975150D01*
X143688344Y-100008000D01*
X143678638Y-100064180D01*
X143338153Y-100064180D01*
X143341519Y-100001264D01*
X143345959Y-99961000D01*
X143670462Y-99961000D01*
X143680231Y-99970769D01*
X143690000Y-99961000D01*
X143680231Y-99951231D01*
X143670462Y-99961000D01*
X143345959Y-99961000D01*
X143347036Y-99951231D01*
X143351996Y-99926951D01*
X143356345Y-99911177D01*
X143614777Y-99911177D01*
X143620100Y-99921727D01*
X143639642Y-99932738D01*
X143652388Y-99917527D01*
X143651373Y-99911985D01*
X143630408Y-99895546D01*
X143620923Y-99894509D01*
X143614777Y-99911177D01*
X143356345Y-99911177D01*
X143362898Y-99887409D01*
X143661807Y-99887409D01*
X143685708Y-99909857D01*
X143702266Y-99917066D01*
X143718700Y-99910111D01*
X143725344Y-99871601D01*
X143725885Y-99860025D01*
X143718289Y-99822015D01*
X143697945Y-99818880D01*
X143670901Y-99852718D01*
X143670239Y-99853965D01*
X143661807Y-99887409D01*
X143362898Y-99887409D01*
X143367023Y-99872449D01*
X143381705Y-99839741D01*
X143388506Y-99827035D01*
X143386653Y-99794112D01*
X143385225Y-99791159D01*
X143382154Y-99776244D01*
X143673247Y-99776244D01*
X143685299Y-99792363D01*
X143711566Y-99781172D01*
X143720814Y-99768678D01*
X143712591Y-99747964D01*
X143704008Y-99744883D01*
X143679624Y-99756828D01*
X143673247Y-99776244D01*
X143382154Y-99776244D01*
X143377575Y-99754005D01*
X143370591Y-99687326D01*
X143369299Y-99667923D01*
X143494615Y-99667923D01*
X143504385Y-99677692D01*
X143514154Y-99667923D01*
X143504385Y-99658154D01*
X143494615Y-99667923D01*
X143369299Y-99667923D01*
X143367570Y-99641970D01*
X143673987Y-99641970D01*
X143677071Y-99657089D01*
X143693856Y-99686944D01*
X143713030Y-99684546D01*
X143724580Y-99648587D01*
X143721626Y-99614878D01*
X143698191Y-99599539D01*
X143679482Y-99606722D01*
X143673987Y-99641970D01*
X143367570Y-99641970D01*
X143364722Y-99599202D01*
X143360422Y-99497714D01*
X143359466Y-99453000D01*
X143709538Y-99453000D01*
X143719308Y-99462769D01*
X143729077Y-99453000D01*
X143719308Y-99443231D01*
X143709538Y-99453000D01*
X143359466Y-99453000D01*
X143358139Y-99390944D01*
X143358153Y-99383434D01*
X143517580Y-99383434D01*
X143542464Y-99381985D01*
X143563470Y-99374335D01*
X143587432Y-99350423D01*
X143588294Y-99347594D01*
X143584225Y-99328005D01*
X143561791Y-99331791D01*
X143531822Y-99357561D01*
X143524471Y-99366698D01*
X143517580Y-99383434D01*
X143358153Y-99383434D01*
X143358257Y-99326000D01*
X144061231Y-99326000D01*
X144067207Y-99350497D01*
X144098710Y-99365077D01*
X144120367Y-99366524D01*
X144167094Y-99376937D01*
X144183665Y-99379901D01*
X144189356Y-99374846D01*
X144393385Y-99374846D01*
X144403154Y-99384616D01*
X144412923Y-99374846D01*
X144403154Y-99365077D01*
X144393385Y-99374846D01*
X144189356Y-99374846D01*
X144198000Y-99367168D01*
X144191595Y-99355039D01*
X144161013Y-99345539D01*
X144139426Y-99340942D01*
X144112780Y-99316231D01*
X144094628Y-99291043D01*
X144071926Y-99292738D01*
X144061231Y-99326000D01*
X143358257Y-99326000D01*
X143358328Y-99286973D01*
X143360818Y-99235876D01*
X143657639Y-99235876D01*
X143669308Y-99247846D01*
X143674980Y-99247096D01*
X143690000Y-99228308D01*
X143689776Y-99223886D01*
X143681384Y-99208769D01*
X143678250Y-99209669D01*
X143660692Y-99228308D01*
X143657639Y-99235876D01*
X143360818Y-99235876D01*
X143362319Y-99205068D01*
X143367254Y-99176857D01*
X145487538Y-99176857D01*
X145490988Y-99184941D01*
X145510659Y-99173926D01*
X145520988Y-99160784D01*
X145521104Y-99159923D01*
X146288615Y-99159923D01*
X146298385Y-99169692D01*
X146303259Y-99164818D01*
X146656571Y-99164818D01*
X146679385Y-99178243D01*
X146710144Y-99187973D01*
X146761854Y-99193779D01*
X146815559Y-99192857D01*
X146857701Y-99185610D01*
X146874718Y-99172439D01*
X146860014Y-99166100D01*
X146815878Y-99160121D01*
X146752602Y-99156545D01*
X146688456Y-99155445D01*
X146657943Y-99157709D01*
X146656571Y-99164818D01*
X146303259Y-99164818D01*
X146308154Y-99159923D01*
X146298385Y-99150154D01*
X146288615Y-99159923D01*
X145521104Y-99159923D01*
X145523685Y-99140710D01*
X145516475Y-99137049D01*
X145497172Y-99148208D01*
X145487538Y-99176857D01*
X143367254Y-99176857D01*
X143374930Y-99132970D01*
X143385471Y-99108771D01*
X144823231Y-99108771D01*
X144826522Y-99132444D01*
X144842769Y-99159923D01*
X144854599Y-99159204D01*
X144855550Y-99155963D01*
X144913584Y-99155963D01*
X144916038Y-99163094D01*
X144924883Y-99165675D01*
X144964885Y-99163094D01*
X144968199Y-99156310D01*
X144940462Y-99153239D01*
X144913584Y-99155963D01*
X144855550Y-99155963D01*
X144857254Y-99150154D01*
X145350769Y-99150154D01*
X145351337Y-99154824D01*
X145370308Y-99169692D01*
X145374978Y-99169125D01*
X145389846Y-99150154D01*
X145389278Y-99145484D01*
X145370308Y-99130616D01*
X145365637Y-99131183D01*
X145350769Y-99150154D01*
X144857254Y-99150154D01*
X144862308Y-99132922D01*
X144859016Y-99109248D01*
X144854321Y-99101308D01*
X145389846Y-99101308D01*
X145399615Y-99111077D01*
X145409385Y-99101308D01*
X145399615Y-99091539D01*
X145487538Y-99091539D01*
X145488948Y-99101882D01*
X145500564Y-99104564D01*
X145502902Y-99101701D01*
X145500892Y-99081769D01*
X145624308Y-99081769D01*
X145634077Y-99091539D01*
X145751308Y-99091539D01*
X145752881Y-99103734D01*
X145780615Y-99111077D01*
X145803787Y-99106776D01*
X145805989Y-99101308D01*
X146581692Y-99101308D01*
X146591462Y-99111077D01*
X146601231Y-99101308D01*
X146591462Y-99091539D01*
X146581692Y-99101308D01*
X145805989Y-99101308D01*
X145809923Y-99091539D01*
X145805918Y-99086146D01*
X145800153Y-99082923D01*
X146288615Y-99082923D01*
X146291481Y-99096866D01*
X146308473Y-99101111D01*
X146314638Y-99095744D01*
X146317089Y-99070650D01*
X146315028Y-99067631D01*
X146777077Y-99067631D01*
X146779470Y-99076882D01*
X146801838Y-99096145D01*
X146832287Y-99103497D01*
X146851642Y-99092535D01*
X146855010Y-99086203D01*
X146876438Y-99082801D01*
X146882946Y-99085315D01*
X146894308Y-99072000D01*
X146895638Y-99064749D01*
X146912993Y-99061704D01*
X146919265Y-99067647D01*
X146922967Y-99097049D01*
X146920650Y-99109435D01*
X146928191Y-99141104D01*
X146946703Y-99163257D01*
X146966515Y-99161567D01*
X146970934Y-99153795D01*
X146961635Y-99140385D01*
X147285077Y-99140385D01*
X147294846Y-99150154D01*
X147304615Y-99140385D01*
X147294846Y-99130616D01*
X147285077Y-99140385D01*
X146961635Y-99140385D01*
X146958905Y-99136448D01*
X146949985Y-99130606D01*
X146945141Y-99103176D01*
X146946221Y-99099849D01*
X146939081Y-99068176D01*
X146930738Y-99062231D01*
X147128769Y-99062231D01*
X147138538Y-99072000D01*
X147148308Y-99062231D01*
X147138538Y-99052462D01*
X147128769Y-99062231D01*
X146930738Y-99062231D01*
X146910597Y-99047878D01*
X146876836Y-99051185D01*
X146857908Y-99058106D01*
X146813991Y-99057557D01*
X146792473Y-99055653D01*
X146777077Y-99067631D01*
X146315028Y-99067631D01*
X146311973Y-99063155D01*
X146295054Y-99054693D01*
X146288615Y-99082923D01*
X145800153Y-99082923D01*
X145780615Y-99072000D01*
X145775388Y-99072762D01*
X145751308Y-99091539D01*
X145634077Y-99091539D01*
X145643846Y-99081769D01*
X145634077Y-99072000D01*
X145624308Y-99081769D01*
X145500892Y-99081769D01*
X145500564Y-99078513D01*
X145494687Y-99075456D01*
X145487538Y-99091539D01*
X145399615Y-99091539D01*
X145389846Y-99101308D01*
X144854321Y-99101308D01*
X144842769Y-99081769D01*
X144830939Y-99082488D01*
X144823231Y-99108771D01*
X143385471Y-99108771D01*
X143397971Y-99080074D01*
X143399904Y-99076881D01*
X143403721Y-99068744D01*
X145663385Y-99068744D01*
X145663457Y-99071883D01*
X145670964Y-99086625D01*
X145684438Y-99074137D01*
X145691444Y-99052462D01*
X145897846Y-99052462D01*
X145899256Y-99062805D01*
X145910872Y-99065487D01*
X145913210Y-99062624D01*
X145910872Y-99039436D01*
X145904995Y-99036379D01*
X145897846Y-99052462D01*
X145691444Y-99052462D01*
X145694785Y-99042127D01*
X145696175Y-99029095D01*
X145694220Y-99013385D01*
X145691366Y-99013766D01*
X145672307Y-99033628D01*
X145663385Y-99068744D01*
X143403721Y-99068744D01*
X143429790Y-99013173D01*
X143433959Y-98999655D01*
X144483738Y-98999655D01*
X144486192Y-99006786D01*
X144495036Y-99009367D01*
X144535038Y-99006786D01*
X144537051Y-99002667D01*
X144596893Y-99002667D01*
X144617062Y-99001301D01*
X144632059Y-98994535D01*
X144647385Y-98981987D01*
X144641969Y-98974708D01*
X144619574Y-98977426D01*
X144598677Y-98993623D01*
X144596893Y-99002667D01*
X144537051Y-99002667D01*
X144538353Y-99000002D01*
X144510615Y-98996931D01*
X144483738Y-98999655D01*
X143433959Y-98999655D01*
X143450823Y-98944978D01*
X143454686Y-98930346D01*
X143475376Y-98930346D01*
X143479482Y-98957760D01*
X143494615Y-98974308D01*
X143499186Y-98973899D01*
X143511091Y-98962338D01*
X146803332Y-98962338D01*
X146815001Y-98974308D01*
X146820672Y-98973557D01*
X146835692Y-98954769D01*
X146835468Y-98950348D01*
X146827076Y-98935231D01*
X146823942Y-98936130D01*
X146806385Y-98954769D01*
X146803332Y-98962338D01*
X143511091Y-98962338D01*
X143513855Y-98959654D01*
X143511170Y-98948429D01*
X143509436Y-98945000D01*
X145194462Y-98945000D01*
X145204231Y-98954769D01*
X145214000Y-98945000D01*
X145204231Y-98935231D01*
X145194462Y-98945000D01*
X143509436Y-98945000D01*
X143494615Y-98915692D01*
X143489954Y-98908816D01*
X143478461Y-98901797D01*
X143475376Y-98930346D01*
X143454686Y-98930346D01*
X143457575Y-98919402D01*
X143476893Y-98886385D01*
X146601231Y-98886385D01*
X146611000Y-98896154D01*
X146620769Y-98886385D01*
X146611000Y-98876616D01*
X146601231Y-98886385D01*
X143476893Y-98886385D01*
X143494040Y-98857077D01*
X143514154Y-98857077D01*
X143514722Y-98861747D01*
X143533692Y-98876616D01*
X143538362Y-98876048D01*
X143553231Y-98857077D01*
X143552663Y-98852407D01*
X143533692Y-98837539D01*
X143529022Y-98838106D01*
X143514154Y-98857077D01*
X143494040Y-98857077D01*
X143498702Y-98849108D01*
X143566552Y-98806837D01*
X143659747Y-98793587D01*
X143686910Y-98793144D01*
X143731150Y-98787443D01*
X143748615Y-98777158D01*
X143753851Y-98768448D01*
X143784441Y-98760207D01*
X143829499Y-98761087D01*
X143874061Y-98770178D01*
X143903160Y-98786568D01*
X143915087Y-98797026D01*
X143951781Y-98812805D01*
X144011503Y-98825155D01*
X144098259Y-98834594D01*
X144216056Y-98841642D01*
X144368900Y-98846815D01*
X144397120Y-98847565D01*
X144493602Y-98850519D01*
X144574269Y-98853580D01*
X144631370Y-98856428D01*
X144657154Y-98858742D01*
X144685980Y-98859495D01*
X144741600Y-98853823D01*
X144807486Y-98843484D01*
X144868912Y-98830827D01*
X144911154Y-98818203D01*
X144928850Y-98812361D01*
X144983717Y-98800619D01*
X145049748Y-98791518D01*
X145094936Y-98788554D01*
X145157423Y-98795125D01*
X145212115Y-98819710D01*
X145222278Y-98825538D01*
X145267767Y-98843660D01*
X145298120Y-98843620D01*
X145306102Y-98841146D01*
X145348456Y-98835725D01*
X145418952Y-98830621D01*
X145510109Y-98826315D01*
X145614446Y-98823288D01*
X145616922Y-98823237D01*
X145867465Y-98817546D01*
X146083796Y-98811501D01*
X146265104Y-98805138D01*
X146410579Y-98798494D01*
X146519409Y-98791608D01*
X146590784Y-98784514D01*
X146623893Y-98777252D01*
X146666284Y-98764272D01*
X146722062Y-98758012D01*
X146778424Y-98752260D01*
X146825923Y-98739846D01*
X146869978Y-98725582D01*
X146929217Y-98727871D01*
G37*
G36*
X152923702Y-88315866D02*
G01*
X152954541Y-88324407D01*
X153025086Y-88339217D01*
X153081131Y-88345173D01*
X153089813Y-88345522D01*
X153141579Y-88356675D01*
X153211803Y-88384694D01*
X153303715Y-88431185D01*
X153420545Y-88497754D01*
X153565524Y-88586007D01*
X153688232Y-88666529D01*
X153804680Y-88754837D01*
X153911365Y-88851546D01*
X154017752Y-88965304D01*
X154133308Y-89104760D01*
X154289615Y-89301500D01*
X154485000Y-89303630D01*
X154537581Y-89304578D01*
X154619573Y-89307606D01*
X154683742Y-89311905D01*
X154719462Y-89316877D01*
X154724973Y-89317769D01*
X154765316Y-89320371D01*
X154838800Y-89323020D01*
X154941040Y-89325626D01*
X155067650Y-89328100D01*
X155214244Y-89330352D01*
X155376438Y-89332293D01*
X155549846Y-89333833D01*
X155584102Y-89334103D01*
X155764881Y-89336083D01*
X155940051Y-89338874D01*
X156104034Y-89342332D01*
X156251252Y-89346308D01*
X156376128Y-89350655D01*
X156473083Y-89355226D01*
X156536538Y-89359874D01*
X156586468Y-89364206D01*
X156692144Y-89370575D01*
X156818018Y-89375726D01*
X156952403Y-89379218D01*
X157083615Y-89380606D01*
X157150891Y-89380713D01*
X157296910Y-89380975D01*
X157446404Y-89381277D01*
X157585187Y-89381589D01*
X157699077Y-89381882D01*
X157747719Y-89381882D01*
X157918327Y-89379615D01*
X158072900Y-89374049D01*
X158205690Y-89365527D01*
X158310947Y-89354392D01*
X158382923Y-89340989D01*
X158383940Y-89340715D01*
X158453758Y-89325140D01*
X158488907Y-89325514D01*
X158490385Y-89341846D01*
X158492134Y-89351008D01*
X158517852Y-89359244D01*
X158558482Y-89361097D01*
X158599936Y-89356289D01*
X158628131Y-89344546D01*
X158638887Y-89337137D01*
X158689790Y-89317076D01*
X158765487Y-89297867D01*
X158855700Y-89281848D01*
X158950150Y-89271353D01*
X158999886Y-89268380D01*
X159058140Y-89270028D01*
X159101580Y-89282031D01*
X159144926Y-89307090D01*
X159168558Y-89325626D01*
X159221738Y-89380312D01*
X159267764Y-89442401D01*
X159304161Y-89518531D01*
X159312910Y-89600215D01*
X159284224Y-89677596D01*
X159217403Y-89755007D01*
X159139617Y-89826244D01*
X158589801Y-89829074D01*
X158444737Y-89830202D01*
X158286785Y-89832733D01*
X158162825Y-89836578D01*
X158069983Y-89841864D01*
X158005383Y-89848724D01*
X157966148Y-89857287D01*
X157936999Y-89865807D01*
X157867990Y-89872987D01*
X157781041Y-89863627D01*
X157733813Y-89856092D01*
X157671198Y-89847797D01*
X157630692Y-89844563D01*
X157616923Y-89844202D01*
X157566336Y-89842270D01*
X157484752Y-89838858D01*
X157377089Y-89834181D01*
X157248271Y-89828454D01*
X157103216Y-89821892D01*
X156946846Y-89814710D01*
X156849176Y-89810362D01*
X156518450Y-89798277D01*
X156206412Y-89791000D01*
X155917078Y-89788540D01*
X155654467Y-89790910D01*
X155422596Y-89798118D01*
X155225480Y-89810176D01*
X155135316Y-89816656D01*
X155008049Y-89823715D01*
X154885075Y-89828528D01*
X154783692Y-89830308D01*
X154780268Y-89830305D01*
X154706835Y-89829451D01*
X154654185Y-89830448D01*
X154621336Y-89838251D01*
X154607302Y-89857811D01*
X154611100Y-89894083D01*
X154631745Y-89952018D01*
X154668255Y-90036570D01*
X154719644Y-90152692D01*
X154724862Y-90164622D01*
X154764059Y-90255267D01*
X154797725Y-90334852D01*
X154822423Y-90395157D01*
X154834718Y-90427962D01*
X154838927Y-90438902D01*
X154865034Y-90462946D01*
X154917927Y-90471432D01*
X154927365Y-90471872D01*
X154974411Y-90476851D01*
X154998852Y-90484186D01*
X155004869Y-90486859D01*
X155030279Y-90477730D01*
X155049082Y-90466297D01*
X155088939Y-90452265D01*
X155124289Y-90448320D01*
X155139538Y-90457368D01*
X155151656Y-90469011D01*
X155188385Y-90475077D01*
X155220488Y-90471238D01*
X155237231Y-90459590D01*
X155251608Y-90451998D01*
X155293317Y-90446911D01*
X155349928Y-90445253D01*
X155408833Y-90446981D01*
X155457424Y-90452052D01*
X155483093Y-90460423D01*
X155501623Y-90469702D01*
X155545476Y-90474723D01*
X155590975Y-90469762D01*
X155618231Y-90455539D01*
X155624426Y-90451192D01*
X155661894Y-90443325D01*
X155722352Y-90438894D01*
X155794593Y-90437900D01*
X155867407Y-90440343D01*
X155929587Y-90446223D01*
X155969923Y-90455539D01*
X155989395Y-90465090D01*
X155987634Y-90472444D01*
X155950385Y-90477020D01*
X155940689Y-90477665D01*
X155877446Y-90478855D01*
X155808731Y-90476781D01*
X155789087Y-90476124D01*
X155743276Y-90480338D01*
X155725692Y-90492338D01*
X155725937Y-90493697D01*
X155748758Y-90503869D01*
X155805531Y-90510218D01*
X155891769Y-90512207D01*
X155921802Y-90511853D01*
X156001580Y-90507372D01*
X156048029Y-90498262D01*
X156056709Y-90488103D01*
X156220667Y-90488103D01*
X156223530Y-90490441D01*
X156246718Y-90488103D01*
X156249775Y-90482226D01*
X156233692Y-90475077D01*
X156223349Y-90476487D01*
X156220667Y-90488103D01*
X156056709Y-90488103D01*
X156059271Y-90485104D01*
X156033423Y-90468479D01*
X156032877Y-90468009D01*
X156051607Y-90465410D01*
X156103929Y-90462944D01*
X156185191Y-90460716D01*
X156290738Y-90458833D01*
X156415918Y-90457402D01*
X156556077Y-90456528D01*
X156693258Y-90455685D01*
X156848259Y-90454032D01*
X156995338Y-90451773D01*
X157126708Y-90449050D01*
X157234580Y-90446005D01*
X157311163Y-90442780D01*
X157417051Y-90439233D01*
X157531314Y-90442447D01*
X157614911Y-90454096D01*
X157682455Y-90465476D01*
X157791607Y-90458874D01*
X157800547Y-90457328D01*
X157855314Y-90453902D01*
X157939467Y-90453576D01*
X158045540Y-90455937D01*
X158166071Y-90460574D01*
X158293595Y-90467076D01*
X158420647Y-90475029D01*
X158539765Y-90484023D01*
X158643482Y-90493646D01*
X158724336Y-90503484D01*
X158774862Y-90513128D01*
X158813334Y-90526657D01*
X158883254Y-90573729D01*
X158926300Y-90645485D01*
X158945578Y-90746167D01*
X158948419Y-90798897D01*
X158944771Y-90847668D01*
X158928537Y-90884795D01*
X158895363Y-90925862D01*
X158863588Y-90958616D01*
X158829368Y-90980649D01*
X158784284Y-90990938D01*
X158714237Y-90994853D01*
X158661574Y-90998701D01*
X158567519Y-91013344D01*
X158485781Y-91034361D01*
X158379973Y-91070326D01*
X158298410Y-91022769D01*
X158281587Y-91013247D01*
X158253117Y-90999658D01*
X158220847Y-90989386D01*
X158178899Y-90981738D01*
X158121395Y-90976018D01*
X158042457Y-90971532D01*
X157936208Y-90967586D01*
X157796769Y-90963484D01*
X157777202Y-90962952D01*
X157639398Y-90959835D01*
X157476863Y-90957044D01*
X157294153Y-90954591D01*
X157095828Y-90952490D01*
X156886444Y-90950753D01*
X156670558Y-90949392D01*
X156452729Y-90948422D01*
X156237513Y-90947853D01*
X156029468Y-90947700D01*
X155833152Y-90947974D01*
X155653123Y-90948689D01*
X155493937Y-90949856D01*
X155360152Y-90951490D01*
X155256326Y-90953602D01*
X155187016Y-90956205D01*
X154970724Y-90968418D01*
X154973747Y-91166890D01*
X154975165Y-91225092D01*
X154981020Y-91314214D01*
X154991732Y-91374750D01*
X155008262Y-91413566D01*
X155017975Y-91439472D01*
X155031181Y-91504020D01*
X155044870Y-91599653D01*
X155058635Y-91721891D01*
X155072066Y-91866258D01*
X155084756Y-92028277D01*
X155096295Y-92203468D01*
X155106274Y-92387356D01*
X155114286Y-92575462D01*
X155116427Y-92632644D01*
X155120986Y-92735646D01*
X155126106Y-92809538D01*
X155132882Y-92861204D01*
X155142409Y-92897526D01*
X155155779Y-92925388D01*
X155174087Y-92951670D01*
X155181974Y-92961429D01*
X155236352Y-93014097D01*
X155297356Y-93057351D01*
X155351370Y-93097621D01*
X155400454Y-93169604D01*
X155413495Y-93197186D01*
X155457119Y-93254474D01*
X155525450Y-93308576D01*
X155625204Y-93365343D01*
X155687059Y-93390062D01*
X155732320Y-93387923D01*
X155757179Y-93353523D01*
X155764769Y-93285060D01*
X155769206Y-93238268D01*
X155790861Y-93184585D01*
X155836673Y-93122115D01*
X155868262Y-93086324D01*
X155909445Y-93045480D01*
X155937118Y-93025143D01*
X155955212Y-93022183D01*
X156003065Y-93040038D01*
X156055960Y-93088367D01*
X156108386Y-93162743D01*
X156121376Y-93185537D01*
X156145559Y-93239493D01*
X156153517Y-93292019D01*
X156149301Y-93362942D01*
X156148914Y-93366730D01*
X156145022Y-93428335D01*
X156150716Y-93476702D01*
X156169751Y-93527258D01*
X156205881Y-93595434D01*
X156220587Y-93623746D01*
X156255820Y-93700617D01*
X156297314Y-93799686D01*
X156341060Y-93911222D01*
X156383051Y-94025495D01*
X156408182Y-94095810D01*
X156445787Y-94198506D01*
X156479364Y-94287311D01*
X156505991Y-94354547D01*
X156522746Y-94392539D01*
X156547217Y-94452589D01*
X156564779Y-94519539D01*
X156576426Y-94563050D01*
X156602275Y-94591536D01*
X156654094Y-94612808D01*
X156732961Y-94650744D01*
X156783563Y-94708718D01*
X156800308Y-94785472D01*
X156802517Y-94810063D01*
X156824279Y-94868349D01*
X156861956Y-94912407D01*
X156906439Y-94929846D01*
X156937702Y-94946202D01*
X156974851Y-94987925D01*
X157009680Y-95043905D01*
X157034006Y-95103033D01*
X157035536Y-95108670D01*
X157037667Y-95162323D01*
X157011724Y-95219299D01*
X156997662Y-95240062D01*
X156956408Y-95280010D01*
X156905216Y-95292699D01*
X156831901Y-95282407D01*
X156767326Y-95274728D01*
X156708514Y-95283010D01*
X156699338Y-95285755D01*
X156645973Y-95293293D01*
X156565655Y-95298067D01*
X156467681Y-95300190D01*
X156361346Y-95299773D01*
X156255945Y-95296929D01*
X156160775Y-95291768D01*
X156085130Y-95284403D01*
X156038308Y-95274946D01*
X156006211Y-95264745D01*
X155972886Y-95259891D01*
X155932401Y-95262724D01*
X155874561Y-95274053D01*
X155789170Y-95294684D01*
X155759983Y-95294581D01*
X155699556Y-95278083D01*
X155626350Y-95246882D01*
X155551338Y-95205849D01*
X155485489Y-95159855D01*
X155469413Y-95145526D01*
X155436906Y-95097017D01*
X155422241Y-95027539D01*
X155420672Y-95012274D01*
X155411346Y-94934608D01*
X155401240Y-94864785D01*
X155399647Y-94854647D01*
X155397699Y-94807352D01*
X155413178Y-94769723D01*
X155452399Y-94724439D01*
X155468814Y-94708433D01*
X155522331Y-94664826D01*
X155569621Y-94636671D01*
X155580780Y-94631567D01*
X155617137Y-94599244D01*
X155635226Y-94542556D01*
X155644815Y-94477401D01*
X155648192Y-94404397D01*
X155635466Y-94348898D01*
X155603118Y-94298828D01*
X155547625Y-94242111D01*
X155545616Y-94240229D01*
X155493034Y-94193850D01*
X155449944Y-94160865D01*
X155425501Y-94148308D01*
X155402326Y-94136816D01*
X155355585Y-94105489D01*
X155292077Y-94059116D01*
X155218597Y-94002484D01*
X155216326Y-94000692D01*
X155144796Y-93945305D01*
X155085207Y-93901110D01*
X155043721Y-93872549D01*
X155026503Y-93864062D01*
X155023245Y-93876963D01*
X155016940Y-93922063D01*
X155009295Y-93991334D01*
X155001310Y-94076345D01*
X154983520Y-94281227D01*
X155109490Y-94545083D01*
X155143741Y-94618768D01*
X155229326Y-94828589D01*
X155289259Y-95023883D01*
X155326299Y-95213154D01*
X155331300Y-95242841D01*
X155348571Y-95313275D01*
X155368702Y-95367348D01*
X155373918Y-95378397D01*
X155385258Y-95412273D01*
X155392814Y-95456596D01*
X155396841Y-95517077D01*
X155397592Y-95599425D01*
X155395322Y-95709350D01*
X155390285Y-95852561D01*
X155387864Y-95911009D01*
X155383072Y-95992931D01*
X155376110Y-96050069D01*
X155364961Y-96091663D01*
X155347606Y-96126952D01*
X155322029Y-96165176D01*
X155305937Y-96189451D01*
X155263418Y-96266519D01*
X155231832Y-96340927D01*
X155221180Y-96368580D01*
X155181987Y-96445567D01*
X155136035Y-96514015D01*
X155092357Y-96558638D01*
X155020069Y-96613539D01*
X154939094Y-96661319D01*
X154861457Y-96695062D01*
X154799181Y-96707846D01*
X154793049Y-96708125D01*
X154745534Y-96716116D01*
X154676400Y-96732899D01*
X154598355Y-96755461D01*
X154596630Y-96756000D01*
X154512717Y-96780181D01*
X154448079Y-96792049D01*
X154385847Y-96793383D01*
X154309154Y-96785963D01*
X154174919Y-96768996D01*
X154006796Y-96747049D01*
X153873257Y-96728600D01*
X153771749Y-96713276D01*
X153699719Y-96700704D01*
X153654615Y-96690513D01*
X153624153Y-96682166D01*
X153553049Y-96663399D01*
X153478263Y-96644314D01*
X153457703Y-96638606D01*
X153357273Y-96599697D01*
X153239902Y-96540379D01*
X153114705Y-96465975D01*
X152990793Y-96381811D01*
X152877282Y-96293209D01*
X152820054Y-96256048D01*
X152751922Y-96238923D01*
X152701336Y-96227442D01*
X152626636Y-96193883D01*
X152536037Y-96142830D01*
X152436084Y-96078889D01*
X152333319Y-96006668D01*
X152234286Y-95930774D01*
X152145527Y-95855813D01*
X152073587Y-95786392D01*
X152025008Y-95727118D01*
X152005246Y-95696921D01*
X151954557Y-95618181D01*
X151908912Y-95545828D01*
X151885040Y-95512479D01*
X151819344Y-95442717D01*
X151742420Y-95380979D01*
X151682048Y-95337607D01*
X151544906Y-95214564D01*
X151445322Y-95082909D01*
X151438673Y-95072032D01*
X151394715Y-95009036D01*
X151329730Y-94927134D01*
X151241418Y-94823519D01*
X151127475Y-94695385D01*
X151115928Y-94682295D01*
X151063067Y-94617262D01*
X151016923Y-94553875D01*
X151001902Y-94532924D01*
X150970091Y-94497979D01*
X150948538Y-94487025D01*
X150939944Y-94497039D01*
X150927606Y-94544803D01*
X150917592Y-94631480D01*
X150909901Y-94757095D01*
X150904531Y-94921671D01*
X150901480Y-95125231D01*
X150899993Y-95224122D01*
X150896409Y-95349101D01*
X150891345Y-95463692D01*
X150885240Y-95558334D01*
X150878536Y-95623462D01*
X150869214Y-95693825D01*
X150857943Y-95794731D01*
X150850208Y-95882700D01*
X150843805Y-95940109D01*
X150819492Y-96034251D01*
X150773520Y-96137027D01*
X150738573Y-96213909D01*
X150700122Y-96318418D01*
X150672778Y-96415096D01*
X150671540Y-96420640D01*
X150648781Y-96511569D01*
X150622759Y-96586091D01*
X150588286Y-96652680D01*
X150540173Y-96719810D01*
X150473232Y-96795956D01*
X150382276Y-96889592D01*
X150313363Y-96957878D01*
X150223701Y-97041272D01*
X150147766Y-97101722D01*
X150078386Y-97143242D01*
X150008391Y-97169847D01*
X149930609Y-97185552D01*
X149837868Y-97194371D01*
X149808509Y-97196067D01*
X149715855Y-97198896D01*
X149631629Y-97198140D01*
X149571077Y-97193828D01*
X149507627Y-97181751D01*
X149365159Y-97135607D01*
X149222613Y-97066763D01*
X149094749Y-96981789D01*
X149041989Y-96940727D01*
X148999391Y-96910210D01*
X148975426Y-96899405D01*
X148963566Y-96905681D01*
X148957282Y-96926409D01*
X148948977Y-96964002D01*
X148934314Y-97027972D01*
X148917094Y-97101563D01*
X148904077Y-97169403D01*
X148895417Y-97247499D01*
X148895688Y-97306572D01*
X148898186Y-97335816D01*
X148890288Y-97386217D01*
X148858316Y-97430624D01*
X148848945Y-97441369D01*
X148806956Y-97511820D01*
X148770201Y-97608798D01*
X148742772Y-97721984D01*
X148735501Y-97755966D01*
X148713979Y-97811666D01*
X148682782Y-97839252D01*
X148639045Y-97838179D01*
X148579903Y-97807902D01*
X148502491Y-97747876D01*
X148403943Y-97657556D01*
X148402015Y-97655706D01*
X148315985Y-97575162D01*
X148246297Y-97515893D01*
X148182874Y-97470703D01*
X148115641Y-97432400D01*
X148034520Y-97393787D01*
X147983892Y-97371278D01*
X147914590Y-97341521D01*
X147863956Y-97321115D01*
X147840412Y-97313539D01*
X147836650Y-97312678D01*
X147808700Y-97294793D01*
X147769723Y-97261037D01*
X147735166Y-97215755D01*
X147715739Y-97144825D01*
X147722989Y-97054134D01*
X147756732Y-96939116D01*
X147765662Y-96915326D01*
X147791799Y-96859846D01*
X147823268Y-96825681D01*
X147868383Y-96809036D01*
X147935461Y-96806117D01*
X148032815Y-96813129D01*
X148081638Y-96818861D01*
X148181889Y-96842338D01*
X148272540Y-96884133D01*
X148319131Y-96909518D01*
X148368482Y-96933176D01*
X148396263Y-96942308D01*
X148401873Y-96941556D01*
X148417164Y-96920670D01*
X148415583Y-96879581D01*
X148399043Y-96829698D01*
X148369456Y-96782430D01*
X148364512Y-96776357D01*
X148329866Y-96722410D01*
X148309943Y-96672148D01*
X148303931Y-96648666D01*
X148284262Y-96588604D01*
X148258815Y-96522231D01*
X148247145Y-96491720D01*
X148220702Y-96406254D01*
X148203114Y-96326846D01*
X148196317Y-96291265D01*
X148174046Y-96205950D01*
X148146786Y-96125854D01*
X148132367Y-96084910D01*
X148113200Y-96010142D01*
X148105692Y-95949031D01*
X148105491Y-95939115D01*
X148097893Y-95886154D01*
X148082711Y-95852526D01*
X148073234Y-95840045D01*
X148064201Y-95818478D01*
X148054736Y-95782270D01*
X148043513Y-95725418D01*
X148029203Y-95641919D01*
X148010481Y-95525769D01*
X148009217Y-95517997D01*
X147974060Y-95369940D01*
X147921986Y-95236146D01*
X147857623Y-95128644D01*
X147832739Y-95094283D01*
X147804114Y-95048552D01*
X147792887Y-95021157D01*
X147787021Y-95004656D01*
X147762172Y-94963625D01*
X147724503Y-94912443D01*
X147696638Y-94876042D01*
X147667579Y-94833910D01*
X147656308Y-94811305D01*
X147655311Y-94803811D01*
X147637409Y-94760907D01*
X147601183Y-94698257D01*
X147552004Y-94623726D01*
X147495246Y-94545180D01*
X147436282Y-94470484D01*
X147380483Y-94407503D01*
X147315657Y-94342923D01*
X147260855Y-94297235D01*
X147222676Y-94275308D01*
X147363231Y-94275308D01*
X147373000Y-94285077D01*
X147382769Y-94275308D01*
X147373000Y-94265539D01*
X147363231Y-94275308D01*
X147222676Y-94275308D01*
X147211212Y-94268724D01*
X147156853Y-94250454D01*
X147133440Y-94244277D01*
X147046637Y-94219835D01*
X146965409Y-94195150D01*
X146898281Y-94178932D01*
X146816556Y-94172669D01*
X146711409Y-94177166D01*
X146702926Y-94177796D01*
X146612257Y-94180951D01*
X146524622Y-94178605D01*
X146457904Y-94171180D01*
X146373509Y-94164121D01*
X146254747Y-94181639D01*
X146118805Y-94229898D01*
X146087244Y-94248596D01*
X146025724Y-94300607D01*
X145954847Y-94373983D01*
X145881128Y-94461311D01*
X145811079Y-94555180D01*
X145751215Y-94648179D01*
X145746258Y-94656631D01*
X145702908Y-94727812D01*
X145662325Y-94790309D01*
X145632712Y-94831439D01*
X145572355Y-94914490D01*
X145510909Y-95034352D01*
X145472614Y-95167453D01*
X145455587Y-95321027D01*
X145457942Y-95502307D01*
X145463086Y-95584522D01*
X145470248Y-95671819D01*
X145479699Y-95752030D01*
X145493051Y-95836447D01*
X145511913Y-95936364D01*
X145537896Y-96063077D01*
X145554620Y-96153109D01*
X145571813Y-96264454D01*
X145584350Y-96365923D01*
X145585031Y-96372470D01*
X145597116Y-96461361D01*
X145613102Y-96546454D01*
X145629719Y-96610154D01*
X145652425Y-96677857D01*
X145684278Y-96773890D01*
X145707602Y-96846414D01*
X145725054Y-96904035D01*
X145739296Y-96955357D01*
X145752986Y-97008982D01*
X145770315Y-97065042D01*
X145807292Y-97155312D01*
X145849514Y-97236231D01*
X145881588Y-97294801D01*
X145907461Y-97354847D01*
X145917385Y-97396244D01*
X145918136Y-97405861D01*
X145934244Y-97456743D01*
X145964746Y-97510918D01*
X146001356Y-97564076D01*
X146072399Y-97681438D01*
X146121325Y-97785142D01*
X146144878Y-97868719D01*
X146145765Y-97875048D01*
X146157256Y-97927495D01*
X146178121Y-97955238D01*
X146217707Y-97971465D01*
X146261711Y-97992230D01*
X146285132Y-98032552D01*
X146304618Y-98069581D01*
X146361283Y-98105377D01*
X146376741Y-98112135D01*
X146443804Y-98154334D01*
X146476507Y-98206698D01*
X146476581Y-98274507D01*
X146445758Y-98363041D01*
X146407704Y-98425529D01*
X146360228Y-98457474D01*
X146342233Y-98465024D01*
X146296334Y-98498484D01*
X146250522Y-98546161D01*
X146223807Y-98578341D01*
X146191565Y-98607119D01*
X146157649Y-98615540D01*
X146106904Y-98610381D01*
X146091335Y-98607579D01*
X146030163Y-98589094D01*
X145985769Y-98564960D01*
X145980613Y-98560895D01*
X145960420Y-98550118D01*
X145930388Y-98542678D01*
X145884672Y-98538176D01*
X145817431Y-98536213D01*
X145722821Y-98536392D01*
X145595000Y-98538314D01*
X145515286Y-98540168D01*
X145380734Y-98544844D01*
X145250198Y-98551063D01*
X145135366Y-98558240D01*
X145047923Y-98565787D01*
X145004752Y-98570118D01*
X144904349Y-98578133D01*
X144811284Y-98583087D01*
X144741269Y-98584047D01*
X144728279Y-98583846D01*
X144642371Y-98590590D01*
X144584776Y-98610858D01*
X144539693Y-98628659D01*
X144481122Y-98632899D01*
X144434980Y-98627312D01*
X144400934Y-98623962D01*
X144365303Y-98607295D01*
X144323967Y-98564934D01*
X144288185Y-98508992D01*
X144267300Y-98451525D01*
X144256437Y-98390884D01*
X144245020Y-98297284D01*
X144246202Y-98217082D01*
X144261719Y-98138468D01*
X144293310Y-98049633D01*
X144342709Y-97938769D01*
X144364334Y-97889078D01*
X144385095Y-97831752D01*
X144393194Y-97795184D01*
X144399201Y-97761148D01*
X144421937Y-97698851D01*
X144455353Y-97630890D01*
X144492738Y-97572293D01*
X144504057Y-97551979D01*
X144522746Y-97492281D01*
X144536651Y-97415985D01*
X144544185Y-97336606D01*
X144543763Y-97267657D01*
X144533796Y-97222652D01*
X144529825Y-97210771D01*
X144520790Y-97162165D01*
X144510785Y-97086277D01*
X144500771Y-96990838D01*
X144491706Y-96883576D01*
X144489890Y-96859342D01*
X144480075Y-96732050D01*
X144471692Y-96635308D01*
X144463670Y-96561868D01*
X144454937Y-96504481D01*
X144444423Y-96455899D01*
X144431056Y-96408873D01*
X144413765Y-96356154D01*
X144410741Y-96347197D01*
X144375005Y-96238736D01*
X144343501Y-96138590D01*
X144318361Y-96053913D01*
X144301715Y-95991862D01*
X144295692Y-95959592D01*
X144288304Y-95932789D01*
X144267389Y-95881600D01*
X144237690Y-95818349D01*
X144208929Y-95758845D01*
X144187492Y-95711274D01*
X144179075Y-95688080D01*
X144175409Y-95679673D01*
X144153875Y-95644253D01*
X144117389Y-95589133D01*
X144070957Y-95522003D01*
X144046195Y-95486447D01*
X143999934Y-95417664D01*
X143964150Y-95361347D01*
X143945048Y-95327099D01*
X143932260Y-95303182D01*
X143899171Y-95251850D01*
X143857680Y-95194388D01*
X143833411Y-95159211D01*
X143789499Y-95079769D01*
X143759142Y-95004456D01*
X143747419Y-94968839D01*
X143699172Y-94870634D01*
X143626967Y-94781968D01*
X143523773Y-94693557D01*
X143422918Y-94598161D01*
X143330148Y-94472257D01*
X143318234Y-94453642D01*
X143260102Y-94373000D01*
X144198000Y-94373000D01*
X144207769Y-94382769D01*
X144217538Y-94373000D01*
X144207769Y-94363231D01*
X144198000Y-94373000D01*
X143260102Y-94373000D01*
X143247935Y-94356122D01*
X143161306Y-94250679D01*
X143065944Y-94145400D01*
X142969447Y-94048378D01*
X142879413Y-93967700D01*
X142803441Y-93911458D01*
X142779833Y-93896630D01*
X142705529Y-93849033D01*
X142618925Y-93792640D01*
X142551017Y-93747769D01*
X142908462Y-93747769D01*
X142918231Y-93757539D01*
X142928000Y-93747769D01*
X142918231Y-93738000D01*
X142908462Y-93747769D01*
X142551017Y-93747769D01*
X142534273Y-93736705D01*
X142488143Y-93705947D01*
X142381270Y-93635015D01*
X142299396Y-93582147D01*
X142236951Y-93544781D01*
X142188364Y-93520358D01*
X142148065Y-93506318D01*
X142110483Y-93500100D01*
X142070048Y-93499143D01*
X142021189Y-93500888D01*
X142015326Y-93501132D01*
X141947696Y-93504578D01*
X141898556Y-93508218D01*
X141878187Y-93511301D01*
X141878116Y-93511378D01*
X141880928Y-93532511D01*
X141894950Y-93579248D01*
X141916452Y-93641285D01*
X141941704Y-93708318D01*
X141966976Y-93770042D01*
X141988538Y-93816154D01*
X141992530Y-93823829D01*
X142019889Y-93883010D01*
X142038371Y-93933385D01*
X142046164Y-93957037D01*
X142068992Y-94015056D01*
X142097612Y-94079923D01*
X142159524Y-94231832D01*
X142207161Y-94399264D01*
X142237731Y-94581108D01*
X142252464Y-94784799D01*
X142252587Y-95017769D01*
X142251593Y-95052418D01*
X142245637Y-95197200D01*
X142236934Y-95310076D01*
X142224398Y-95396964D01*
X142206943Y-95463778D01*
X142183484Y-95516435D01*
X142152937Y-95560850D01*
X142145820Y-95570270D01*
X142112283Y-95630701D01*
X142088315Y-95697619D01*
X142080352Y-95729755D01*
X142050744Y-95837849D01*
X142019785Y-95924454D01*
X141981427Y-96002334D01*
X141929621Y-96084255D01*
X141858318Y-96182981D01*
X141837133Y-96211057D01*
X141683954Y-96399155D01*
X141497689Y-96605490D01*
X141279126Y-96829181D01*
X141231048Y-96871723D01*
X141126041Y-96946465D01*
X141001455Y-97019406D01*
X140869041Y-97084458D01*
X140740550Y-97135537D01*
X140627734Y-97166555D01*
X140589610Y-97176611D01*
X140519564Y-97202044D01*
X140447822Y-97234148D01*
X140397130Y-97258126D01*
X140331629Y-97285654D01*
X140284035Y-97301678D01*
X140247083Y-97315926D01*
X140235189Y-97331782D01*
X140243897Y-97343678D01*
X140277597Y-97381435D01*
X140333187Y-97440466D01*
X140407167Y-97517178D01*
X140496040Y-97607980D01*
X140596304Y-97709278D01*
X140704462Y-97817483D01*
X140817013Y-97929000D01*
X140966114Y-98081598D01*
X141134384Y-98272295D01*
X141277000Y-98458367D01*
X141293045Y-98480960D01*
X141343832Y-98551950D01*
X141390142Y-98616067D01*
X141431627Y-98673988D01*
X141513508Y-98796512D01*
X141571138Y-98897349D01*
X141606979Y-98980635D01*
X141624764Y-99026328D01*
X141661231Y-99105046D01*
X141701632Y-99180423D01*
X141732738Y-99233701D01*
X141766964Y-99292689D01*
X141789597Y-99332134D01*
X141795556Y-99345460D01*
X141808658Y-99400225D01*
X141814020Y-99465170D01*
X141814845Y-99485004D01*
X141828030Y-99565974D01*
X141852121Y-99641016D01*
X141866475Y-99676943D01*
X141897923Y-99777228D01*
X141927020Y-99896365D01*
X141950600Y-100020539D01*
X141965498Y-100135931D01*
X141966705Y-100152671D01*
X141967338Y-100240162D01*
X141961566Y-100344844D01*
X141950672Y-100455462D01*
X141935936Y-100560763D01*
X141918642Y-100649494D01*
X141900069Y-100710402D01*
X141897260Y-100717165D01*
X141882536Y-100769904D01*
X141882291Y-100809659D01*
X141883516Y-100822033D01*
X141873366Y-100870148D01*
X141848866Y-100936093D01*
X141815056Y-101009445D01*
X141776977Y-101079782D01*
X141739670Y-101136681D01*
X141708174Y-101169718D01*
X141663059Y-101190738D01*
X141606816Y-101201692D01*
X141572576Y-101194070D01*
X141515837Y-101158572D01*
X141460996Y-101103095D01*
X141417333Y-101037651D01*
X141394127Y-100972250D01*
X141391445Y-100956642D01*
X141379078Y-100893455D01*
X141361597Y-100810999D01*
X141341877Y-100723000D01*
X141335575Y-100694624D01*
X141331645Y-100674154D01*
X141872923Y-100674154D01*
X141874333Y-100684498D01*
X141885949Y-100687180D01*
X141888287Y-100684316D01*
X141885949Y-100661128D01*
X141880072Y-100658072D01*
X141872923Y-100674154D01*
X141331645Y-100674154D01*
X141318736Y-100606927D01*
X141879476Y-100606927D01*
X141881772Y-100630901D01*
X141889311Y-100630761D01*
X141904185Y-100607723D01*
X141909354Y-100588981D01*
X141907058Y-100565007D01*
X141899520Y-100565147D01*
X141884646Y-100588185D01*
X141879476Y-100606927D01*
X141318736Y-100606927D01*
X141317658Y-100601311D01*
X141304619Y-100514344D01*
X141298931Y-100449462D01*
X141345385Y-100449462D01*
X141355154Y-100459231D01*
X141364923Y-100449462D01*
X141355154Y-100439692D01*
X141345385Y-100449462D01*
X141298931Y-100449462D01*
X141297012Y-100415191D01*
X141289364Y-100364367D01*
X141278489Y-100338748D01*
X141278272Y-100338584D01*
X141265885Y-100313302D01*
X141250833Y-100260793D01*
X141236324Y-100192210D01*
X141222056Y-100124035D01*
X141197384Y-100022290D01*
X141176170Y-99941462D01*
X141247692Y-99941462D01*
X141257462Y-99951231D01*
X141267231Y-99941462D01*
X141257462Y-99931692D01*
X141247692Y-99941462D01*
X141176170Y-99941462D01*
X141166535Y-99904749D01*
X141132509Y-99782184D01*
X141098305Y-99665369D01*
X141066925Y-99565075D01*
X141041367Y-99492077D01*
X141033413Y-99473123D01*
X140997386Y-99402361D01*
X140956055Y-99335769D01*
X140927059Y-99291395D01*
X140882761Y-99216408D01*
X140841883Y-99140385D01*
X140835348Y-99127801D01*
X140811585Y-99086863D01*
X140780639Y-99040674D01*
X140740306Y-98986680D01*
X140688384Y-98922325D01*
X140622671Y-98845055D01*
X140540965Y-98752314D01*
X140441063Y-98641549D01*
X140320762Y-98510204D01*
X140177862Y-98355725D01*
X140010158Y-98175557D01*
X139989919Y-98153692D01*
X140075385Y-98153692D01*
X140076795Y-98164036D01*
X140088410Y-98166718D01*
X140090749Y-98163854D01*
X140088410Y-98140667D01*
X140082533Y-98137610D01*
X140075385Y-98153692D01*
X139989919Y-98153692D01*
X139969407Y-98131532D01*
X139897800Y-98052480D01*
X139836776Y-97982974D01*
X139791782Y-97929271D01*
X139768266Y-97897630D01*
X139746511Y-97871596D01*
X139695815Y-97829510D01*
X139633706Y-97790229D01*
X139615975Y-97780653D01*
X139565009Y-97754611D01*
X139534732Y-97745513D01*
X139514278Y-97752009D01*
X139492778Y-97772753D01*
X139485822Y-97781843D01*
X139461264Y-97828665D01*
X139433194Y-97897804D01*
X139406416Y-97977846D01*
X139398867Y-98002993D01*
X139373560Y-98087339D01*
X139351276Y-98161681D01*
X139336125Y-98212308D01*
X139328621Y-98236681D01*
X139303321Y-98312654D01*
X139273341Y-98396529D01*
X139242123Y-98479326D01*
X139213111Y-98552060D01*
X139189749Y-98605748D01*
X139175478Y-98631408D01*
X139164299Y-98652241D01*
X139157077Y-98696121D01*
X139155999Y-98712826D01*
X139146538Y-98769177D01*
X139130497Y-98833867D01*
X139127365Y-98844833D01*
X139108646Y-98914216D01*
X139086175Y-99001879D01*
X139064147Y-99091539D01*
X139057716Y-99117201D01*
X139031825Y-99207441D01*
X138999253Y-99307445D01*
X138962636Y-99410495D01*
X138924610Y-99509873D01*
X138887811Y-99598861D01*
X138854875Y-99670742D01*
X138828439Y-99718797D01*
X138811138Y-99736308D01*
X138801330Y-99737936D01*
X138785846Y-99756999D01*
X138788410Y-99764907D01*
X138808705Y-99763563D01*
X138822366Y-99761004D01*
X138816833Y-99786833D01*
X138812039Y-99799738D01*
X138794978Y-99848582D01*
X138771137Y-99918874D01*
X138744112Y-100000077D01*
X138735805Y-100024706D01*
X138699491Y-100123927D01*
X138659988Y-100221782D01*
X138624485Y-100300233D01*
X138611791Y-100325975D01*
X138586131Y-100381479D01*
X138576319Y-100414570D01*
X138580723Y-100434378D01*
X138597710Y-100450035D01*
X138610695Y-100460298D01*
X138621105Y-100478358D01*
X138613640Y-100505930D01*
X138587094Y-100554956D01*
X138565872Y-100588956D01*
X138535404Y-100620423D01*
X138506485Y-100623348D01*
X138484883Y-100620458D01*
X138447870Y-100631734D01*
X138416668Y-100646652D01*
X138366904Y-100657771D01*
X138350989Y-100660548D01*
X138317215Y-100676970D01*
X138284029Y-100713417D01*
X138243307Y-100777778D01*
X138225541Y-100806994D01*
X138173552Y-100873919D01*
X138116075Y-100914600D01*
X138042015Y-100937860D01*
X138020722Y-100945939D01*
X137972749Y-100970888D01*
X137915015Y-101005518D01*
X137905387Y-101011602D01*
X137845266Y-101044809D01*
X137798534Y-101057644D01*
X137750667Y-101054429D01*
X137747573Y-101053855D01*
X137683613Y-101037755D01*
X137639161Y-101012217D01*
X137610724Y-100977000D01*
X137730769Y-100977000D01*
X137740538Y-100986769D01*
X137750308Y-100977000D01*
X137740538Y-100967231D01*
X137730769Y-100977000D01*
X137610724Y-100977000D01*
X137603506Y-100968061D01*
X137565934Y-100896105D01*
X137540858Y-100848318D01*
X137490711Y-100768120D01*
X137440416Y-100701919D01*
X137410427Y-100664539D01*
X137357765Y-100587169D01*
X137331115Y-100539977D01*
X137509587Y-100539977D01*
X137510153Y-100552805D01*
X137533906Y-100583551D01*
X137558877Y-100609588D01*
X137585388Y-100632035D01*
X137589875Y-100626397D01*
X137570288Y-100592186D01*
X137545528Y-100562635D01*
X137514174Y-100540660D01*
X137509587Y-100539977D01*
X137331115Y-100539977D01*
X137314307Y-100510214D01*
X137296743Y-100478769D01*
X137613538Y-100478769D01*
X137614948Y-100489113D01*
X137626564Y-100491795D01*
X137628902Y-100488931D01*
X137626564Y-100465744D01*
X137620687Y-100462687D01*
X137613538Y-100478769D01*
X137296743Y-100478769D01*
X137287134Y-100461565D01*
X137242850Y-100399220D01*
X137201488Y-100357161D01*
X137199185Y-100355130D01*
X138331489Y-100355130D01*
X138344514Y-100360035D01*
X138374993Y-100332888D01*
X138386453Y-100314150D01*
X138391150Y-100281374D01*
X138390303Y-100279482D01*
X138374563Y-100281289D01*
X138349776Y-100310024D01*
X138341697Y-100323411D01*
X138331489Y-100355130D01*
X137199185Y-100355130D01*
X137194705Y-100351179D01*
X138104666Y-100351179D01*
X138115834Y-100352178D01*
X138140685Y-100332703D01*
X138155519Y-100312929D01*
X138153573Y-100304735D01*
X138122104Y-100321699D01*
X138108507Y-100333172D01*
X138104666Y-100351179D01*
X137194705Y-100351179D01*
X137155405Y-100316519D01*
X137107262Y-100255535D01*
X137104695Y-100250130D01*
X137966074Y-100250130D01*
X137989654Y-100269021D01*
X137999886Y-100270219D01*
X138038945Y-100262012D01*
X138058778Y-100254077D01*
X138141077Y-100254077D01*
X138150846Y-100263846D01*
X138160615Y-100254077D01*
X138150846Y-100244308D01*
X138141077Y-100254077D01*
X138058778Y-100254077D01*
X138085591Y-100243349D01*
X138124682Y-100220969D01*
X138141077Y-100201612D01*
X138139322Y-100192795D01*
X138118371Y-100188968D01*
X138076669Y-100213555D01*
X138049154Y-100227142D01*
X138003400Y-100230193D01*
X137973024Y-100232071D01*
X137966074Y-100250130D01*
X137104695Y-100250130D01*
X137078736Y-100195472D01*
X137076137Y-100146912D01*
X137079374Y-100118808D01*
X137058511Y-100107539D01*
X137047799Y-100105058D01*
X137016138Y-100075628D01*
X136985631Y-100020366D01*
X136961929Y-99948576D01*
X136958927Y-99934158D01*
X136962515Y-99901141D01*
X136993380Y-99884078D01*
X137037154Y-99871082D01*
X136993192Y-99853171D01*
X136965476Y-99833969D01*
X136949231Y-99800148D01*
X136948138Y-99790022D01*
X136933983Y-99744307D01*
X136908699Y-99689414D01*
X136889946Y-99649011D01*
X136879951Y-99587781D01*
X136902440Y-99533183D01*
X136959688Y-99475672D01*
X136960047Y-99475377D01*
X137008656Y-99440550D01*
X137050979Y-99428584D01*
X137107197Y-99433742D01*
X137139301Y-99440637D01*
X137188987Y-99465553D01*
X137226978Y-99514361D01*
X137231948Y-99522376D01*
X137273577Y-99573377D01*
X137317928Y-99608705D01*
X137318960Y-99609261D01*
X137359710Y-99636925D01*
X137416171Y-99681993D01*
X137476450Y-99734991D01*
X137483366Y-99741325D01*
X137538833Y-99788256D01*
X137585395Y-99821425D01*
X137613588Y-99834000D01*
X137622301Y-99835470D01*
X137663791Y-99850090D01*
X137726022Y-99877032D01*
X137799154Y-99912154D01*
X137844622Y-99934370D01*
X137932317Y-99971158D01*
X137998583Y-99987047D01*
X138050753Y-99983240D01*
X138068772Y-99974390D01*
X138141077Y-99974390D01*
X138144543Y-99979094D01*
X138167053Y-99968617D01*
X138203575Y-99936828D01*
X138221858Y-99917376D01*
X138248670Y-99881637D01*
X138253605Y-99861862D01*
X138243464Y-99860889D01*
X138214924Y-99878426D01*
X138181122Y-99910413D01*
X138152894Y-99946013D01*
X138141077Y-99974390D01*
X138068772Y-99974390D01*
X138096155Y-99960941D01*
X138100478Y-99957513D01*
X138131912Y-99918783D01*
X138169881Y-99856221D01*
X138208922Y-99780966D01*
X138243571Y-99704158D01*
X138268367Y-99636937D01*
X138277846Y-99590442D01*
X138289162Y-99550095D01*
X138321808Y-99508149D01*
X138344491Y-99484461D01*
X138362323Y-99440775D01*
X138369177Y-99371874D01*
X138369534Y-99364135D01*
X138386297Y-99265639D01*
X138421678Y-99166720D01*
X138424611Y-99159932D01*
X138490298Y-99159932D01*
X138493227Y-99172820D01*
X138503560Y-99166989D01*
X138511156Y-99155055D01*
X138529399Y-99108661D01*
X138550281Y-99039254D01*
X138570619Y-98956809D01*
X138574556Y-98938857D01*
X138591861Y-98852822D01*
X138601577Y-98791605D01*
X138603807Y-98757931D01*
X138598654Y-98754519D01*
X138586217Y-98784094D01*
X138566600Y-98849377D01*
X138533411Y-98971281D01*
X138509643Y-99062929D01*
X138495521Y-99124557D01*
X138490298Y-99159932D01*
X138424611Y-99159932D01*
X138453008Y-99094204D01*
X138488906Y-99000670D01*
X138524774Y-98898666D01*
X138557715Y-98797142D01*
X138584831Y-98705048D01*
X138588336Y-98691000D01*
X138610000Y-98691000D01*
X138619769Y-98700769D01*
X138629538Y-98691000D01*
X138619769Y-98681231D01*
X138610000Y-98691000D01*
X138588336Y-98691000D01*
X138603225Y-98631335D01*
X138610000Y-98584953D01*
X138613066Y-98532571D01*
X138623252Y-98445277D01*
X138639147Y-98338313D01*
X138659268Y-98221548D01*
X138682133Y-98104846D01*
X138696020Y-98027438D01*
X138710704Y-97920043D01*
X138719929Y-97821539D01*
X138720318Y-97815580D01*
X138720683Y-97811769D01*
X139254769Y-97811769D01*
X139264538Y-97821539D01*
X139274308Y-97811769D01*
X139264538Y-97802000D01*
X139254769Y-97811769D01*
X138720683Y-97811769D01*
X138729511Y-97719696D01*
X138744037Y-97609947D01*
X138760932Y-97508923D01*
X138763484Y-97495142D01*
X138773477Y-97428047D01*
X138781131Y-97349062D01*
X138786696Y-97252753D01*
X138788055Y-97209334D01*
X139964667Y-97209334D01*
X139967530Y-97211672D01*
X139990718Y-97209334D01*
X139993775Y-97203457D01*
X139977692Y-97196308D01*
X139967349Y-97197718D01*
X139964667Y-97209334D01*
X138788055Y-97209334D01*
X138790423Y-97133686D01*
X138792563Y-96986426D01*
X138793365Y-96805539D01*
X138793951Y-96268231D01*
X138730535Y-96014231D01*
X138692620Y-95864346D01*
X138640779Y-95667662D01*
X138594172Y-95502502D01*
X138551501Y-95364747D01*
X138511468Y-95250282D01*
X138472773Y-95154990D01*
X138434118Y-95074754D01*
X138427438Y-95061991D01*
X138381702Y-94971201D01*
X138331871Y-94867853D01*
X138287603Y-94771907D01*
X138228870Y-94656612D01*
X138222755Y-94646539D01*
X138277846Y-94646539D01*
X138287615Y-94656308D01*
X138297385Y-94646539D01*
X138287615Y-94636769D01*
X138277846Y-94646539D01*
X138222755Y-94646539D01*
X138144093Y-94516965D01*
X138044959Y-94373066D01*
X137939242Y-94236151D01*
X137834719Y-94117459D01*
X137823133Y-94105231D01*
X137764681Y-94039988D01*
X137714336Y-93978473D01*
X137681923Y-93932573D01*
X137681354Y-93931613D01*
X137650104Y-93888048D01*
X137607175Y-93847388D01*
X137544621Y-93803229D01*
X137454501Y-93749165D01*
X137419159Y-93731651D01*
X137361494Y-93717451D01*
X137323117Y-93729061D01*
X137322573Y-93732280D01*
X137333004Y-93759365D01*
X137357310Y-93802779D01*
X137365905Y-93816937D01*
X137389246Y-93858649D01*
X137398615Y-93881026D01*
X137395770Y-93886729D01*
X137373252Y-93916668D01*
X137333167Y-93964988D01*
X137281385Y-94024504D01*
X137257200Y-94052417D01*
X137209531Y-94112006D01*
X137176504Y-94159868D01*
X137164154Y-94187607D01*
X137160420Y-94212756D01*
X137134645Y-94243501D01*
X137080362Y-94260385D01*
X136992885Y-94265539D01*
X136904068Y-94261648D01*
X136840426Y-94246793D01*
X136796802Y-94216984D01*
X136763818Y-94168237D01*
X136756125Y-94152220D01*
X136736672Y-94076024D01*
X136745411Y-93992061D01*
X136749077Y-93982231D01*
X136893362Y-93982231D01*
X136893936Y-94021308D01*
X136897612Y-94055693D01*
X136910154Y-94109231D01*
X136925797Y-94158077D01*
X136926371Y-94109231D01*
X136923438Y-94072730D01*
X136910154Y-94021308D01*
X136893362Y-93982231D01*
X136749077Y-93982231D01*
X136763649Y-93943154D01*
X137203231Y-93943154D01*
X137213000Y-93952923D01*
X137222769Y-93943154D01*
X137213000Y-93933385D01*
X137203231Y-93943154D01*
X136763649Y-93943154D01*
X136782963Y-93891363D01*
X136785811Y-93884539D01*
X136910154Y-93884539D01*
X136919923Y-93894308D01*
X136929692Y-93884539D01*
X136919923Y-93874769D01*
X136910154Y-93884539D01*
X136785811Y-93884539D01*
X136802010Y-93845729D01*
X136814511Y-93806385D01*
X136933501Y-93806385D01*
X136933630Y-93812452D01*
X136937013Y-93838404D01*
X136943232Y-93830436D01*
X136946373Y-93810608D01*
X136942508Y-93771821D01*
X136941730Y-93770079D01*
X136935613Y-93773017D01*
X136933501Y-93806385D01*
X136814511Y-93806385D01*
X136823406Y-93778391D01*
X136825238Y-93767308D01*
X137144615Y-93767308D01*
X137154385Y-93777077D01*
X137164154Y-93767308D01*
X137154385Y-93757539D01*
X137144615Y-93767308D01*
X136825238Y-93767308D01*
X136831809Y-93727554D01*
X136835192Y-93694345D01*
X136849466Y-93628403D01*
X136871077Y-93557080D01*
X136888217Y-93506161D01*
X136904046Y-93453468D01*
X136910154Y-93424801D01*
X136916398Y-93400157D01*
X136945131Y-93346078D01*
X136991805Y-93277080D01*
X137050449Y-93200488D01*
X137115092Y-93123626D01*
X137179762Y-93053819D01*
X137238488Y-92998390D01*
X137285299Y-92964664D01*
X137328164Y-92947416D01*
X137430531Y-92936065D01*
X137551237Y-92956064D01*
X137687364Y-93007105D01*
X137773520Y-93047263D01*
X137904162Y-93108835D01*
X138006909Y-93158823D01*
X138086706Y-93200170D01*
X138148502Y-93235817D01*
X138197240Y-93268709D01*
X138237868Y-93301788D01*
X138275332Y-93337996D01*
X138314579Y-93380277D01*
X138333233Y-93401242D01*
X138387362Y-93465416D01*
X138430749Y-93521618D01*
X138455361Y-93559616D01*
X138459933Y-93567754D01*
X138491752Y-93611019D01*
X138540989Y-93668229D01*
X138599061Y-93729254D01*
X138634042Y-93765703D01*
X138721495Y-93870133D01*
X138798175Y-93980076D01*
X138857515Y-94085540D01*
X138892951Y-94176531D01*
X138896847Y-94190648D01*
X138916381Y-94250684D01*
X138935014Y-94294846D01*
X138936393Y-94297481D01*
X138954635Y-94337883D01*
X138980569Y-94401063D01*
X139009053Y-94474542D01*
X139009475Y-94475660D01*
X139043704Y-94555726D01*
X139082499Y-94630898D01*
X139117542Y-94685040D01*
X139155876Y-94747289D01*
X139186231Y-94857036D01*
X139191182Y-94886559D01*
X139213953Y-94971718D01*
X139244109Y-95047077D01*
X139267776Y-95099835D01*
X139307947Y-95218334D01*
X139343634Y-95359708D01*
X139372380Y-95513593D01*
X139391727Y-95669627D01*
X139410599Y-95837716D01*
X139445821Y-96065952D01*
X139490535Y-96291537D01*
X139493495Y-96305597D01*
X139504370Y-96373786D01*
X139508769Y-96430798D01*
X139510191Y-96449894D01*
X139526557Y-96496049D01*
X139554521Y-96523818D01*
X139585616Y-96523039D01*
X139592065Y-96520823D01*
X139630576Y-96521378D01*
X139684401Y-96531943D01*
X139763025Y-96543210D01*
X139875352Y-96534048D01*
X139919707Y-96526650D01*
X140000245Y-96513866D01*
X140065615Y-96504231D01*
X140159088Y-96490167D01*
X140271991Y-96470373D01*
X140380611Y-96448718D01*
X140476347Y-96427043D01*
X140550596Y-96407188D01*
X140594759Y-96390994D01*
X140628040Y-96374706D01*
X140749999Y-96332225D01*
X140865500Y-96317077D01*
X140883249Y-96316447D01*
X140936181Y-96304938D01*
X140986178Y-96276014D01*
X141036606Y-96225853D01*
X141090830Y-96150635D01*
X141152214Y-96046536D01*
X141224124Y-95909734D01*
X141227359Y-95903346D01*
X141300442Y-95752681D01*
X141355674Y-95621526D01*
X141396351Y-95498169D01*
X141425773Y-95370897D01*
X141447238Y-95227998D01*
X141464045Y-95057758D01*
X141469623Y-94985845D01*
X141477030Y-94839029D01*
X141475179Y-94713036D01*
X141462206Y-94598846D01*
X141436244Y-94487439D01*
X141395428Y-94369794D01*
X141337893Y-94236892D01*
X141261773Y-94079711D01*
X141160565Y-93872779D01*
X141151889Y-93854078D01*
X141208615Y-93854078D01*
X141209361Y-93859560D01*
X141228154Y-93884539D01*
X141238220Y-93886377D01*
X141247692Y-93866153D01*
X141245301Y-93851596D01*
X141228154Y-93835692D01*
X141223518Y-93836219D01*
X141208615Y-93854078D01*
X141151889Y-93854078D01*
X141074265Y-93686762D01*
X141017036Y-93553381D01*
X141112232Y-93553381D01*
X141119226Y-93572869D01*
X141150402Y-93561905D01*
X141167842Y-93544755D01*
X141155362Y-93520624D01*
X141134649Y-93508647D01*
X141118919Y-93530422D01*
X141112232Y-93553381D01*
X141017036Y-93553381D01*
X141007261Y-93530598D01*
X140959890Y-93405118D01*
X140932489Y-93311155D01*
X140925395Y-93249539D01*
X140934207Y-93179781D01*
X140959695Y-93086166D01*
X140996238Y-93017327D01*
X141021500Y-92978056D01*
X141032769Y-92945492D01*
X141045991Y-92925905D01*
X141085299Y-92893861D01*
X141141569Y-92858004D01*
X141190809Y-92830670D01*
X141234467Y-92811732D01*
X141277669Y-92803439D01*
X141333535Y-92803465D01*
X141415185Y-92809484D01*
X141564725Y-92813613D01*
X141715730Y-92798958D01*
X141815188Y-92789078D01*
X141946574Y-92789542D01*
X142093247Y-92800483D01*
X142243940Y-92821039D01*
X142387386Y-92850346D01*
X142437203Y-92861323D01*
X142509925Y-92873552D01*
X142564382Y-92878308D01*
X142618647Y-92886336D01*
X142665381Y-92906994D01*
X142680308Y-92915273D01*
X142733426Y-92930132D01*
X142797993Y-92936302D01*
X142891618Y-92944923D01*
X143032533Y-92979563D01*
X143183393Y-93036979D01*
X143335414Y-93113163D01*
X143479813Y-93204107D01*
X143607804Y-93305802D01*
X143748313Y-93435790D01*
X143893948Y-93576331D01*
X144032536Y-93715742D01*
X144159506Y-93849215D01*
X144270290Y-93971942D01*
X144360321Y-94079114D01*
X144425030Y-94165923D01*
X144457633Y-94211573D01*
X144489905Y-94250551D01*
X144508742Y-94265539D01*
X144533984Y-94253756D01*
X144563357Y-94204728D01*
X144588877Y-94118517D01*
X144592739Y-94101965D01*
X144641631Y-93962692D01*
X147539077Y-93962692D01*
X147548846Y-93972462D01*
X147558615Y-93962692D01*
X147548846Y-93952923D01*
X147539077Y-93962692D01*
X144641631Y-93962692D01*
X144655392Y-93923491D01*
X144754924Y-93754834D01*
X144785347Y-93711270D01*
X144812692Y-93669013D01*
X144823231Y-93648194D01*
X144824461Y-93643385D01*
X144843765Y-93611144D01*
X144882492Y-93558339D01*
X144935461Y-93491401D01*
X144997489Y-93416760D01*
X145063393Y-93340844D01*
X145127991Y-93270085D01*
X145170438Y-93227761D01*
X145249084Y-93157920D01*
X145338478Y-93085995D01*
X145431962Y-93016662D01*
X145522879Y-92954598D01*
X145604571Y-92904477D01*
X145670380Y-92870976D01*
X145713649Y-92858769D01*
X145726300Y-92857792D01*
X145781980Y-92845207D01*
X145855894Y-92821712D01*
X145935455Y-92791909D01*
X146008078Y-92760396D01*
X146061175Y-92731773D01*
X146113187Y-92704873D01*
X146215880Y-92672672D01*
X146339868Y-92651688D01*
X146474969Y-92644078D01*
X146530887Y-92645014D01*
X146617491Y-92653004D01*
X146703661Y-92671856D01*
X146807123Y-92704813D01*
X146928399Y-92749474D01*
X147078163Y-92814755D01*
X147199604Y-92882896D01*
X147299035Y-92957600D01*
X147382769Y-93042573D01*
X147401706Y-93064598D01*
X147448811Y-93117945D01*
X147483730Y-93155396D01*
X147500000Y-93169930D01*
X147502340Y-93168721D01*
X147507039Y-93142414D01*
X147506898Y-93088129D01*
X147502372Y-93014173D01*
X147493915Y-92928850D01*
X147481981Y-92840465D01*
X147471001Y-92781427D01*
X147449046Y-92689650D01*
X147422138Y-92595386D01*
X147393475Y-92508826D01*
X147366253Y-92440163D01*
X147343671Y-92399590D01*
X147331230Y-92367462D01*
X147348621Y-92327549D01*
X147398459Y-92292621D01*
X147441696Y-92272159D01*
X147483574Y-92251738D01*
X147486641Y-92250369D01*
X147530002Y-92243423D01*
X147585986Y-92246778D01*
X147643240Y-92248715D01*
X147683581Y-92235227D01*
X147723669Y-92216419D01*
X147773748Y-92228248D01*
X147823827Y-92276039D01*
X147871519Y-92358230D01*
X147898589Y-92419852D01*
X147925411Y-92487694D01*
X147941339Y-92536385D01*
X147949049Y-92562285D01*
X147972330Y-92625289D01*
X148001299Y-92692692D01*
X148019825Y-92737586D01*
X148040763Y-92823080D01*
X148047225Y-92927154D01*
X148049503Y-93013170D01*
X148057841Y-93146738D01*
X148071012Y-93291811D01*
X148087673Y-93435745D01*
X148106482Y-93565894D01*
X148126093Y-93669616D01*
X148128092Y-93678807D01*
X148139416Y-93748163D01*
X148144292Y-93809421D01*
X148158911Y-93870464D01*
X148209971Y-93949114D01*
X148230081Y-93974636D01*
X148272742Y-94037661D01*
X148301863Y-94092616D01*
X148309340Y-94109446D01*
X148343136Y-94172171D01*
X148383200Y-94234278D01*
X148400199Y-94259081D01*
X148427198Y-94304639D01*
X148437846Y-94332521D01*
X148439632Y-94342714D01*
X148454835Y-94384715D01*
X148481208Y-94444401D01*
X148513451Y-94511046D01*
X148546267Y-94573924D01*
X148574357Y-94622307D01*
X148592424Y-94645469D01*
X148607318Y-94658597D01*
X148639642Y-94709513D01*
X148669227Y-94782840D01*
X148691132Y-94867463D01*
X148694188Y-94881899D01*
X148716083Y-94947908D01*
X148754133Y-95022361D01*
X148811326Y-95109936D01*
X148890650Y-95215307D01*
X148995092Y-95343150D01*
X149047172Y-95406133D01*
X149108518Y-95482569D01*
X149159431Y-95548429D01*
X149192407Y-95594170D01*
X149209827Y-95618591D01*
X149284295Y-95693174D01*
X149384862Y-95754391D01*
X149517846Y-95806362D01*
X149532068Y-95810943D01*
X149592336Y-95828998D01*
X149637985Y-95835773D01*
X149677628Y-95828166D01*
X149719883Y-95803080D01*
X149773366Y-95757415D01*
X149846692Y-95688071D01*
X149920677Y-95613120D01*
X149978884Y-95541405D01*
X150024518Y-95465378D01*
X150061907Y-95376419D01*
X150095377Y-95265910D01*
X150129255Y-95125231D01*
X150130310Y-95120523D01*
X150141019Y-95072248D01*
X150149880Y-95029251D01*
X150157204Y-94987100D01*
X150163302Y-94941362D01*
X150168484Y-94887602D01*
X150173062Y-94821386D01*
X150177347Y-94738282D01*
X150181649Y-94633856D01*
X150186279Y-94503674D01*
X150190385Y-94378710D01*
X152838145Y-94378710D01*
X152843049Y-94446654D01*
X152874056Y-94598203D01*
X152939961Y-94756465D01*
X153037535Y-94891848D01*
X153091309Y-94952705D01*
X153161641Y-95036618D01*
X153221956Y-95112838D01*
X153270065Y-95170502D01*
X153340768Y-95243317D01*
X153407571Y-95301295D01*
X153454440Y-95337111D01*
X153521530Y-95389388D01*
X153574791Y-95431997D01*
X153604647Y-95453110D01*
X153674875Y-95491198D01*
X153749208Y-95521065D01*
X153787226Y-95534676D01*
X153873590Y-95572917D01*
X153949183Y-95614649D01*
X153957863Y-95620126D01*
X154043573Y-95661472D01*
X154126458Y-95674625D01*
X154159626Y-95674562D01*
X154237392Y-95672836D01*
X154327868Y-95669422D01*
X154422426Y-95664806D01*
X154512438Y-95659475D01*
X154589276Y-95653913D01*
X154644312Y-95648609D01*
X154668919Y-95644048D01*
X154675366Y-95635273D01*
X154677864Y-95597295D01*
X154667189Y-95529995D01*
X154642947Y-95431656D01*
X154604743Y-95300564D01*
X154552185Y-95135000D01*
X154534938Y-95078523D01*
X154519844Y-95020078D01*
X154514110Y-94984685D01*
X154507611Y-94960575D01*
X154479277Y-94926070D01*
X154469693Y-94916936D01*
X154442099Y-94873204D01*
X154419189Y-94815202D01*
X154412779Y-94796067D01*
X154382210Y-94732822D01*
X154346549Y-94685768D01*
X154324995Y-94659858D01*
X154290432Y-94600767D01*
X154261317Y-94532241D01*
X154240303Y-94477760D01*
X154182788Y-94375430D01*
X154102591Y-94287458D01*
X153991685Y-94204078D01*
X153918604Y-94158760D01*
X153846245Y-94121656D01*
X153771362Y-94093902D01*
X153684825Y-94072774D01*
X153577503Y-94055546D01*
X153440265Y-94039493D01*
X153422662Y-94037651D01*
X153319900Y-94027468D01*
X153227322Y-94019187D01*
X153154478Y-94013620D01*
X153110920Y-94011575D01*
X153072256Y-94017248D01*
X153005553Y-94053873D01*
X152950019Y-94118218D01*
X152913222Y-94202957D01*
X152908393Y-94219281D01*
X152885480Y-94275874D01*
X152861011Y-94313890D01*
X152845415Y-94336676D01*
X152838145Y-94378710D01*
X150190385Y-94378710D01*
X150191549Y-94343302D01*
X150197770Y-94148308D01*
X150200423Y-94065578D01*
X150206160Y-93894929D01*
X150211426Y-93756535D01*
X150216612Y-93645607D01*
X150222108Y-93557356D01*
X150228306Y-93486992D01*
X150235595Y-93429725D01*
X150244369Y-93380767D01*
X150255016Y-93335327D01*
X150267928Y-93288616D01*
X150275285Y-93263686D01*
X150301780Y-93180061D01*
X150327376Y-93107199D01*
X150347415Y-93058577D01*
X150369524Y-93024064D01*
X150421887Y-92971633D01*
X150482558Y-92932656D01*
X150537716Y-92917385D01*
X150543442Y-92916837D01*
X150583402Y-92900501D01*
X150629717Y-92868539D01*
X150637402Y-92862394D01*
X150689344Y-92832046D01*
X150736003Y-92819692D01*
X150773016Y-92828556D01*
X150823615Y-92861204D01*
X150863789Y-92906406D01*
X150880154Y-92951889D01*
X150887536Y-92979362D01*
X150913440Y-93021904D01*
X150946980Y-93058279D01*
X150976458Y-93073692D01*
X150978300Y-93074009D01*
X151005290Y-93088195D01*
X151052920Y-93119255D01*
X151112197Y-93161377D01*
X151172934Y-93208286D01*
X151212016Y-93246748D01*
X151233136Y-93283628D01*
X151244055Y-93328779D01*
X151261700Y-93389103D01*
X151301283Y-93437640D01*
X151307307Y-93442038D01*
X151344351Y-93483891D01*
X151374646Y-93538970D01*
X151378308Y-93547393D01*
X151423674Y-93613307D01*
X151492218Y-93674847D01*
X151523057Y-93699401D01*
X151582570Y-93758457D01*
X151626185Y-93816428D01*
X151695872Y-93935277D01*
X151759782Y-94041197D01*
X151810097Y-94120129D01*
X151849452Y-94176010D01*
X151880479Y-94212776D01*
X151905814Y-94234363D01*
X151916386Y-94241100D01*
X151955627Y-94259715D01*
X151982570Y-94255698D01*
X151999932Y-94224943D01*
X152010431Y-94163346D01*
X152016785Y-94066803D01*
X152021548Y-93989492D01*
X152033328Y-93906757D01*
X152055231Y-93842209D01*
X152091822Y-93783724D01*
X152147665Y-93719176D01*
X152180231Y-93679393D01*
X152224603Y-93618137D01*
X152269777Y-93550280D01*
X152326558Y-93475707D01*
X152422469Y-93386643D01*
X152530313Y-93318170D01*
X152638615Y-93278739D01*
X152647077Y-93276806D01*
X152713931Y-93255634D01*
X152780207Y-93227251D01*
X152846101Y-93200141D01*
X152945107Y-93179517D01*
X153064011Y-93176046D01*
X153210748Y-93189022D01*
X153264042Y-93196059D01*
X153409677Y-93218120D01*
X153523637Y-93240686D01*
X153611541Y-93264994D01*
X153679006Y-93292286D01*
X153692326Y-93298386D01*
X153750391Y-93316080D01*
X153796237Y-93317588D01*
X153816878Y-93315745D01*
X153873047Y-93321743D01*
X153937923Y-93337660D01*
X154006429Y-93358422D01*
X154094519Y-93383824D01*
X154182154Y-93408069D01*
X154183404Y-93408406D01*
X154268045Y-93434774D01*
X154349510Y-93465886D01*
X154410325Y-93495078D01*
X154437662Y-93510637D01*
X154481099Y-93533588D01*
X154503133Y-93542616D01*
X154505838Y-93540218D01*
X154511892Y-93512002D01*
X154514308Y-93462219D01*
X154512254Y-93426677D01*
X154502261Y-93390393D01*
X154479616Y-93350063D01*
X154439626Y-93297534D01*
X154377601Y-93224652D01*
X154335794Y-93177802D01*
X154274709Y-93113349D01*
X154222446Y-93062714D01*
X154187101Y-93033999D01*
X154186693Y-93033744D01*
X154141469Y-92998885D01*
X154075886Y-92939714D01*
X153994958Y-92861518D01*
X153903701Y-92769585D01*
X153807132Y-92669201D01*
X153710267Y-92565654D01*
X153618120Y-92464230D01*
X153535708Y-92370217D01*
X153468048Y-92288903D01*
X153420154Y-92225573D01*
X153413898Y-92216638D01*
X153384437Y-92175207D01*
X153339000Y-92111747D01*
X153282508Y-92033126D01*
X153219885Y-91946211D01*
X153191838Y-91906934D01*
X153135416Y-91825219D01*
X153090077Y-91755838D01*
X153059890Y-91705139D01*
X153048923Y-91679471D01*
X153046904Y-91665787D01*
X153026956Y-91636114D01*
X153025994Y-91635441D01*
X153006609Y-91609523D01*
X152978206Y-91558716D01*
X152946574Y-91493308D01*
X152912123Y-91422887D01*
X152859697Y-91326861D01*
X152808090Y-91241962D01*
X152799315Y-91228637D01*
X152758463Y-91170305D01*
X152727224Y-91137165D01*
X152696925Y-91121985D01*
X152658894Y-91117533D01*
X152652561Y-91117347D01*
X152601695Y-91117744D01*
X152570231Y-91121115D01*
X152560500Y-91122713D01*
X152514299Y-91125820D01*
X152438454Y-91128556D01*
X152339354Y-91130875D01*
X152223390Y-91132731D01*
X152096948Y-91134079D01*
X151966420Y-91134872D01*
X151838192Y-91135065D01*
X151718656Y-91134613D01*
X151614198Y-91133470D01*
X151531209Y-91131591D01*
X151476077Y-91128929D01*
X151426705Y-91126240D01*
X151336307Y-91123691D01*
X151223882Y-91122117D01*
X151098970Y-91121520D01*
X150971108Y-91121900D01*
X150849839Y-91123256D01*
X150744699Y-91125590D01*
X150665231Y-91128901D01*
X150634957Y-91130998D01*
X150557227Y-91137664D01*
X150461374Y-91146986D01*
X150355544Y-91158053D01*
X150247882Y-91169954D01*
X150146536Y-91181775D01*
X150059651Y-91192606D01*
X149995372Y-91201533D01*
X149961846Y-91207646D01*
X149881976Y-91224005D01*
X149772911Y-91235314D01*
X149656809Y-91239025D01*
X149548701Y-91234708D01*
X149463615Y-91221933D01*
X149452958Y-91219333D01*
X149311796Y-91193622D01*
X149141825Y-91175452D01*
X148951814Y-91164810D01*
X148750530Y-91161684D01*
X148546739Y-91166059D01*
X148349209Y-91177924D01*
X148166707Y-91197265D01*
X148008000Y-91224070D01*
X147966418Y-91232747D01*
X147896433Y-91246094D01*
X147831428Y-91255852D01*
X147764062Y-91262484D01*
X147686992Y-91266449D01*
X147592879Y-91268207D01*
X147474380Y-91268219D01*
X147324154Y-91266945D01*
X147298713Y-91266710D01*
X147129852Y-91266313D01*
X146938803Y-91267475D01*
X146739966Y-91270021D01*
X146547744Y-91273774D01*
X146376538Y-91278557D01*
X146245019Y-91283115D01*
X146038511Y-91291086D01*
X145862599Y-91299244D01*
X145711855Y-91308020D01*
X145580852Y-91317846D01*
X145464162Y-91329152D01*
X145356358Y-91342369D01*
X145252013Y-91357928D01*
X145145697Y-91376259D01*
X145097459Y-91384396D01*
X145014101Y-91395657D01*
X144917533Y-91405261D01*
X144802582Y-91413560D01*
X144664073Y-91420908D01*
X144496835Y-91427655D01*
X144295692Y-91434154D01*
X144229100Y-91436178D01*
X144065857Y-91441590D01*
X143908903Y-91447391D01*
X143764793Y-91453303D01*
X143640082Y-91459049D01*
X143541325Y-91464350D01*
X143475077Y-91468930D01*
X143398469Y-91474047D01*
X143290625Y-91479022D01*
X143163396Y-91483354D01*
X143026778Y-91486706D01*
X142890770Y-91488737D01*
X142862568Y-91489029D01*
X142743768Y-91490800D01*
X142639650Y-91493205D01*
X142556313Y-91496044D01*
X142499855Y-91499119D01*
X142476375Y-91502231D01*
X142462819Y-91503922D01*
X142413563Y-91506462D01*
X142332279Y-91509274D01*
X142222970Y-91512259D01*
X142089638Y-91515319D01*
X141936286Y-91518358D01*
X141766915Y-91521276D01*
X141585528Y-91523978D01*
X140710385Y-91536020D01*
X140459577Y-91473171D01*
X140394790Y-91457039D01*
X140288431Y-91431228D01*
X140188895Y-91408256D01*
X140087122Y-91386184D01*
X140074556Y-91383616D01*
X141208615Y-91383616D01*
X141218385Y-91393385D01*
X141228154Y-91383616D01*
X141218385Y-91373846D01*
X141208615Y-91383616D01*
X140074556Y-91383616D01*
X139974055Y-91363077D01*
X139840633Y-91336997D01*
X139677798Y-91306008D01*
X139630401Y-91297166D01*
X139531868Y-91280348D01*
X139453130Y-91270797D01*
X139381023Y-91267734D01*
X139302381Y-91270378D01*
X139204040Y-91277951D01*
X139172278Y-91280095D01*
X139089682Y-91283539D01*
X138974980Y-91286705D01*
X138832563Y-91289572D01*
X138666822Y-91292119D01*
X138482150Y-91294328D01*
X138282938Y-91296178D01*
X138073579Y-91297648D01*
X137858462Y-91298719D01*
X137641982Y-91299370D01*
X137428528Y-91299583D01*
X137222494Y-91299335D01*
X137028270Y-91298608D01*
X136850249Y-91297382D01*
X136692822Y-91295636D01*
X136560381Y-91293350D01*
X136457318Y-91290504D01*
X136443768Y-91290012D01*
X136333784Y-91285471D01*
X136253722Y-91280243D01*
X136195304Y-91272927D01*
X136150249Y-91262121D01*
X136110276Y-91246423D01*
X136067108Y-91224430D01*
X136048355Y-91213948D01*
X136013766Y-91188231D01*
X136324000Y-91188231D01*
X136333769Y-91198000D01*
X136343538Y-91188231D01*
X136333769Y-91178462D01*
X136324000Y-91188231D01*
X136013766Y-91188231D01*
X135987487Y-91168692D01*
X139215692Y-91168692D01*
X139225462Y-91178462D01*
X139235231Y-91168692D01*
X139225462Y-91158923D01*
X139215692Y-91168692D01*
X135987487Y-91168692D01*
X135976922Y-91160837D01*
X135958256Y-91129616D01*
X149961846Y-91129616D01*
X149971615Y-91139385D01*
X149981385Y-91129616D01*
X149971615Y-91119846D01*
X149961846Y-91129616D01*
X135958256Y-91129616D01*
X135941923Y-91102296D01*
X135941684Y-91078840D01*
X137175115Y-91078840D01*
X137176506Y-91096034D01*
X137202683Y-91119553D01*
X137228189Y-91128991D01*
X137242308Y-91122926D01*
X137241225Y-91115203D01*
X137231377Y-91100644D01*
X153499934Y-91100644D01*
X153579084Y-91226882D01*
X153616568Y-91281189D01*
X153686441Y-91370891D01*
X153777888Y-91480057D01*
X153887185Y-91604466D01*
X154010612Y-91739900D01*
X154144444Y-91882139D01*
X154284960Y-92026964D01*
X154343395Y-92085505D01*
X154408470Y-92147413D01*
X154453698Y-92184906D01*
X154482662Y-92200848D01*
X154498942Y-92198104D01*
X154500403Y-92196427D01*
X154507976Y-92175149D01*
X154511580Y-92133232D01*
X154511211Y-92066117D01*
X154506862Y-91969247D01*
X154498529Y-91838063D01*
X154492080Y-91745014D01*
X154483900Y-91632714D01*
X154476515Y-91545715D01*
X154468817Y-91475807D01*
X154459696Y-91414779D01*
X154448042Y-91354423D01*
X154432746Y-91286528D01*
X154412700Y-91202885D01*
X154368997Y-91022154D01*
X154202306Y-91024944D01*
X154137128Y-91027113D01*
X154032921Y-91033258D01*
X153918187Y-91042245D01*
X153802836Y-91053120D01*
X153696781Y-91064927D01*
X153609933Y-91076714D01*
X153552202Y-91087526D01*
X153499934Y-91100644D01*
X137231377Y-91100644D01*
X137223395Y-91088844D01*
X137195989Y-91073201D01*
X137175115Y-91078840D01*
X135941684Y-91078840D01*
X135941206Y-91031927D01*
X135955064Y-90992846D01*
X139704154Y-90992846D01*
X139713923Y-91002616D01*
X139723692Y-90992846D01*
X139713923Y-90983077D01*
X139704154Y-90992846D01*
X135955064Y-90992846D01*
X135968920Y-90953769D01*
X136089538Y-90953769D01*
X136099308Y-90963539D01*
X136109077Y-90953769D01*
X136099308Y-90944000D01*
X144647385Y-90944000D01*
X144658914Y-90956703D01*
X144695078Y-90963539D01*
X144727914Y-90959125D01*
X144737451Y-90953769D01*
X145702462Y-90953769D01*
X145712231Y-90963539D01*
X145722000Y-90953769D01*
X145712231Y-90944000D01*
X145702462Y-90953769D01*
X144737451Y-90953769D01*
X144754846Y-90944000D01*
X144755231Y-90943330D01*
X144747560Y-90931782D01*
X144820519Y-90931782D01*
X144828487Y-90938002D01*
X144848315Y-90941143D01*
X144887103Y-90937278D01*
X144888845Y-90936499D01*
X144887755Y-90934231D01*
X144940462Y-90934231D01*
X144950231Y-90944000D01*
X144960000Y-90934231D01*
X144950231Y-90924462D01*
X144940462Y-90934231D01*
X144887755Y-90934231D01*
X144885907Y-90930383D01*
X144852538Y-90928271D01*
X144846471Y-90928400D01*
X144820519Y-90931782D01*
X144747560Y-90931782D01*
X144746212Y-90929753D01*
X144707153Y-90924462D01*
X144705470Y-90924469D01*
X144664389Y-90930384D01*
X144647385Y-90944000D01*
X136099308Y-90944000D01*
X136089538Y-90953769D01*
X135968920Y-90953769D01*
X135972621Y-90943330D01*
X135998301Y-90895154D01*
X137496308Y-90895154D01*
X137506077Y-90904923D01*
X137515846Y-90895154D01*
X137506077Y-90885385D01*
X137496308Y-90895154D01*
X135998301Y-90895154D01*
X136015613Y-90862675D01*
X136021199Y-90856077D01*
X138258308Y-90856077D01*
X138268077Y-90865846D01*
X144608308Y-90865846D01*
X144609718Y-90876190D01*
X144621333Y-90878872D01*
X144623672Y-90876008D01*
X144623632Y-90875616D01*
X145565692Y-90875616D01*
X145575462Y-90885385D01*
X145585231Y-90875616D01*
X145575462Y-90865846D01*
X145565692Y-90875616D01*
X144623632Y-90875616D01*
X144621551Y-90854980D01*
X146507591Y-90854980D01*
X146518420Y-90860127D01*
X146549654Y-90863372D01*
X146596574Y-90859732D01*
X146602975Y-90857236D01*
X146592596Y-90852808D01*
X146552385Y-90851235D01*
X146531075Y-90851742D01*
X146507591Y-90854980D01*
X144621551Y-90854980D01*
X144621333Y-90852821D01*
X144615456Y-90849764D01*
X144608308Y-90865846D01*
X138268077Y-90865846D01*
X138277846Y-90856077D01*
X138268077Y-90846308D01*
X138258308Y-90856077D01*
X136021199Y-90856077D01*
X136048995Y-90823243D01*
X138807182Y-90823243D01*
X138829808Y-90826470D01*
X138847890Y-90823653D01*
X138864000Y-90807231D01*
X138863386Y-90795244D01*
X138854323Y-90790170D01*
X138824923Y-90807231D01*
X138821180Y-90809679D01*
X138807182Y-90823243D01*
X136048995Y-90823243D01*
X136058295Y-90812257D01*
X136106941Y-90788364D01*
X136168839Y-90785121D01*
X136185632Y-90785931D01*
X136228620Y-90783247D01*
X136245846Y-90774016D01*
X136245897Y-90773378D01*
X136264167Y-90765189D01*
X136305416Y-90763975D01*
X136355190Y-90768468D01*
X136399035Y-90777400D01*
X136422497Y-90789505D01*
X136425257Y-90791562D01*
X136456938Y-90796179D01*
X136514715Y-90795828D01*
X136588574Y-90790452D01*
X136744077Y-90774801D01*
X136675692Y-90743513D01*
X136661995Y-90736973D01*
X136648826Y-90728416D01*
X136650803Y-90722399D01*
X136671911Y-90718675D01*
X136716137Y-90716999D01*
X136787468Y-90717125D01*
X136889888Y-90718805D01*
X137027385Y-90721795D01*
X137065795Y-90722748D01*
X137192073Y-90726973D01*
X137306720Y-90732404D01*
X137402875Y-90738619D01*
X137473679Y-90745194D01*
X137512269Y-90751706D01*
X137536334Y-90758518D01*
X137575234Y-90761031D01*
X137578939Y-90758385D01*
X138238769Y-90758385D01*
X138248538Y-90768154D01*
X138258308Y-90758385D01*
X138248538Y-90748616D01*
X138238769Y-90758385D01*
X137578939Y-90758385D01*
X137600192Y-90743208D01*
X137616738Y-90730620D01*
X137669568Y-90710516D01*
X137743772Y-90693458D01*
X137828191Y-90680938D01*
X137911662Y-90674450D01*
X137983025Y-90675487D01*
X138031119Y-90685544D01*
X138058129Y-90697733D01*
X138120529Y-90723784D01*
X138163900Y-90738752D01*
X138180154Y-90739699D01*
X138177313Y-90729077D01*
X138516960Y-90729077D01*
X138524845Y-90746656D01*
X138556372Y-90763866D01*
X138597260Y-90761622D01*
X138632924Y-90742250D01*
X138648778Y-90708073D01*
X138648177Y-90706555D01*
X138625546Y-90700141D01*
X138580261Y-90698304D01*
X138563516Y-90699020D01*
X138524959Y-90707973D01*
X138516960Y-90729077D01*
X138177313Y-90729077D01*
X138175265Y-90721419D01*
X138161362Y-90682195D01*
X138152611Y-90648714D01*
X138162694Y-90620331D01*
X138169928Y-90613277D01*
X138173241Y-90582937D01*
X138172633Y-90580910D01*
X138182882Y-90566085D01*
X138223656Y-90554421D01*
X138299230Y-90544621D01*
X138348132Y-90540379D01*
X138427349Y-90539200D01*
X138486788Y-90551258D01*
X138538922Y-90580109D01*
X138596222Y-90629310D01*
X138624946Y-90654504D01*
X138671412Y-90687641D01*
X138703864Y-90701246D01*
X138742179Y-90705825D01*
X138795615Y-90716013D01*
X138802294Y-90717115D01*
X138847365Y-90720786D01*
X138924406Y-90724551D01*
X139028004Y-90728234D01*
X139152748Y-90731660D01*
X139293224Y-90734652D01*
X139444021Y-90737035D01*
X139499229Y-90737799D01*
X139643442Y-90740185D01*
X139773246Y-90742891D01*
X139883709Y-90745776D01*
X139969897Y-90748701D01*
X140026876Y-90751528D01*
X140049714Y-90754117D01*
X140073129Y-90760188D01*
X140124941Y-90768271D01*
X140192615Y-90776139D01*
X140250251Y-90782561D01*
X140347334Y-90795388D01*
X140432243Y-90808701D01*
X140483929Y-90814650D01*
X140569794Y-90820279D01*
X140685144Y-90825383D01*
X140826370Y-90829954D01*
X140989863Y-90833982D01*
X141172016Y-90837457D01*
X141369221Y-90840371D01*
X141577869Y-90842714D01*
X141794352Y-90844478D01*
X142015062Y-90845652D01*
X142236391Y-90846228D01*
X142454731Y-90846196D01*
X142666474Y-90845548D01*
X142868011Y-90844273D01*
X143055734Y-90842363D01*
X143226036Y-90839808D01*
X143375307Y-90836600D01*
X143377271Y-90836539D01*
X144569231Y-90836539D01*
X144579000Y-90846308D01*
X144588769Y-90836539D01*
X144579000Y-90826769D01*
X144569231Y-90836539D01*
X143377271Y-90836539D01*
X143499941Y-90832728D01*
X143596328Y-90828184D01*
X143660861Y-90822959D01*
X143689932Y-90817042D01*
X143698570Y-90814870D01*
X143739511Y-90809646D01*
X143805172Y-90803560D01*
X143886333Y-90797527D01*
X143922944Y-90794971D01*
X144014012Y-90787651D01*
X144094085Y-90779981D01*
X144149154Y-90773254D01*
X144151526Y-90772940D01*
X144190989Y-90770546D01*
X144264885Y-90768263D01*
X144369103Y-90766142D01*
X144499529Y-90764237D01*
X144652053Y-90762598D01*
X144822562Y-90761280D01*
X145006943Y-90760335D01*
X145201085Y-90759814D01*
X145313718Y-90759675D01*
X145518978Y-90759630D01*
X145689804Y-90759982D01*
X145829322Y-90760820D01*
X145940660Y-90762233D01*
X146026947Y-90764308D01*
X146091309Y-90767133D01*
X146136875Y-90770795D01*
X146166772Y-90775384D01*
X146184127Y-90780987D01*
X146192068Y-90787692D01*
X146203298Y-90802507D01*
X146209867Y-90792577D01*
X146210121Y-90790429D01*
X146232049Y-90773906D01*
X146283731Y-90767303D01*
X146298683Y-90766846D01*
X146371323Y-90760318D01*
X146444923Y-90748777D01*
X146502071Y-90740403D01*
X146545175Y-90746085D01*
X146586577Y-90769751D01*
X146593802Y-90774770D01*
X146626868Y-90792058D01*
X146640308Y-90788779D01*
X146641463Y-90783933D01*
X146665517Y-90759884D01*
X146668069Y-90758385D01*
X147441385Y-90758385D01*
X147451154Y-90768154D01*
X147460923Y-90758385D01*
X147451154Y-90748616D01*
X147441385Y-90758385D01*
X146668069Y-90758385D01*
X146711092Y-90733114D01*
X146765427Y-90710235D01*
X146815759Y-90697861D01*
X146850440Y-90699768D01*
X146880747Y-90715651D01*
X146893766Y-90728404D01*
X146907193Y-90714423D01*
X146909851Y-90710366D01*
X146940880Y-90695829D01*
X146992000Y-90690000D01*
X147004577Y-90690330D01*
X147052482Y-90698525D01*
X147076807Y-90714423D01*
X147085015Y-90726898D01*
X147093240Y-90722564D01*
X147330667Y-90722564D01*
X147333530Y-90724903D01*
X147356718Y-90722564D01*
X147359775Y-90716687D01*
X147343692Y-90709539D01*
X147333349Y-90710949D01*
X147330667Y-90722564D01*
X147093240Y-90722564D01*
X147102859Y-90717496D01*
X147133137Y-90697422D01*
X147185718Y-90683487D01*
X147240255Y-90680894D01*
X147278105Y-90692322D01*
X147293551Y-90702141D01*
X147304615Y-90694641D01*
X147312317Y-90691068D01*
X147354309Y-90685778D01*
X147429869Y-90680967D01*
X147535628Y-90676697D01*
X147668215Y-90673028D01*
X147824260Y-90670020D01*
X148000392Y-90667736D01*
X148193241Y-90666234D01*
X148399436Y-90665576D01*
X148615608Y-90665823D01*
X148838385Y-90667034D01*
X148845333Y-90667085D01*
X148962536Y-90667231D01*
X149081064Y-90666253D01*
X149187450Y-90664320D01*
X149268231Y-90661602D01*
X149295062Y-90660408D01*
X149376198Y-90657284D01*
X149484593Y-90653529D01*
X149612259Y-90649405D01*
X149751211Y-90645173D01*
X149893462Y-90641096D01*
X149969506Y-90638937D01*
X150105133Y-90634829D01*
X150230075Y-90630732D01*
X150337238Y-90626892D01*
X150419527Y-90623559D01*
X150469846Y-90620978D01*
X150554414Y-90616182D01*
X150664884Y-90611648D01*
X150781633Y-90608316D01*
X150898187Y-90606228D01*
X151008070Y-90605426D01*
X151104807Y-90605951D01*
X151181922Y-90607847D01*
X151232940Y-90611154D01*
X151251385Y-90615915D01*
X151253057Y-90621931D01*
X151271663Y-90621158D01*
X151272574Y-90620764D01*
X151300965Y-90617631D01*
X151362626Y-90614971D01*
X151452361Y-90612876D01*
X151564974Y-90611440D01*
X151695271Y-90610757D01*
X151838056Y-90610922D01*
X152384170Y-90613219D01*
X152366001Y-90565432D01*
X152360977Y-90551203D01*
X152343056Y-90490468D01*
X152322647Y-90410900D01*
X152302314Y-90323803D01*
X152284617Y-90240481D01*
X152272120Y-90172238D01*
X152267385Y-90130380D01*
X152259201Y-90089098D01*
X152237480Y-90026530D01*
X152206963Y-89956565D01*
X152146541Y-89831285D01*
X152036001Y-89840361D01*
X151975071Y-89845213D01*
X151861462Y-89853582D01*
X151749404Y-89861088D01*
X151646379Y-89867293D01*
X151559867Y-89871758D01*
X151497349Y-89874047D01*
X151466308Y-89873720D01*
X151465350Y-89873628D01*
X151436471Y-89872860D01*
X151372371Y-89872058D01*
X151276481Y-89871238D01*
X151152230Y-89870421D01*
X151003048Y-89869623D01*
X150832365Y-89868865D01*
X150643612Y-89868164D01*
X150440219Y-89867539D01*
X150225615Y-89867009D01*
X150020713Y-89866314D01*
X149800927Y-89865028D01*
X149589423Y-89863252D01*
X149390602Y-89861049D01*
X149208861Y-89858481D01*
X149048601Y-89855613D01*
X148914220Y-89852506D01*
X148810117Y-89849222D01*
X148740692Y-89845826D01*
X148729081Y-89845054D01*
X148564175Y-89836593D01*
X148367060Y-89830362D01*
X148144041Y-89826406D01*
X147901422Y-89824771D01*
X147645506Y-89825502D01*
X147382598Y-89828644D01*
X147119000Y-89834241D01*
X147003024Y-89836859D01*
X146842984Y-89839566D01*
X146664547Y-89841820D01*
X146474099Y-89843598D01*
X146278024Y-89844877D01*
X146082707Y-89845633D01*
X145894536Y-89845843D01*
X145719894Y-89845483D01*
X145565167Y-89844530D01*
X145436740Y-89842960D01*
X145341000Y-89840751D01*
X145321098Y-89840078D01*
X145240745Y-89837173D01*
X145136484Y-89833221D01*
X145019601Y-89828653D01*
X144901385Y-89823902D01*
X144861601Y-89822285D01*
X144633911Y-89813354D01*
X144439029Y-89806432D01*
X144271597Y-89801462D01*
X144126260Y-89798387D01*
X143997658Y-89797151D01*
X143880434Y-89797695D01*
X143769232Y-89799963D01*
X143658694Y-89803897D01*
X143543462Y-89809442D01*
X143394179Y-89816708D01*
X143230054Y-89823423D01*
X143063768Y-89829089D01*
X142899900Y-89833640D01*
X142743028Y-89837010D01*
X142597730Y-89839133D01*
X142468583Y-89839943D01*
X142360166Y-89839374D01*
X142277057Y-89837360D01*
X142223835Y-89833835D01*
X142205077Y-89828733D01*
X142201805Y-89820539D01*
X142263692Y-89820539D01*
X142273462Y-89830308D01*
X142283231Y-89820539D01*
X142273462Y-89810769D01*
X142263692Y-89820539D01*
X142201805Y-89820539D01*
X142201783Y-89820484D01*
X142175769Y-89810769D01*
X142162239Y-89813322D01*
X142146462Y-89833226D01*
X142145574Y-89834519D01*
X142118896Y-89839652D01*
X142058097Y-89843326D01*
X141967236Y-89845594D01*
X141850368Y-89846510D01*
X141711553Y-89846125D01*
X141554847Y-89844492D01*
X141384309Y-89841664D01*
X141203996Y-89837693D01*
X141017967Y-89832632D01*
X140830278Y-89826534D01*
X140644988Y-89819452D01*
X140466154Y-89811437D01*
X140348717Y-89806679D01*
X140192418Y-89802665D01*
X140029157Y-89800623D01*
X139864686Y-89800455D01*
X139704759Y-89802063D01*
X139555128Y-89805350D01*
X139421545Y-89810218D01*
X139309763Y-89816570D01*
X139225534Y-89824308D01*
X139174612Y-89833334D01*
X139124177Y-89843581D01*
X139067150Y-89835269D01*
X139040781Y-89828368D01*
X138980168Y-89825254D01*
X138903077Y-89829973D01*
X138843073Y-89834968D01*
X138753230Y-89838413D01*
X138678385Y-89837004D01*
X138580981Y-89831381D01*
X138481699Y-89828776D01*
X138412651Y-89831154D01*
X138378101Y-89838493D01*
X138359384Y-89842520D01*
X138307888Y-89846835D01*
X138233367Y-89849950D01*
X138144697Y-89851376D01*
X138019072Y-89855425D01*
X137912595Y-89865870D01*
X137835558Y-89881785D01*
X137797035Y-89892004D01*
X137699407Y-89910305D01*
X137579329Y-89926091D01*
X137447708Y-89938250D01*
X137315450Y-89945670D01*
X137193462Y-89947241D01*
X137184073Y-89947099D01*
X137099896Y-89945888D01*
X136991486Y-89944404D01*
X136871814Y-89942821D01*
X136753846Y-89941314D01*
X136560971Y-89933371D01*
X136354766Y-89914005D01*
X136159039Y-89885031D01*
X135987842Y-89848158D01*
X135954511Y-89836707D01*
X135937771Y-89828002D01*
X136343538Y-89828002D01*
X136344268Y-89833733D01*
X136363077Y-89859616D01*
X136370577Y-89862746D01*
X136382615Y-89852153D01*
X136381886Y-89846422D01*
X136379642Y-89843334D01*
X136955744Y-89843334D01*
X136958607Y-89845672D01*
X136981795Y-89843334D01*
X136984852Y-89837457D01*
X136968769Y-89830308D01*
X136958426Y-89831718D01*
X136955744Y-89843334D01*
X136379642Y-89843334D01*
X136363077Y-89820539D01*
X139118000Y-89820539D01*
X139127769Y-89830308D01*
X139137538Y-89820539D01*
X139127769Y-89810769D01*
X139118000Y-89820539D01*
X136363077Y-89820539D01*
X136355577Y-89817409D01*
X136343538Y-89828002D01*
X135937771Y-89828002D01*
X135897001Y-89806801D01*
X135848342Y-89771692D01*
X136509615Y-89771692D01*
X136513626Y-89777540D01*
X136530307Y-89791231D01*
X137349769Y-89791231D01*
X137353762Y-89796511D01*
X137381383Y-89810769D01*
X137387953Y-89809264D01*
X137388060Y-89807095D01*
X137428345Y-89807095D01*
X137462115Y-89810470D01*
X137498948Y-89808575D01*
X137515846Y-89803091D01*
X137508524Y-89795714D01*
X152998851Y-89795714D01*
X153000969Y-89817115D01*
X153016593Y-89867101D01*
X153043141Y-89938433D01*
X153077946Y-90023949D01*
X153118341Y-90116491D01*
X153136755Y-90164461D01*
X153161861Y-90254185D01*
X153177335Y-90341184D01*
X153184144Y-90395019D01*
X153202312Y-90480753D01*
X153228558Y-90535415D01*
X153266113Y-90564316D01*
X153318208Y-90572769D01*
X153318224Y-90572769D01*
X153389751Y-90566760D01*
X153459360Y-90552317D01*
X153538083Y-90535118D01*
X153659902Y-90521024D01*
X153809735Y-90513428D01*
X153981885Y-90512760D01*
X153985468Y-90512817D01*
X154079486Y-90513041D01*
X154140015Y-90509814D01*
X154172368Y-90502549D01*
X154181861Y-90490657D01*
X154174249Y-90444593D01*
X154153615Y-90372138D01*
X154123682Y-90284467D01*
X154088168Y-90191810D01*
X154050792Y-90104394D01*
X154015273Y-90032448D01*
X153969131Y-89947402D01*
X153933662Y-89886614D01*
X153901811Y-89847609D01*
X153865076Y-89825277D01*
X153814953Y-89814507D01*
X153742941Y-89810189D01*
X153640537Y-89807212D01*
X153558219Y-89803751D01*
X153464343Y-89796705D01*
X153407261Y-89787367D01*
X153385626Y-89775570D01*
X153377699Y-89764226D01*
X153345256Y-89752453D01*
X153341955Y-89752498D01*
X153323712Y-89756325D01*
X153341613Y-89771040D01*
X153345102Y-89774241D01*
X153331212Y-89782455D01*
X153278952Y-89787212D01*
X153188749Y-89788463D01*
X153145152Y-89788492D01*
X153072466Y-89789742D01*
X153020668Y-89792264D01*
X152998851Y-89795714D01*
X137508524Y-89795714D01*
X137501744Y-89788884D01*
X137468421Y-89784175D01*
X137435920Y-89792739D01*
X137430642Y-89796379D01*
X137428345Y-89807095D01*
X137388060Y-89807095D01*
X137388846Y-89791231D01*
X137384853Y-89785951D01*
X137357232Y-89771692D01*
X137350662Y-89773198D01*
X137349769Y-89791231D01*
X136530307Y-89791231D01*
X136532257Y-89790723D01*
X136538923Y-89771692D01*
X136538128Y-89766337D01*
X136531936Y-89761923D01*
X146581692Y-89761923D01*
X146591462Y-89771692D01*
X146601231Y-89761923D01*
X146591462Y-89752154D01*
X146581692Y-89761923D01*
X136531936Y-89761923D01*
X136518231Y-89752154D01*
X136511164Y-89753688D01*
X136509615Y-89771692D01*
X135848342Y-89771692D01*
X135846001Y-89770003D01*
X135819498Y-89742385D01*
X136597538Y-89742385D01*
X136607308Y-89752154D01*
X136617077Y-89742385D01*
X136607308Y-89732616D01*
X136597538Y-89742385D01*
X135819498Y-89742385D01*
X135811281Y-89733822D01*
X135802853Y-89706564D01*
X138186667Y-89706564D01*
X138189530Y-89708903D01*
X138212718Y-89706564D01*
X138215775Y-89700687D01*
X138199692Y-89693539D01*
X138189349Y-89694949D01*
X138186667Y-89706564D01*
X135802853Y-89706564D01*
X135802606Y-89705766D01*
X135804104Y-89683913D01*
X135797598Y-89654462D01*
X137261846Y-89654462D01*
X137262641Y-89659817D01*
X137282538Y-89674000D01*
X137289605Y-89672466D01*
X137291031Y-89655894D01*
X140329385Y-89655894D01*
X140332446Y-89663545D01*
X140357579Y-89673066D01*
X140392097Y-89670482D01*
X140416473Y-89655812D01*
X140419144Y-89650030D01*
X140417443Y-89644692D01*
X144295692Y-89644692D01*
X144305462Y-89654462D01*
X144315231Y-89644692D01*
X144305462Y-89634923D01*
X144295692Y-89644692D01*
X140417443Y-89644692D01*
X140412742Y-89629942D01*
X140412282Y-89629711D01*
X140379992Y-89626861D01*
X140345477Y-89637732D01*
X140329385Y-89655894D01*
X137291031Y-89655894D01*
X137291154Y-89654462D01*
X137287144Y-89648615D01*
X137270462Y-89634923D01*
X137268512Y-89635431D01*
X137261846Y-89654462D01*
X135797598Y-89654462D01*
X135794668Y-89641196D01*
X135794273Y-89640093D01*
X135794692Y-89615385D01*
X138942154Y-89615385D01*
X138943564Y-89625728D01*
X138955179Y-89628410D01*
X138957518Y-89625547D01*
X138955179Y-89602359D01*
X138949303Y-89599302D01*
X138942154Y-89615385D01*
X135794692Y-89615385D01*
X135795136Y-89589215D01*
X135823406Y-89533215D01*
X135839402Y-89516461D01*
X135961778Y-89516461D01*
X135981195Y-89530747D01*
X136018704Y-89536770D01*
X136054219Y-89530144D01*
X136070000Y-89511658D01*
X136065507Y-89490960D01*
X136044892Y-89451747D01*
X136029602Y-89433092D01*
X136011697Y-89430347D01*
X135984363Y-89456551D01*
X135963886Y-89488335D01*
X135961778Y-89516461D01*
X135839402Y-89516461D01*
X135871227Y-89483129D01*
X135930747Y-89449992D01*
X135990231Y-89430101D01*
X136290870Y-89430101D01*
X136294692Y-89459077D01*
X136306783Y-89472520D01*
X136331565Y-89475769D01*
X136343538Y-89450461D01*
X136342064Y-89438476D01*
X136325350Y-89411065D01*
X136306376Y-89409772D01*
X136290870Y-89430101D01*
X135990231Y-89430101D01*
X135996649Y-89427955D01*
X135950286Y-89396481D01*
X135926276Y-89379033D01*
X135917553Y-89363499D01*
X135938159Y-89351319D01*
X135940700Y-89350367D01*
X135980440Y-89345134D01*
X136022819Y-89350876D01*
X136053932Y-89364146D01*
X136059877Y-89381496D01*
X136057044Y-89388609D01*
X136069460Y-89400462D01*
X136080131Y-89397470D01*
X136101583Y-89372270D01*
X136102382Y-89370294D01*
X136121395Y-89353990D01*
X136160857Y-89362500D01*
X136178506Y-89367709D01*
X136237731Y-89377173D01*
X136305733Y-89380923D01*
X136330999Y-89381131D01*
X136377058Y-89385108D01*
X136397512Y-89397375D01*
X136402154Y-89422118D01*
X136402512Y-89432478D01*
X136413704Y-89454348D01*
X136448764Y-89451615D01*
X136479227Y-89448930D01*
X136519541Y-89469035D01*
X136535744Y-89484633D01*
X136564509Y-89498154D01*
X136568013Y-89496230D01*
X136559759Y-89476076D01*
X136537477Y-89449308D01*
X136675692Y-89449308D01*
X136685462Y-89459077D01*
X136695231Y-89449308D01*
X136689910Y-89443987D01*
X136755044Y-89443987D01*
X136770892Y-89465648D01*
X136785694Y-89489109D01*
X136774624Y-89498154D01*
X136766466Y-89499765D01*
X136763615Y-89517692D01*
X136788230Y-89535482D01*
X136817842Y-89532268D01*
X136820718Y-89527462D01*
X137105538Y-89527462D01*
X137115308Y-89537231D01*
X137119958Y-89532581D01*
X137347035Y-89532581D01*
X137371672Y-89549932D01*
X137421699Y-89556769D01*
X137451401Y-89555731D01*
X137468531Y-89547761D01*
X137457231Y-89527462D01*
X137433589Y-89508991D01*
X137389572Y-89498235D01*
X137353557Y-89510648D01*
X137347035Y-89532581D01*
X137119958Y-89532581D01*
X137125077Y-89527462D01*
X137115308Y-89517692D01*
X137105538Y-89527462D01*
X136820718Y-89527462D01*
X136832000Y-89508611D01*
X136823211Y-89488385D01*
X137066462Y-89488385D01*
X137076231Y-89498154D01*
X137086000Y-89488385D01*
X137076231Y-89478616D01*
X137066462Y-89488385D01*
X136823211Y-89488385D01*
X136821559Y-89484582D01*
X136789590Y-89457863D01*
X136851538Y-89457863D01*
X136858357Y-89467825D01*
X136889262Y-89473345D01*
X136909551Y-89468719D01*
X136914292Y-89460462D01*
X137603769Y-89460462D01*
X137652370Y-89487363D01*
X137658069Y-89490403D01*
X137699370Y-89504624D01*
X137723043Y-89499802D01*
X137720166Y-89477266D01*
X137699261Y-89465336D01*
X137656347Y-89459769D01*
X137603769Y-89460462D01*
X136914292Y-89460462D01*
X136917416Y-89455021D01*
X136895646Y-89441466D01*
X136866182Y-89442246D01*
X136851538Y-89457863D01*
X136789590Y-89457863D01*
X136788038Y-89456566D01*
X136766310Y-89445427D01*
X136755044Y-89443987D01*
X136689910Y-89443987D01*
X136685462Y-89439539D01*
X136675692Y-89449308D01*
X136537477Y-89449308D01*
X136530616Y-89441065D01*
X136519794Y-89429769D01*
X136714769Y-89429769D01*
X136724538Y-89439539D01*
X136734308Y-89429769D01*
X136724538Y-89420000D01*
X136714769Y-89429769D01*
X136519794Y-89429769D01*
X136475921Y-89383975D01*
X136567561Y-89370233D01*
X136585550Y-89368002D01*
X136670191Y-89365023D01*
X136750485Y-89371319D01*
X136771937Y-89374576D01*
X136846697Y-89383426D01*
X136910154Y-89387766D01*
X136916546Y-89388002D01*
X136965472Y-89395525D01*
X136993786Y-89409577D01*
X137001074Y-89408834D01*
X137000883Y-89407344D01*
X137364763Y-89407344D01*
X137379323Y-89420566D01*
X137388588Y-89426118D01*
X137424513Y-89438516D01*
X137437692Y-89424158D01*
X137428223Y-89413913D01*
X137393977Y-89405485D01*
X137385089Y-89404912D01*
X137364763Y-89407344D01*
X137000883Y-89407344D01*
X136997195Y-89378598D01*
X136993466Y-89358759D01*
X137000125Y-89330714D01*
X137036019Y-89317743D01*
X137065503Y-89316119D01*
X137128137Y-89321668D01*
X137198687Y-89334899D01*
X137242371Y-89344388D01*
X137330063Y-89359468D01*
X137406378Y-89368229D01*
X137411432Y-89368597D01*
X137485410Y-89382208D01*
X137526520Y-89408164D01*
X137544488Y-89426508D01*
X137558770Y-89418228D01*
X137577644Y-89401113D01*
X137619282Y-89389226D01*
X137660540Y-89383092D01*
X137709095Y-89371832D01*
X137733651Y-89369777D01*
X137773021Y-89386889D01*
X137795447Y-89406287D01*
X137845481Y-89424708D01*
X137892041Y-89404581D01*
X137923108Y-89386695D01*
X137970195Y-89393054D01*
X137994411Y-89400377D01*
X138067910Y-89407277D01*
X138174727Y-89403053D01*
X138316923Y-89387673D01*
X138405096Y-89380898D01*
X138561154Y-89395137D01*
X138622612Y-89406065D01*
X138821440Y-89417231D01*
X139017454Y-89390157D01*
X139044443Y-89384621D01*
X139081917Y-89379235D01*
X139129125Y-89374919D01*
X139189327Y-89371631D01*
X139265783Y-89369326D01*
X139361751Y-89367960D01*
X139480492Y-89367492D01*
X139625266Y-89367876D01*
X139799331Y-89369069D01*
X140005949Y-89371028D01*
X140248377Y-89373710D01*
X140304295Y-89374341D01*
X140532591Y-89376611D01*
X140765094Y-89378470D01*
X140995622Y-89379897D01*
X141217992Y-89380869D01*
X141426021Y-89381363D01*
X141613525Y-89381357D01*
X141774323Y-89380828D01*
X141902231Y-89379753D01*
X141917038Y-89379571D01*
X142145042Y-89377005D01*
X142364633Y-89375048D01*
X142582593Y-89373687D01*
X142805708Y-89372905D01*
X143040760Y-89372686D01*
X143294534Y-89373016D01*
X143573815Y-89373880D01*
X143885385Y-89375261D01*
X143958695Y-89375623D01*
X144118404Y-89376401D01*
X144269593Y-89377126D01*
X144406151Y-89377768D01*
X144521966Y-89378299D01*
X144610927Y-89378690D01*
X144666923Y-89378913D01*
X144757028Y-89380431D01*
X144868337Y-89384311D01*
X144969769Y-89389643D01*
X145287861Y-89407372D01*
X145628476Y-89418239D01*
X145960593Y-89419253D01*
X146295746Y-89410257D01*
X146645473Y-89391093D01*
X147021308Y-89361603D01*
X147190762Y-89349020D01*
X147386402Y-89339618D01*
X147579999Y-89335194D01*
X147762384Y-89335827D01*
X147924389Y-89341598D01*
X148056846Y-89352586D01*
X148059430Y-89352859D01*
X148100836Y-89355201D01*
X148175891Y-89357772D01*
X148279776Y-89360468D01*
X148407672Y-89363185D01*
X148554760Y-89365820D01*
X148716219Y-89368269D01*
X148887231Y-89370429D01*
X149044484Y-89372540D01*
X149231153Y-89375799D01*
X149413889Y-89379733D01*
X149585662Y-89384159D01*
X149739445Y-89388894D01*
X149868209Y-89393755D01*
X149964926Y-89398557D01*
X150037620Y-89402542D01*
X150147866Y-89407119D01*
X150244376Y-89409402D01*
X150318737Y-89409225D01*
X150362535Y-89406422D01*
X150366856Y-89405743D01*
X150422900Y-89404142D01*
X150451667Y-89422011D01*
X150471024Y-89438680D01*
X150503629Y-89427653D01*
X150506737Y-89426086D01*
X150546593Y-89417564D01*
X150619219Y-89410640D01*
X150719237Y-89405706D01*
X150841264Y-89403153D01*
X150865315Y-89402910D01*
X151028470Y-89400522D01*
X151197619Y-89396904D01*
X151365251Y-89392307D01*
X151523854Y-89386978D01*
X151665916Y-89381167D01*
X151783926Y-89375122D01*
X151870371Y-89369091D01*
X151991126Y-89358566D01*
X151980077Y-89188029D01*
X151977168Y-89112399D01*
X151982707Y-89023829D01*
X151988638Y-89000115D01*
X152766507Y-89000115D01*
X152770095Y-89020698D01*
X152782984Y-89069893D01*
X152801471Y-89131767D01*
X152821586Y-89193724D01*
X152839359Y-89243171D01*
X152850817Y-89267513D01*
X152868015Y-89271809D01*
X152916866Y-89276476D01*
X152989266Y-89280612D01*
X153077393Y-89284056D01*
X153173424Y-89286643D01*
X153269535Y-89288210D01*
X153357904Y-89288595D01*
X153430707Y-89287633D01*
X153480123Y-89285163D01*
X153498328Y-89281020D01*
X153498191Y-89279767D01*
X153481549Y-89255461D01*
X153443834Y-89217095D01*
X153394624Y-89172910D01*
X153343496Y-89131146D01*
X153300030Y-89100045D01*
X153273803Y-89087846D01*
X153256812Y-89084825D01*
X153209199Y-89068161D01*
X153150850Y-89041795D01*
X153119074Y-89026713D01*
X153052607Y-88999171D01*
X153000077Y-88982252D01*
X152952010Y-88971308D01*
X152912154Y-88962456D01*
X152871536Y-88961023D01*
X152822818Y-88969266D01*
X152782742Y-88983606D01*
X152766507Y-89000115D01*
X151988638Y-89000115D01*
X152002510Y-88944648D01*
X152040140Y-88865828D01*
X152099155Y-88778340D01*
X152183118Y-88673154D01*
X152229009Y-88619676D01*
X152295162Y-88551157D01*
X152353778Y-88504274D01*
X152413131Y-88471782D01*
X152450052Y-88453713D01*
X152510195Y-88417386D01*
X152550692Y-88384075D01*
X152592837Y-88347307D01*
X152648385Y-88314172D01*
X152714497Y-88293695D01*
X152809679Y-88291148D01*
X152923702Y-88315866D01*
G37*
D13*
%TO.C,J13*%
X128017499Y-77199000D02*
X128017499Y-74539000D01*
X128587499Y-73019000D02*
X128587499Y-74539000D01*
X128587499Y-74539000D02*
X128017499Y-74539000D01*
X131127498Y-77199000D02*
X128017499Y-77199000D01*
X133667500Y-74539000D02*
X130107499Y-74538999D01*
X136207499Y-77199000D02*
X132647499Y-77199000D01*
X138747499Y-74539000D02*
X135187499Y-74539000D01*
X138752499Y-77209000D02*
X137727499Y-77199000D01*
X138752499Y-77209000D02*
X138752499Y-74549000D01*
%TO.C,J12*%
D15*
X166861499Y-74654300D02*
X153869600Y-74654300D01*
X153869600Y-77276000D01*
X166861499Y-77276000D01*
X166861499Y-74654300D01*
%TD*%
M02*
